<mxfile host="app.diagrams.net" agent="Mozilla/5.0 (Windows NT 10.0; Win64; x64) AppleWebKit/537.36 (KHTML, like Gecko) Chrome/138.0.0.0 Safari/537.36 OPR/122.0.0.0 (Edition std-2)" version="28.2.7">
  <diagram name="Page-1" id="_q4_dArPaYVle1KRaqx7">
    <mxGraphModel dx="2837" dy="2233" grid="1" gridSize="10" guides="1" tooltips="1" connect="1" arrows="1" fold="1" page="1" pageScale="1" pageWidth="827" pageHeight="1169" math="0" shadow="0">
      <root>
        <mxCell id="0" />
        <mxCell id="1" parent="0" />
        <mxCell id="pWE6F50j8uLxKZcUZwO4-1" value="" style="swimlane;startSize=0;" parent="1" vertex="1">
          <mxGeometry x="-3" y="120" width="830" height="560" as="geometry" />
        </mxCell>
        <mxCell id="pWE6F50j8uLxKZcUZwO4-2" value="" style="rounded=0;whiteSpace=wrap;html=1;" parent="pWE6F50j8uLxKZcUZwO4-1" vertex="1">
          <mxGeometry width="830" height="80" as="geometry" />
        </mxCell>
        <mxCell id="pWE6F50j8uLxKZcUZwO4-3" value="Library" style="text;html=1;align=center;verticalAlign=middle;whiteSpace=wrap;rounded=0;fillColor=#f8cecc;labelBackgroundColor=none;strokeColor=#b85450;" parent="pWE6F50j8uLxKZcUZwO4-1" vertex="1">
          <mxGeometry x="10" y="25" width="60" height="30" as="geometry" />
        </mxCell>
        <mxCell id="pWE6F50j8uLxKZcUZwO4-4" value="Market" style="text;html=1;align=center;verticalAlign=middle;whiteSpace=wrap;rounded=0;" parent="pWE6F50j8uLxKZcUZwO4-1" vertex="1">
          <mxGeometry x="100" y="25" width="60" height="30" as="geometry" />
        </mxCell>
        <mxCell id="pWE6F50j8uLxKZcUZwO4-5" value="Profile" style="text;html=1;align=center;verticalAlign=middle;whiteSpace=wrap;rounded=0;" parent="pWE6F50j8uLxKZcUZwO4-1" vertex="1">
          <mxGeometry x="190" y="25" width="60" height="30" as="geometry" />
        </mxCell>
        <mxCell id="pWE6F50j8uLxKZcUZwO4-6" value="Settings" style="text;html=1;align=center;verticalAlign=middle;whiteSpace=wrap;rounded=0;" parent="pWE6F50j8uLxKZcUZwO4-1" vertex="1">
          <mxGeometry x="280" y="25" width="60" height="30" as="geometry" />
        </mxCell>
        <mxCell id="pWE6F50j8uLxKZcUZwO4-13" value="" style="rounded=0;whiteSpace=wrap;html=1;" parent="pWE6F50j8uLxKZcUZwO4-1" vertex="1">
          <mxGeometry y="80" width="120" height="480" as="geometry" />
        </mxCell>
        <mxCell id="pWE6F50j8uLxKZcUZwO4-14" value="Group" style="text;html=1;align=center;verticalAlign=middle;whiteSpace=wrap;rounded=0;" parent="pWE6F50j8uLxKZcUZwO4-1" vertex="1">
          <mxGeometry y="80" width="83" height="30" as="geometry" />
        </mxCell>
        <mxCell id="pWE6F50j8uLxKZcUZwO4-15" value="Activity" style="text;html=1;align=center;verticalAlign=middle;whiteSpace=wrap;rounded=0;fillColor=#f8cecc;strokeColor=#b85450;" parent="pWE6F50j8uLxKZcUZwO4-1" vertex="1">
          <mxGeometry x="23" y="110" width="60" height="30" as="geometry" />
        </mxCell>
        <mxCell id="pWE6F50j8uLxKZcUZwO4-16" value="Activity" style="text;html=1;align=center;verticalAlign=middle;whiteSpace=wrap;rounded=0;" parent="pWE6F50j8uLxKZcUZwO4-1" vertex="1">
          <mxGeometry x="23" y="140" width="60" height="30" as="geometry" />
        </mxCell>
        <mxCell id="pWE6F50j8uLxKZcUZwO4-17" value="Activity" style="text;html=1;align=center;verticalAlign=middle;whiteSpace=wrap;rounded=0;" parent="pWE6F50j8uLxKZcUZwO4-1" vertex="1">
          <mxGeometry x="23" y="170" width="60" height="30" as="geometry" />
        </mxCell>
        <mxCell id="pWE6F50j8uLxKZcUZwO4-18" value="Activity" style="text;html=1;align=center;verticalAlign=middle;whiteSpace=wrap;rounded=0;" parent="pWE6F50j8uLxKZcUZwO4-1" vertex="1">
          <mxGeometry x="23" y="200" width="60" height="30" as="geometry" />
        </mxCell>
        <mxCell id="pWE6F50j8uLxKZcUZwO4-32" value="" style="rounded=0;whiteSpace=wrap;html=1;fillColor=#f5f5f5;fontColor=#333333;strokeColor=#666666;" parent="pWE6F50j8uLxKZcUZwO4-1" vertex="1">
          <mxGeometry x="120" y="80" width="710" height="480" as="geometry" />
        </mxCell>
        <mxCell id="pWE6F50j8uLxKZcUZwO4-152" value="" style="rounded=0;whiteSpace=wrap;html=1;fillColor=#fff2cc;strokeColor=#d6b656;" parent="pWE6F50j8uLxKZcUZwO4-1" vertex="1">
          <mxGeometry x="120" y="80" width="710" height="90" as="geometry" />
        </mxCell>
        <mxCell id="pWE6F50j8uLxKZcUZwO4-153" value="Name" style="text;html=1;align=center;verticalAlign=middle;whiteSpace=wrap;rounded=0;" parent="pWE6F50j8uLxKZcUZwO4-1" vertex="1">
          <mxGeometry x="423" y="90" width="60" height="30" as="geometry" />
        </mxCell>
        <mxCell id="pWE6F50j8uLxKZcUZwO4-154" value="Picture" style="rounded=0;whiteSpace=wrap;html=1;" parent="pWE6F50j8uLxKZcUZwO4-1" vertex="1">
          <mxGeometry x="130" y="90" width="70" height="60" as="geometry" />
        </mxCell>
        <mxCell id="pWE6F50j8uLxKZcUZwO4-155" value="Achievements" style="text;html=1;align=center;verticalAlign=middle;whiteSpace=wrap;rounded=0;fillColor=#f8cecc;strokeColor=#b85450;" parent="pWE6F50j8uLxKZcUZwO4-1" vertex="1">
          <mxGeometry x="233" y="140" width="87" height="30" as="geometry" />
        </mxCell>
        <mxCell id="pWE6F50j8uLxKZcUZwO4-157" value="Session" style="text;html=1;align=center;verticalAlign=middle;whiteSpace=wrap;rounded=0;strokeColor=default;" parent="pWE6F50j8uLxKZcUZwO4-1" vertex="1">
          <mxGeometry x="329" y="140" width="87" height="30" as="geometry" />
        </mxCell>
        <mxCell id="pWE6F50j8uLxKZcUZwO4-158" value="Settings" style="text;html=1;align=center;verticalAlign=middle;whiteSpace=wrap;rounded=0;strokeColor=default;" parent="pWE6F50j8uLxKZcUZwO4-1" vertex="1">
          <mxGeometry x="426.5" y="140" width="87" height="30" as="geometry" />
        </mxCell>
        <mxCell id="pWE6F50j8uLxKZcUZwO4-159" value="" style="rounded=0;whiteSpace=wrap;html=1;fillColor=#d5e8d4;strokeColor=#82b366;" parent="pWE6F50j8uLxKZcUZwO4-1" vertex="1">
          <mxGeometry x="130" y="185" width="680" height="60" as="geometry" />
        </mxCell>
        <mxCell id="pWE6F50j8uLxKZcUZwO4-160" value="Name" style="text;html=1;align=center;verticalAlign=middle;whiteSpace=wrap;rounded=0;" parent="pWE6F50j8uLxKZcUZwO4-1" vertex="1">
          <mxGeometry x="143" y="200" width="60" height="30" as="geometry" />
        </mxCell>
        <mxCell id="pWE6F50j8uLxKZcUZwO4-161" value="Picture" style="rounded=0;whiteSpace=wrap;html=1;" parent="pWE6F50j8uLxKZcUZwO4-1" vertex="1">
          <mxGeometry x="750" y="190" width="53" height="50" as="geometry" />
        </mxCell>
        <mxCell id="pWE6F50j8uLxKZcUZwO4-162" value="Type" style="text;html=1;align=center;verticalAlign=middle;whiteSpace=wrap;rounded=0;" parent="pWE6F50j8uLxKZcUZwO4-1" vertex="1">
          <mxGeometry x="223" y="185" width="60" height="30" as="geometry" />
        </mxCell>
        <mxCell id="pWE6F50j8uLxKZcUZwO4-163" value="One-time" style="text;html=1;align=center;verticalAlign=middle;whiteSpace=wrap;rounded=0;" parent="pWE6F50j8uLxKZcUZwO4-1" vertex="1">
          <mxGeometry x="223" y="215" width="60" height="30" as="geometry" />
        </mxCell>
        <mxCell id="pWE6F50j8uLxKZcUZwO4-164" value="" style="endArrow=none;html=1;rounded=0;" parent="pWE6F50j8uLxKZcUZwO4-1" edge="1">
          <mxGeometry width="50" height="50" relative="1" as="geometry">
            <mxPoint x="213" y="245" as="sourcePoint" />
            <mxPoint x="213" y="185" as="targetPoint" />
          </mxGeometry>
        </mxCell>
        <mxCell id="pWE6F50j8uLxKZcUZwO4-165" value="" style="endArrow=none;html=1;rounded=0;" parent="pWE6F50j8uLxKZcUZwO4-1" edge="1">
          <mxGeometry width="50" height="50" relative="1" as="geometry">
            <mxPoint x="213" y="213.95000000000005" as="sourcePoint" />
            <mxPoint x="293" y="213.95000000000005" as="targetPoint" />
          </mxGeometry>
        </mxCell>
        <mxCell id="pWE6F50j8uLxKZcUZwO4-166" value="" style="endArrow=none;html=1;rounded=0;" parent="pWE6F50j8uLxKZcUZwO4-1" edge="1">
          <mxGeometry width="50" height="50" relative="1" as="geometry">
            <mxPoint x="293" y="245" as="sourcePoint" />
            <mxPoint x="293" y="185" as="targetPoint" />
          </mxGeometry>
        </mxCell>
        <mxCell id="pWE6F50j8uLxKZcUZwO4-167" value="Info" style="text;html=1;align=center;verticalAlign=middle;whiteSpace=wrap;rounded=0;" parent="pWE6F50j8uLxKZcUZwO4-1" vertex="1">
          <mxGeometry x="313" y="200" width="60" height="30" as="geometry" />
        </mxCell>
        <mxCell id="pWE6F50j8uLxKZcUZwO4-168" value="Finished" style="text;html=1;align=center;verticalAlign=middle;whiteSpace=wrap;rounded=0;" parent="pWE6F50j8uLxKZcUZwO4-1" vertex="1">
          <mxGeometry x="673" y="185" width="60" height="30" as="geometry" />
        </mxCell>
        <mxCell id="pWE6F50j8uLxKZcUZwO4-170" value="" style="endArrow=none;html=1;rounded=0;" parent="pWE6F50j8uLxKZcUZwO4-1" edge="1">
          <mxGeometry width="50" height="50" relative="1" as="geometry">
            <mxPoint x="663" y="245" as="sourcePoint" />
            <mxPoint x="663" y="185" as="targetPoint" />
          </mxGeometry>
        </mxCell>
        <mxCell id="pWE6F50j8uLxKZcUZwO4-171" value="" style="endArrow=none;html=1;rounded=0;" parent="pWE6F50j8uLxKZcUZwO4-1" edge="1">
          <mxGeometry width="50" height="50" relative="1" as="geometry">
            <mxPoint x="663" y="213.95000000000005" as="sourcePoint" />
            <mxPoint x="743" y="213.95000000000005" as="targetPoint" />
          </mxGeometry>
        </mxCell>
        <mxCell id="pWE6F50j8uLxKZcUZwO4-172" value="" style="endArrow=none;html=1;rounded=0;" parent="pWE6F50j8uLxKZcUZwO4-1" edge="1">
          <mxGeometry width="50" height="50" relative="1" as="geometry">
            <mxPoint x="743" y="245" as="sourcePoint" />
            <mxPoint x="743" y="185" as="targetPoint" />
          </mxGeometry>
        </mxCell>
        <mxCell id="pWE6F50j8uLxKZcUZwO4-173" value="" style="rounded=0;whiteSpace=wrap;html=1;" parent="pWE6F50j8uLxKZcUZwO4-1" vertex="1">
          <mxGeometry x="693" y="220" width="20" height="20" as="geometry" />
        </mxCell>
        <mxCell id="pWE6F50j8uLxKZcUZwO4-188" value="Add new" style="text;html=1;align=center;verticalAlign=middle;whiteSpace=wrap;rounded=0;" parent="pWE6F50j8uLxKZcUZwO4-1" vertex="1">
          <mxGeometry y="530" width="120" height="30" as="geometry" />
        </mxCell>
        <mxCell id="pWE6F50j8uLxKZcUZwO4-189" value="Add new Achievement" style="text;html=1;align=center;verticalAlign=middle;whiteSpace=wrap;rounded=0;" parent="pWE6F50j8uLxKZcUZwO4-1" vertex="1">
          <mxGeometry x="690" y="530" width="140" height="30" as="geometry" />
        </mxCell>
        <mxCell id="pWE6F50j8uLxKZcUZwO4-174" value="" style="rounded=0;whiteSpace=wrap;html=1;fillColor=#d5e8d4;strokeColor=#82b366;" parent="pWE6F50j8uLxKZcUZwO4-1" vertex="1">
          <mxGeometry x="130" y="260" width="680" height="60" as="geometry" />
        </mxCell>
        <mxCell id="pWE6F50j8uLxKZcUZwO4-175" value="Name" style="text;html=1;align=center;verticalAlign=middle;whiteSpace=wrap;rounded=0;" parent="pWE6F50j8uLxKZcUZwO4-1" vertex="1">
          <mxGeometry x="143" y="275" width="60" height="30" as="geometry" />
        </mxCell>
        <mxCell id="pWE6F50j8uLxKZcUZwO4-176" value="Picture" style="rounded=0;whiteSpace=wrap;html=1;" parent="pWE6F50j8uLxKZcUZwO4-1" vertex="1">
          <mxGeometry x="750" y="265" width="53" height="50" as="geometry" />
        </mxCell>
        <mxCell id="pWE6F50j8uLxKZcUZwO4-177" value="Type" style="text;html=1;align=center;verticalAlign=middle;whiteSpace=wrap;rounded=0;" parent="pWE6F50j8uLxKZcUZwO4-1" vertex="1">
          <mxGeometry x="223" y="260" width="60" height="30" as="geometry" />
        </mxCell>
        <mxCell id="pWE6F50j8uLxKZcUZwO4-178" value="Daily" style="text;html=1;align=center;verticalAlign=middle;whiteSpace=wrap;rounded=0;" parent="pWE6F50j8uLxKZcUZwO4-1" vertex="1">
          <mxGeometry x="223" y="290" width="60" height="30" as="geometry" />
        </mxCell>
        <mxCell id="pWE6F50j8uLxKZcUZwO4-179" value="" style="endArrow=none;html=1;rounded=0;" parent="pWE6F50j8uLxKZcUZwO4-1" edge="1">
          <mxGeometry width="50" height="50" relative="1" as="geometry">
            <mxPoint x="213" y="320" as="sourcePoint" />
            <mxPoint x="213" y="260" as="targetPoint" />
          </mxGeometry>
        </mxCell>
        <mxCell id="pWE6F50j8uLxKZcUZwO4-180" value="" style="endArrow=none;html=1;rounded=0;" parent="pWE6F50j8uLxKZcUZwO4-1" edge="1">
          <mxGeometry width="50" height="50" relative="1" as="geometry">
            <mxPoint x="213" y="288.95000000000005" as="sourcePoint" />
            <mxPoint x="293" y="288.95000000000005" as="targetPoint" />
          </mxGeometry>
        </mxCell>
        <mxCell id="pWE6F50j8uLxKZcUZwO4-181" value="" style="endArrow=none;html=1;rounded=0;" parent="pWE6F50j8uLxKZcUZwO4-1" edge="1">
          <mxGeometry width="50" height="50" relative="1" as="geometry">
            <mxPoint x="293" y="320" as="sourcePoint" />
            <mxPoint x="293" y="260" as="targetPoint" />
          </mxGeometry>
        </mxCell>
        <mxCell id="pWE6F50j8uLxKZcUZwO4-182" value="Info" style="text;html=1;align=center;verticalAlign=middle;whiteSpace=wrap;rounded=0;" parent="pWE6F50j8uLxKZcUZwO4-1" vertex="1">
          <mxGeometry x="313" y="275" width="60" height="30" as="geometry" />
        </mxCell>
        <mxCell id="pWE6F50j8uLxKZcUZwO4-183" value="DATE" style="text;html=1;align=center;verticalAlign=middle;whiteSpace=wrap;rounded=0;" parent="pWE6F50j8uLxKZcUZwO4-1" vertex="1">
          <mxGeometry x="673" y="260" width="60" height="30" as="geometry" />
        </mxCell>
        <mxCell id="pWE6F50j8uLxKZcUZwO4-184" value="" style="endArrow=none;html=1;rounded=0;" parent="pWE6F50j8uLxKZcUZwO4-1" edge="1">
          <mxGeometry width="50" height="50" relative="1" as="geometry">
            <mxPoint x="663" y="320" as="sourcePoint" />
            <mxPoint x="663" y="260" as="targetPoint" />
          </mxGeometry>
        </mxCell>
        <mxCell id="pWE6F50j8uLxKZcUZwO4-185" value="" style="endArrow=none;html=1;rounded=0;" parent="pWE6F50j8uLxKZcUZwO4-1" edge="1">
          <mxGeometry width="50" height="50" relative="1" as="geometry">
            <mxPoint x="663" y="288.95000000000005" as="sourcePoint" />
            <mxPoint x="743" y="288.95000000000005" as="targetPoint" />
          </mxGeometry>
        </mxCell>
        <mxCell id="pWE6F50j8uLxKZcUZwO4-186" value="" style="endArrow=none;html=1;rounded=0;" parent="pWE6F50j8uLxKZcUZwO4-1" edge="1">
          <mxGeometry width="50" height="50" relative="1" as="geometry">
            <mxPoint x="743" y="320" as="sourcePoint" />
            <mxPoint x="743" y="260" as="targetPoint" />
          </mxGeometry>
        </mxCell>
        <mxCell id="pWE6F50j8uLxKZcUZwO4-187" value="" style="rounded=0;whiteSpace=wrap;html=1;" parent="pWE6F50j8uLxKZcUZwO4-1" vertex="1">
          <mxGeometry x="693" y="295" width="20" height="20" as="geometry" />
        </mxCell>
        <mxCell id="pWE6F50j8uLxKZcUZwO4-218" value="" style="rounded=0;whiteSpace=wrap;html=1;fillColor=#d5e8d4;strokeColor=#82b366;" parent="pWE6F50j8uLxKZcUZwO4-1" vertex="1">
          <mxGeometry x="130" y="330" width="680" height="60" as="geometry" />
        </mxCell>
        <mxCell id="pWE6F50j8uLxKZcUZwO4-219" value="Name" style="text;html=1;align=center;verticalAlign=middle;whiteSpace=wrap;rounded=0;" parent="pWE6F50j8uLxKZcUZwO4-1" vertex="1">
          <mxGeometry x="143" y="345" width="60" height="30" as="geometry" />
        </mxCell>
        <mxCell id="pWE6F50j8uLxKZcUZwO4-220" value="Picture" style="rounded=0;whiteSpace=wrap;html=1;" parent="pWE6F50j8uLxKZcUZwO4-1" vertex="1">
          <mxGeometry x="750" y="335" width="53" height="50" as="geometry" />
        </mxCell>
        <mxCell id="pWE6F50j8uLxKZcUZwO4-221" value="Type" style="text;html=1;align=center;verticalAlign=middle;whiteSpace=wrap;rounded=0;" parent="pWE6F50j8uLxKZcUZwO4-1" vertex="1">
          <mxGeometry x="223" y="330" width="60" height="30" as="geometry" />
        </mxCell>
        <mxCell id="pWE6F50j8uLxKZcUZwO4-222" value="Amount" style="text;html=1;align=center;verticalAlign=middle;whiteSpace=wrap;rounded=0;" parent="pWE6F50j8uLxKZcUZwO4-1" vertex="1">
          <mxGeometry x="223" y="360" width="60" height="30" as="geometry" />
        </mxCell>
        <mxCell id="pWE6F50j8uLxKZcUZwO4-223" value="" style="endArrow=none;html=1;rounded=0;" parent="pWE6F50j8uLxKZcUZwO4-1" edge="1">
          <mxGeometry width="50" height="50" relative="1" as="geometry">
            <mxPoint x="213" y="390" as="sourcePoint" />
            <mxPoint x="213" y="330" as="targetPoint" />
          </mxGeometry>
        </mxCell>
        <mxCell id="pWE6F50j8uLxKZcUZwO4-224" value="" style="endArrow=none;html=1;rounded=0;" parent="pWE6F50j8uLxKZcUZwO4-1" edge="1">
          <mxGeometry width="50" height="50" relative="1" as="geometry">
            <mxPoint x="213" y="358.95000000000005" as="sourcePoint" />
            <mxPoint x="293" y="358.95000000000005" as="targetPoint" />
          </mxGeometry>
        </mxCell>
        <mxCell id="pWE6F50j8uLxKZcUZwO4-225" value="" style="endArrow=none;html=1;rounded=0;" parent="pWE6F50j8uLxKZcUZwO4-1" edge="1">
          <mxGeometry width="50" height="50" relative="1" as="geometry">
            <mxPoint x="293" y="390" as="sourcePoint" />
            <mxPoint x="293" y="330" as="targetPoint" />
          </mxGeometry>
        </mxCell>
        <mxCell id="pWE6F50j8uLxKZcUZwO4-226" value="Info" style="text;html=1;align=center;verticalAlign=middle;whiteSpace=wrap;rounded=0;" parent="pWE6F50j8uLxKZcUZwO4-1" vertex="1">
          <mxGeometry x="313" y="345" width="60" height="30" as="geometry" />
        </mxCell>
        <mxCell id="pWE6F50j8uLxKZcUZwO4-227" value="UNIT" style="text;html=1;align=center;verticalAlign=middle;whiteSpace=wrap;rounded=0;" parent="pWE6F50j8uLxKZcUZwO4-1" vertex="1">
          <mxGeometry x="673" y="330" width="60" height="30" as="geometry" />
        </mxCell>
        <mxCell id="pWE6F50j8uLxKZcUZwO4-228" value="" style="endArrow=none;html=1;rounded=0;" parent="pWE6F50j8uLxKZcUZwO4-1" edge="1">
          <mxGeometry width="50" height="50" relative="1" as="geometry">
            <mxPoint x="663" y="390" as="sourcePoint" />
            <mxPoint x="663" y="330" as="targetPoint" />
          </mxGeometry>
        </mxCell>
        <mxCell id="pWE6F50j8uLxKZcUZwO4-229" value="" style="endArrow=none;html=1;rounded=0;" parent="pWE6F50j8uLxKZcUZwO4-1" edge="1">
          <mxGeometry width="50" height="50" relative="1" as="geometry">
            <mxPoint x="663" y="358.95000000000005" as="sourcePoint" />
            <mxPoint x="743" y="358.95000000000005" as="targetPoint" />
          </mxGeometry>
        </mxCell>
        <mxCell id="pWE6F50j8uLxKZcUZwO4-230" value="" style="endArrow=none;html=1;rounded=0;" parent="pWE6F50j8uLxKZcUZwO4-1" edge="1">
          <mxGeometry width="50" height="50" relative="1" as="geometry">
            <mxPoint x="743" y="390" as="sourcePoint" />
            <mxPoint x="743" y="330" as="targetPoint" />
          </mxGeometry>
        </mxCell>
        <mxCell id="pWE6F50j8uLxKZcUZwO4-232" value="amount" style="text;html=1;align=center;verticalAlign=middle;whiteSpace=wrap;rounded=0;" parent="pWE6F50j8uLxKZcUZwO4-1" vertex="1">
          <mxGeometry x="673" y="360" width="60" height="30" as="geometry" />
        </mxCell>
        <mxCell id="pWE6F50j8uLxKZcUZwO4-7" value="" style="swimlane;startSize=0;" parent="1" vertex="1">
          <mxGeometry x="1000" y="120" width="830" height="560" as="geometry" />
        </mxCell>
        <mxCell id="pWE6F50j8uLxKZcUZwO4-8" value="" style="rounded=0;whiteSpace=wrap;html=1;" parent="pWE6F50j8uLxKZcUZwO4-7" vertex="1">
          <mxGeometry width="830" height="80" as="geometry" />
        </mxCell>
        <mxCell id="pWE6F50j8uLxKZcUZwO4-9" value="Library" style="text;html=1;align=center;verticalAlign=middle;whiteSpace=wrap;rounded=0;labelBackgroundColor=none;" parent="pWE6F50j8uLxKZcUZwO4-7" vertex="1">
          <mxGeometry x="10" y="25" width="60" height="30" as="geometry" />
        </mxCell>
        <mxCell id="pWE6F50j8uLxKZcUZwO4-10" value="Market" style="text;html=1;align=center;verticalAlign=middle;whiteSpace=wrap;rounded=0;fillColor=#f8cecc;strokeColor=#b85450;" parent="pWE6F50j8uLxKZcUZwO4-7" vertex="1">
          <mxGeometry x="100" y="25" width="60" height="30" as="geometry" />
        </mxCell>
        <mxCell id="pWE6F50j8uLxKZcUZwO4-11" value="Profile" style="text;html=1;align=center;verticalAlign=middle;whiteSpace=wrap;rounded=0;" parent="pWE6F50j8uLxKZcUZwO4-7" vertex="1">
          <mxGeometry x="190" y="25" width="60" height="30" as="geometry" />
        </mxCell>
        <mxCell id="pWE6F50j8uLxKZcUZwO4-12" value="Settings" style="text;html=1;align=center;verticalAlign=middle;whiteSpace=wrap;rounded=0;" parent="pWE6F50j8uLxKZcUZwO4-7" vertex="1">
          <mxGeometry x="280" y="25" width="60" height="30" as="geometry" />
        </mxCell>
        <mxCell id="pWE6F50j8uLxKZcUZwO4-33" value="" style="rounded=0;whiteSpace=wrap;html=1;fillColor=#f5f5f5;fontColor=#333333;strokeColor=#666666;" parent="pWE6F50j8uLxKZcUZwO4-7" vertex="1">
          <mxGeometry y="80" width="830" height="480" as="geometry" />
        </mxCell>
        <mxCell id="pWE6F50j8uLxKZcUZwO4-45" value="Categories" style="rounded=0;whiteSpace=wrap;html=1;fillColor=#C4B19D;strokeColor=#666666;fontColor=#333333;" parent="pWE6F50j8uLxKZcUZwO4-7" vertex="1">
          <mxGeometry y="80" width="830" height="50" as="geometry" />
        </mxCell>
        <mxCell id="pWE6F50j8uLxKZcUZwO4-43" value="Search" style="text;html=1;align=center;verticalAlign=middle;whiteSpace=wrap;rounded=0;strokeColor=default;" parent="pWE6F50j8uLxKZcUZwO4-7" vertex="1">
          <mxGeometry x="720" y="90" width="60" height="30" as="geometry" />
        </mxCell>
        <mxCell id="pWE6F50j8uLxKZcUZwO4-44" value="Filter" style="text;html=1;align=center;verticalAlign=middle;whiteSpace=wrap;rounded=0;strokeColor=default;" parent="pWE6F50j8uLxKZcUZwO4-7" vertex="1">
          <mxGeometry x="610" y="90" width="60" height="30" as="geometry" />
        </mxCell>
        <mxCell id="pWE6F50j8uLxKZcUZwO4-46" value="Activity 1: Name, short info rating, downloads" style="rounded=1;whiteSpace=wrap;html=1;" parent="pWE6F50j8uLxKZcUZwO4-7" vertex="1">
          <mxGeometry y="130" width="810" height="90" as="geometry" />
        </mxCell>
        <mxCell id="pWE6F50j8uLxKZcUZwO4-47" value="Activity 2: Name, short info rating, downloads" style="rounded=1;whiteSpace=wrap;html=1;" parent="pWE6F50j8uLxKZcUZwO4-7" vertex="1">
          <mxGeometry y="220" width="810" height="90" as="geometry" />
        </mxCell>
        <mxCell id="pWE6F50j8uLxKZcUZwO4-48" value="Activity 3: Name, short info rating, downloads" style="rounded=1;whiteSpace=wrap;html=1;" parent="pWE6F50j8uLxKZcUZwO4-7" vertex="1">
          <mxGeometry y="310" width="810" height="90" as="geometry" />
        </mxCell>
        <mxCell id="pWE6F50j8uLxKZcUZwO4-50" value="" style="rounded=0;whiteSpace=wrap;html=1;strokeColor=none;fillColor=#787878;" parent="pWE6F50j8uLxKZcUZwO4-7" vertex="1">
          <mxGeometry x="810" y="130" width="20" height="430" as="geometry" />
        </mxCell>
        <mxCell id="pWE6F50j8uLxKZcUZwO4-20" value="" style="swimlane;startSize=0;" parent="1" vertex="1">
          <mxGeometry x="2000" y="120" width="830" height="560" as="geometry" />
        </mxCell>
        <mxCell id="pWE6F50j8uLxKZcUZwO4-21" value="" style="rounded=0;whiteSpace=wrap;html=1;" parent="pWE6F50j8uLxKZcUZwO4-20" vertex="1">
          <mxGeometry width="830" height="80" as="geometry" />
        </mxCell>
        <mxCell id="pWE6F50j8uLxKZcUZwO4-22" value="Library" style="text;html=1;align=center;verticalAlign=middle;whiteSpace=wrap;rounded=0;labelBackgroundColor=none;" parent="pWE6F50j8uLxKZcUZwO4-20" vertex="1">
          <mxGeometry x="10" y="25" width="60" height="30" as="geometry" />
        </mxCell>
        <mxCell id="pWE6F50j8uLxKZcUZwO4-23" value="Market" style="text;html=1;align=center;verticalAlign=middle;whiteSpace=wrap;rounded=0;" parent="pWE6F50j8uLxKZcUZwO4-20" vertex="1">
          <mxGeometry x="100" y="25" width="60" height="30" as="geometry" />
        </mxCell>
        <mxCell id="pWE6F50j8uLxKZcUZwO4-24" value="Profile" style="text;html=1;align=center;verticalAlign=middle;whiteSpace=wrap;rounded=0;fillColor=#f8cecc;strokeColor=#b85450;" parent="pWE6F50j8uLxKZcUZwO4-20" vertex="1">
          <mxGeometry x="190" y="25" width="60" height="30" as="geometry" />
        </mxCell>
        <mxCell id="pWE6F50j8uLxKZcUZwO4-25" value="Settings" style="text;html=1;align=center;verticalAlign=middle;whiteSpace=wrap;rounded=0;" parent="pWE6F50j8uLxKZcUZwO4-20" vertex="1">
          <mxGeometry x="280" y="25" width="60" height="30" as="geometry" />
        </mxCell>
        <mxCell id="pWE6F50j8uLxKZcUZwO4-41" value="" style="rounded=0;whiteSpace=wrap;html=1;fillColor=#f5f5f5;fontColor=#333333;strokeColor=#666666;" parent="pWE6F50j8uLxKZcUZwO4-20" vertex="1">
          <mxGeometry y="80" width="830" height="480" as="geometry" />
        </mxCell>
        <mxCell id="pWE6F50j8uLxKZcUZwO4-53" value="Picture" style="rounded=0;whiteSpace=wrap;html=1;" parent="pWE6F50j8uLxKZcUZwO4-20" vertex="1">
          <mxGeometry x="23" y="180" width="90" height="80" as="geometry" />
        </mxCell>
        <mxCell id="pWE6F50j8uLxKZcUZwO4-54" value="Info" style="rounded=0;whiteSpace=wrap;html=1;" parent="pWE6F50j8uLxKZcUZwO4-20" vertex="1">
          <mxGeometry x="150" y="180" width="120" height="80" as="geometry" />
        </mxCell>
        <mxCell id="pWE6F50j8uLxKZcUZwO4-55" value="" style="rounded=0;whiteSpace=wrap;html=1;fillColor=#C4B19D;strokeColor=#666666;fontColor=#333333;" parent="pWE6F50j8uLxKZcUZwO4-20" vertex="1">
          <mxGeometry y="80" width="830" height="50" as="geometry" />
        </mxCell>
        <mxCell id="pWE6F50j8uLxKZcUZwO4-57" value="Profile" style="text;html=1;align=center;verticalAlign=middle;whiteSpace=wrap;rounded=0;strokeColor=#b85450;fillColor=#f8cecc;" parent="pWE6F50j8uLxKZcUZwO4-20" vertex="1">
          <mxGeometry x="23" y="90" width="60" height="30" as="geometry" />
        </mxCell>
        <mxCell id="pWE6F50j8uLxKZcUZwO4-58" value="Statistics" style="text;html=1;align=center;verticalAlign=middle;whiteSpace=wrap;rounded=0;strokeColor=default;" parent="pWE6F50j8uLxKZcUZwO4-20" vertex="1">
          <mxGeometry x="110" y="90" width="60" height="30" as="geometry" />
        </mxCell>
        <mxCell id="pWE6F50j8uLxKZcUZwO4-59" value="Calendar" style="text;html=1;align=center;verticalAlign=middle;whiteSpace=wrap;rounded=0;strokeColor=default;" parent="pWE6F50j8uLxKZcUZwO4-20" vertex="1">
          <mxGeometry x="200" y="90" width="60" height="30" as="geometry" />
        </mxCell>
        <mxCell id="pWE6F50j8uLxKZcUZwO4-60" value="Your Activities" style="text;html=1;align=center;verticalAlign=middle;whiteSpace=wrap;rounded=0;strokeColor=default;" parent="pWE6F50j8uLxKZcUZwO4-20" vertex="1">
          <mxGeometry x="290" y="90" width="60" height="30" as="geometry" />
        </mxCell>
        <mxCell id="pWE6F50j8uLxKZcUZwO4-26" value="" style="swimlane;startSize=0;" parent="1" vertex="1">
          <mxGeometry x="3000" y="120" width="830" height="560" as="geometry" />
        </mxCell>
        <mxCell id="pWE6F50j8uLxKZcUZwO4-27" value="" style="rounded=0;whiteSpace=wrap;html=1;" parent="pWE6F50j8uLxKZcUZwO4-26" vertex="1">
          <mxGeometry width="830" height="80" as="geometry" />
        </mxCell>
        <mxCell id="pWE6F50j8uLxKZcUZwO4-28" value="Library" style="text;html=1;align=center;verticalAlign=middle;whiteSpace=wrap;rounded=0;labelBackgroundColor=none;" parent="pWE6F50j8uLxKZcUZwO4-26" vertex="1">
          <mxGeometry x="10" y="25" width="60" height="30" as="geometry" />
        </mxCell>
        <mxCell id="pWE6F50j8uLxKZcUZwO4-29" value="Market" style="text;html=1;align=center;verticalAlign=middle;whiteSpace=wrap;rounded=0;" parent="pWE6F50j8uLxKZcUZwO4-26" vertex="1">
          <mxGeometry x="100" y="25" width="60" height="30" as="geometry" />
        </mxCell>
        <mxCell id="pWE6F50j8uLxKZcUZwO4-30" value="Profile" style="text;html=1;align=center;verticalAlign=middle;whiteSpace=wrap;rounded=0;" parent="pWE6F50j8uLxKZcUZwO4-26" vertex="1">
          <mxGeometry x="190" y="25" width="60" height="30" as="geometry" />
        </mxCell>
        <mxCell id="pWE6F50j8uLxKZcUZwO4-31" value="Settings" style="text;html=1;align=center;verticalAlign=middle;whiteSpace=wrap;rounded=0;fillColor=#f8cecc;strokeColor=#b85450;" parent="pWE6F50j8uLxKZcUZwO4-26" vertex="1">
          <mxGeometry x="280" y="25" width="60" height="30" as="geometry" />
        </mxCell>
        <mxCell id="pWE6F50j8uLxKZcUZwO4-42" value="" style="rounded=0;whiteSpace=wrap;html=1;fillColor=#f5f5f5;fontColor=#333333;strokeColor=#666666;" parent="pWE6F50j8uLxKZcUZwO4-26" vertex="1">
          <mxGeometry y="80" width="830" height="480" as="geometry" />
        </mxCell>
        <mxCell id="pWE6F50j8uLxKZcUZwO4-132" value="" style="rounded=0;whiteSpace=wrap;html=1;fillColor=#C4B19D;strokeColor=#666666;fontColor=#333333;" parent="pWE6F50j8uLxKZcUZwO4-26" vertex="1">
          <mxGeometry y="80" width="830" height="50" as="geometry" />
        </mxCell>
        <mxCell id="pWE6F50j8uLxKZcUZwO4-133" value="Profile" style="text;html=1;align=center;verticalAlign=middle;whiteSpace=wrap;rounded=0;strokeColor=#b85450;fillColor=#f8cecc;" parent="pWE6F50j8uLxKZcUZwO4-26" vertex="1">
          <mxGeometry x="20" y="90" width="60" height="30" as="geometry" />
        </mxCell>
        <mxCell id="pWE6F50j8uLxKZcUZwO4-134" value="Interface" style="text;html=1;align=center;verticalAlign=middle;whiteSpace=wrap;rounded=0;strokeColor=default;" parent="pWE6F50j8uLxKZcUZwO4-26" vertex="1">
          <mxGeometry x="110" y="90" width="60" height="30" as="geometry" />
        </mxCell>
        <mxCell id="pWE6F50j8uLxKZcUZwO4-145" value="Update user info" style="text;html=1;align=center;verticalAlign=middle;whiteSpace=wrap;rounded=0;" parent="pWE6F50j8uLxKZcUZwO4-26" vertex="1">
          <mxGeometry y="130" width="320" height="30" as="geometry" />
        </mxCell>
        <mxCell id="pWE6F50j8uLxKZcUZwO4-146" value="Delete account" style="text;html=1;align=center;verticalAlign=middle;whiteSpace=wrap;rounded=0;" parent="pWE6F50j8uLxKZcUZwO4-26" vertex="1">
          <mxGeometry y="160" width="320" height="30" as="geometry" />
        </mxCell>
        <mxCell id="pWE6F50j8uLxKZcUZwO4-147" value="Log out" style="text;html=1;align=center;verticalAlign=middle;whiteSpace=wrap;rounded=0;" parent="pWE6F50j8uLxKZcUZwO4-26" vertex="1">
          <mxGeometry y="220" width="320" height="30" as="geometry" />
        </mxCell>
        <mxCell id="pWE6F50j8uLxKZcUZwO4-148" value="Change password" style="text;html=1;align=center;verticalAlign=middle;whiteSpace=wrap;rounded=0;" parent="pWE6F50j8uLxKZcUZwO4-26" vertex="1">
          <mxGeometry y="190" width="320" height="30" as="geometry" />
        </mxCell>
        <mxCell id="pWE6F50j8uLxKZcUZwO4-52" value="" style="rounded=0;whiteSpace=wrap;html=1;fillColor=#D1D1D1;" parent="1" vertex="1">
          <mxGeometry x="1810" y="260" width="20" height="60" as="geometry" />
        </mxCell>
        <mxCell id="pWE6F50j8uLxKZcUZwO4-61" value="" style="swimlane;startSize=0;" parent="1" vertex="1">
          <mxGeometry x="2000" y="800" width="830" height="560" as="geometry" />
        </mxCell>
        <mxCell id="pWE6F50j8uLxKZcUZwO4-62" value="" style="rounded=0;whiteSpace=wrap;html=1;" parent="pWE6F50j8uLxKZcUZwO4-61" vertex="1">
          <mxGeometry width="830" height="80" as="geometry" />
        </mxCell>
        <mxCell id="pWE6F50j8uLxKZcUZwO4-63" value="Library" style="text;html=1;align=center;verticalAlign=middle;whiteSpace=wrap;rounded=0;labelBackgroundColor=none;" parent="pWE6F50j8uLxKZcUZwO4-61" vertex="1">
          <mxGeometry x="10" y="25" width="60" height="30" as="geometry" />
        </mxCell>
        <mxCell id="pWE6F50j8uLxKZcUZwO4-64" value="Market" style="text;html=1;align=center;verticalAlign=middle;whiteSpace=wrap;rounded=0;" parent="pWE6F50j8uLxKZcUZwO4-61" vertex="1">
          <mxGeometry x="100" y="25" width="60" height="30" as="geometry" />
        </mxCell>
        <mxCell id="pWE6F50j8uLxKZcUZwO4-65" value="Profile" style="text;html=1;align=center;verticalAlign=middle;whiteSpace=wrap;rounded=0;fillColor=#f8cecc;strokeColor=#b85450;" parent="pWE6F50j8uLxKZcUZwO4-61" vertex="1">
          <mxGeometry x="190" y="25" width="60" height="30" as="geometry" />
        </mxCell>
        <mxCell id="pWE6F50j8uLxKZcUZwO4-66" value="Settings" style="text;html=1;align=center;verticalAlign=middle;whiteSpace=wrap;rounded=0;" parent="pWE6F50j8uLxKZcUZwO4-61" vertex="1">
          <mxGeometry x="280" y="25" width="60" height="30" as="geometry" />
        </mxCell>
        <mxCell id="pWE6F50j8uLxKZcUZwO4-67" value="" style="rounded=0;whiteSpace=wrap;html=1;fillColor=#f5f5f5;fontColor=#333333;strokeColor=#666666;" parent="pWE6F50j8uLxKZcUZwO4-61" vertex="1">
          <mxGeometry y="80" width="830" height="480" as="geometry" />
        </mxCell>
        <mxCell id="pWE6F50j8uLxKZcUZwO4-70" value="" style="rounded=0;whiteSpace=wrap;html=1;fillColor=#C4B19D;strokeColor=#666666;fontColor=#333333;" parent="pWE6F50j8uLxKZcUZwO4-61" vertex="1">
          <mxGeometry y="80" width="830" height="50" as="geometry" />
        </mxCell>
        <mxCell id="pWE6F50j8uLxKZcUZwO4-71" value="Profile" style="text;html=1;align=center;verticalAlign=middle;whiteSpace=wrap;rounded=0;strokeColor=default;" parent="pWE6F50j8uLxKZcUZwO4-61" vertex="1">
          <mxGeometry x="23" y="90" width="60" height="30" as="geometry" />
        </mxCell>
        <mxCell id="pWE6F50j8uLxKZcUZwO4-72" value="Statistics" style="text;html=1;align=center;verticalAlign=middle;whiteSpace=wrap;rounded=0;strokeColor=#b85450;fillColor=#f8cecc;" parent="pWE6F50j8uLxKZcUZwO4-61" vertex="1">
          <mxGeometry x="110" y="90" width="60" height="30" as="geometry" />
        </mxCell>
        <mxCell id="pWE6F50j8uLxKZcUZwO4-73" value="Calendar" style="text;html=1;align=center;verticalAlign=middle;whiteSpace=wrap;rounded=0;strokeColor=default;" parent="pWE6F50j8uLxKZcUZwO4-61" vertex="1">
          <mxGeometry x="200" y="90" width="60" height="30" as="geometry" />
        </mxCell>
        <mxCell id="pWE6F50j8uLxKZcUZwO4-74" value="Your Activities" style="text;html=1;align=center;verticalAlign=middle;whiteSpace=wrap;rounded=0;strokeColor=default;" parent="pWE6F50j8uLxKZcUZwO4-61" vertex="1">
          <mxGeometry x="290" y="90" width="60" height="30" as="geometry" />
        </mxCell>
        <mxCell id="pWE6F50j8uLxKZcUZwO4-103" value="" style="rounded=0;whiteSpace=wrap;html=1;" parent="pWE6F50j8uLxKZcUZwO4-61" vertex="1">
          <mxGeometry y="130" width="120" height="430" as="geometry" />
        </mxCell>
        <mxCell id="pWE6F50j8uLxKZcUZwO4-104" value="Options" style="text;html=1;align=center;verticalAlign=middle;whiteSpace=wrap;rounded=0;" parent="pWE6F50j8uLxKZcUZwO4-61" vertex="1">
          <mxGeometry y="130" width="120" height="30" as="geometry" />
        </mxCell>
        <mxCell id="pWE6F50j8uLxKZcUZwO4-105" value="Filters" style="text;html=1;align=center;verticalAlign=middle;whiteSpace=wrap;rounded=0;" parent="pWE6F50j8uLxKZcUZwO4-61" vertex="1">
          <mxGeometry y="160" width="120" height="30" as="geometry" />
        </mxCell>
        <mxCell id="pWE6F50j8uLxKZcUZwO4-106" value="" style="verticalLabelPosition=bottom;verticalAlign=top;html=1;shape=mxgraph.basic.patternFillRect;fillStyle=diagGrid;step=5;fillStrokeWidth=0.2;fillStrokeColor=#dddddd;fillColor=#dae8fc;strokeColor=#6c8ebf;" parent="pWE6F50j8uLxKZcUZwO4-61" vertex="1">
          <mxGeometry x="250" y="230" width="60" height="250" as="geometry" />
        </mxCell>
        <mxCell id="pWE6F50j8uLxKZcUZwO4-108" value="" style="verticalLabelPosition=bottom;verticalAlign=top;html=1;shape=mxgraph.basic.patternFillRect;fillStyle=diagGrid;step=5;fillStrokeWidth=0.2;fillStrokeColor=#dddddd;fillColor=#dae8fc;strokeColor=#6c8ebf;" parent="pWE6F50j8uLxKZcUZwO4-61" vertex="1">
          <mxGeometry x="390" y="300" width="60" height="180" as="geometry" />
        </mxCell>
        <mxCell id="pWE6F50j8uLxKZcUZwO4-107" value="" style="verticalLabelPosition=bottom;verticalAlign=top;html=1;shape=mxgraph.basic.patternFillRect;fillStyle=diagGrid;step=5;fillStrokeWidth=0.2;fillStrokeColor=#dddddd;fillColor=#dae8fc;strokeColor=#6c8ebf;" parent="pWE6F50j8uLxKZcUZwO4-61" vertex="1">
          <mxGeometry x="320" y="350" width="60" height="130" as="geometry" />
        </mxCell>
        <mxCell id="pWE6F50j8uLxKZcUZwO4-110" value="" style="endArrow=none;html=1;rounded=0;" parent="pWE6F50j8uLxKZcUZwO4-61" edge="1">
          <mxGeometry width="50" height="50" relative="1" as="geometry">
            <mxPoint x="500" y="490" as="sourcePoint" />
            <mxPoint x="220" y="490" as="targetPoint" />
          </mxGeometry>
        </mxCell>
        <mxCell id="pWE6F50j8uLxKZcUZwO4-111" value="" style="endArrow=none;html=1;rounded=0;" parent="pWE6F50j8uLxKZcUZwO4-61" edge="1">
          <mxGeometry width="50" height="50" relative="1" as="geometry">
            <mxPoint x="219.47000000000025" y="160" as="sourcePoint" />
            <mxPoint x="219.47000000000025" y="490" as="targetPoint" />
          </mxGeometry>
        </mxCell>
        <mxCell id="pWE6F50j8uLxKZcUZwO4-75" value="" style="swimlane;startSize=0;" parent="1" vertex="1">
          <mxGeometry x="2000" y="1480" width="830" height="560" as="geometry" />
        </mxCell>
        <mxCell id="pWE6F50j8uLxKZcUZwO4-76" value="" style="rounded=0;whiteSpace=wrap;html=1;" parent="pWE6F50j8uLxKZcUZwO4-75" vertex="1">
          <mxGeometry width="830" height="80" as="geometry" />
        </mxCell>
        <mxCell id="pWE6F50j8uLxKZcUZwO4-77" value="Library" style="text;html=1;align=center;verticalAlign=middle;whiteSpace=wrap;rounded=0;labelBackgroundColor=none;" parent="pWE6F50j8uLxKZcUZwO4-75" vertex="1">
          <mxGeometry x="10" y="25" width="60" height="30" as="geometry" />
        </mxCell>
        <mxCell id="pWE6F50j8uLxKZcUZwO4-78" value="Market" style="text;html=1;align=center;verticalAlign=middle;whiteSpace=wrap;rounded=0;" parent="pWE6F50j8uLxKZcUZwO4-75" vertex="1">
          <mxGeometry x="100" y="25" width="60" height="30" as="geometry" />
        </mxCell>
        <mxCell id="pWE6F50j8uLxKZcUZwO4-79" value="Profile" style="text;html=1;align=center;verticalAlign=middle;whiteSpace=wrap;rounded=0;fillColor=#f8cecc;strokeColor=#b85450;" parent="pWE6F50j8uLxKZcUZwO4-75" vertex="1">
          <mxGeometry x="190" y="25" width="60" height="30" as="geometry" />
        </mxCell>
        <mxCell id="pWE6F50j8uLxKZcUZwO4-80" value="Settings" style="text;html=1;align=center;verticalAlign=middle;whiteSpace=wrap;rounded=0;" parent="pWE6F50j8uLxKZcUZwO4-75" vertex="1">
          <mxGeometry x="280" y="25" width="60" height="30" as="geometry" />
        </mxCell>
        <mxCell id="pWE6F50j8uLxKZcUZwO4-81" value="" style="rounded=0;whiteSpace=wrap;html=1;fillColor=#f5f5f5;fontColor=#333333;strokeColor=#666666;" parent="pWE6F50j8uLxKZcUZwO4-75" vertex="1">
          <mxGeometry y="80" width="830" height="480" as="geometry" />
        </mxCell>
        <mxCell id="pWE6F50j8uLxKZcUZwO4-84" value="" style="rounded=0;whiteSpace=wrap;html=1;fillColor=#C4B19D;strokeColor=#666666;fontColor=#333333;" parent="pWE6F50j8uLxKZcUZwO4-75" vertex="1">
          <mxGeometry y="80" width="830" height="50" as="geometry" />
        </mxCell>
        <mxCell id="pWE6F50j8uLxKZcUZwO4-85" value="Profile" style="text;html=1;align=center;verticalAlign=middle;whiteSpace=wrap;rounded=0;strokeColor=default;" parent="pWE6F50j8uLxKZcUZwO4-75" vertex="1">
          <mxGeometry x="23" y="90" width="60" height="30" as="geometry" />
        </mxCell>
        <mxCell id="pWE6F50j8uLxKZcUZwO4-86" value="Statistics" style="text;html=1;align=center;verticalAlign=middle;whiteSpace=wrap;rounded=0;strokeColor=default;" parent="pWE6F50j8uLxKZcUZwO4-75" vertex="1">
          <mxGeometry x="110" y="90" width="60" height="30" as="geometry" />
        </mxCell>
        <mxCell id="pWE6F50j8uLxKZcUZwO4-87" value="Calendar" style="text;html=1;align=center;verticalAlign=middle;whiteSpace=wrap;rounded=0;strokeColor=#b85450;fillColor=#f8cecc;" parent="pWE6F50j8uLxKZcUZwO4-75" vertex="1">
          <mxGeometry x="200" y="90" width="60" height="30" as="geometry" />
        </mxCell>
        <mxCell id="pWE6F50j8uLxKZcUZwO4-88" value="Your Activities" style="text;html=1;align=center;verticalAlign=middle;whiteSpace=wrap;rounded=0;strokeColor=default;" parent="pWE6F50j8uLxKZcUZwO4-75" vertex="1">
          <mxGeometry x="290" y="90" width="60" height="30" as="geometry" />
        </mxCell>
        <mxCell id="pWE6F50j8uLxKZcUZwO4-112" value="" style="rounded=0;whiteSpace=wrap;html=1;" parent="pWE6F50j8uLxKZcUZwO4-75" vertex="1">
          <mxGeometry y="130" width="120" height="430" as="geometry" />
        </mxCell>
        <mxCell id="pWE6F50j8uLxKZcUZwO4-113" value="Options" style="text;html=1;align=center;verticalAlign=middle;whiteSpace=wrap;rounded=0;" parent="pWE6F50j8uLxKZcUZwO4-75" vertex="1">
          <mxGeometry y="130" width="120" height="30" as="geometry" />
        </mxCell>
        <mxCell id="pWE6F50j8uLxKZcUZwO4-114" value="Filters" style="text;html=1;align=center;verticalAlign=middle;whiteSpace=wrap;rounded=0;" parent="pWE6F50j8uLxKZcUZwO4-75" vertex="1">
          <mxGeometry y="160" width="120" height="30" as="geometry" />
        </mxCell>
        <mxCell id="pWE6F50j8uLxKZcUZwO4-115" value="" style="childLayout=tableLayout;recursiveResize=0;shadow=0;fillColor=none;fontColor=none;noLabel=1;" parent="pWE6F50j8uLxKZcUZwO4-75" vertex="1">
          <mxGeometry x="150" y="150" width="650" height="390" as="geometry" />
        </mxCell>
        <mxCell id="pWE6F50j8uLxKZcUZwO4-116" value="" style="shape=tableRow;horizontal=0;startSize=0;swimlaneHead=0;swimlaneBody=0;top=0;left=0;bottom=0;right=0;dropTarget=0;collapsible=0;recursiveResize=0;expand=0;fontStyle=0;fillColor=none;strokeColor=inherit;" parent="pWE6F50j8uLxKZcUZwO4-115" vertex="1">
          <mxGeometry width="650" height="131" as="geometry" />
        </mxCell>
        <mxCell id="pWE6F50j8uLxKZcUZwO4-117" value="Value 1" style="connectable=0;recursiveResize=0;strokeColor=#82b366;fillColor=#d5e8d4;align=center;whiteSpace=wrap;html=1;noLabel=1;" parent="pWE6F50j8uLxKZcUZwO4-116" vertex="1">
          <mxGeometry width="217" height="131" as="geometry">
            <mxRectangle width="217" height="131" as="alternateBounds" />
          </mxGeometry>
        </mxCell>
        <mxCell id="pWE6F50j8uLxKZcUZwO4-118" value="Value 2" style="connectable=0;recursiveResize=0;strokeColor=#82b366;fillColor=#d5e8d4;align=center;whiteSpace=wrap;html=1;noLabel=1;" parent="pWE6F50j8uLxKZcUZwO4-116" vertex="1">
          <mxGeometry x="217" width="216" height="131" as="geometry">
            <mxRectangle width="216" height="131" as="alternateBounds" />
          </mxGeometry>
        </mxCell>
        <mxCell id="pWE6F50j8uLxKZcUZwO4-119" value="Value 3" style="connectable=0;recursiveResize=0;strokeColor=#82b366;fillColor=#d5e8d4;align=center;whiteSpace=wrap;html=1;noLabel=1;" parent="pWE6F50j8uLxKZcUZwO4-116" vertex="1">
          <mxGeometry x="433" width="217" height="131" as="geometry">
            <mxRectangle width="217" height="131" as="alternateBounds" />
          </mxGeometry>
        </mxCell>
        <mxCell id="pWE6F50j8uLxKZcUZwO4-120" style="shape=tableRow;horizontal=0;startSize=0;swimlaneHead=0;swimlaneBody=0;top=0;left=0;bottom=0;right=0;dropTarget=0;collapsible=0;recursiveResize=0;expand=0;fontStyle=0;fillColor=none;strokeColor=inherit;" parent="pWE6F50j8uLxKZcUZwO4-115" vertex="1">
          <mxGeometry y="131" width="650" height="128" as="geometry" />
        </mxCell>
        <mxCell id="pWE6F50j8uLxKZcUZwO4-121" value="Value 4" style="connectable=0;recursiveResize=0;strokeColor=#82b366;fillColor=#d5e8d4;align=center;whiteSpace=wrap;html=1;noLabel=1;" parent="pWE6F50j8uLxKZcUZwO4-120" vertex="1">
          <mxGeometry width="217" height="128" as="geometry">
            <mxRectangle width="217" height="128" as="alternateBounds" />
          </mxGeometry>
        </mxCell>
        <mxCell id="pWE6F50j8uLxKZcUZwO4-122" value="Value 5" style="connectable=0;recursiveResize=0;strokeColor=#82b366;fillColor=#d5e8d4;align=center;whiteSpace=wrap;html=1;noLabel=1;" parent="pWE6F50j8uLxKZcUZwO4-120" vertex="1">
          <mxGeometry x="217" width="216" height="128" as="geometry">
            <mxRectangle width="216" height="128" as="alternateBounds" />
          </mxGeometry>
        </mxCell>
        <mxCell id="pWE6F50j8uLxKZcUZwO4-123" value="Value 6" style="connectable=0;recursiveResize=0;strokeColor=#82b366;fillColor=#d5e8d4;align=center;whiteSpace=wrap;html=1;noLabel=1;" parent="pWE6F50j8uLxKZcUZwO4-120" vertex="1">
          <mxGeometry x="433" width="217" height="128" as="geometry">
            <mxRectangle width="217" height="128" as="alternateBounds" />
          </mxGeometry>
        </mxCell>
        <mxCell id="pWE6F50j8uLxKZcUZwO4-124" style="shape=tableRow;horizontal=0;startSize=0;swimlaneHead=0;swimlaneBody=0;top=0;left=0;bottom=0;right=0;dropTarget=0;collapsible=0;recursiveResize=0;expand=0;fontStyle=0;fillColor=none;strokeColor=inherit;" parent="pWE6F50j8uLxKZcUZwO4-115" vertex="1">
          <mxGeometry y="259" width="650" height="131" as="geometry" />
        </mxCell>
        <mxCell id="pWE6F50j8uLxKZcUZwO4-125" value="Value 7" style="connectable=0;recursiveResize=0;strokeColor=#82b366;fillColor=#d5e8d4;align=center;whiteSpace=wrap;html=1;noLabel=1;" parent="pWE6F50j8uLxKZcUZwO4-124" vertex="1">
          <mxGeometry width="217" height="131" as="geometry">
            <mxRectangle width="217" height="131" as="alternateBounds" />
          </mxGeometry>
        </mxCell>
        <mxCell id="pWE6F50j8uLxKZcUZwO4-126" value="Value 8" style="connectable=0;recursiveResize=0;strokeColor=#82b366;fillColor=#d5e8d4;align=center;whiteSpace=wrap;html=1;noLabel=1;" parent="pWE6F50j8uLxKZcUZwO4-124" vertex="1">
          <mxGeometry x="217" width="216" height="131" as="geometry">
            <mxRectangle width="216" height="131" as="alternateBounds" />
          </mxGeometry>
        </mxCell>
        <mxCell id="pWE6F50j8uLxKZcUZwO4-127" value="Value 9" style="connectable=0;recursiveResize=0;strokeColor=#82b366;fillColor=#d5e8d4;align=center;whiteSpace=wrap;html=1;noLabel=1;" parent="pWE6F50j8uLxKZcUZwO4-124" vertex="1">
          <mxGeometry x="433" width="217" height="131" as="geometry">
            <mxRectangle width="217" height="131" as="alternateBounds" />
          </mxGeometry>
        </mxCell>
        <mxCell id="pWE6F50j8uLxKZcUZwO4-89" value="" style="swimlane;startSize=0;" parent="1" vertex="1">
          <mxGeometry x="2000" y="2160" width="830" height="560" as="geometry" />
        </mxCell>
        <mxCell id="pWE6F50j8uLxKZcUZwO4-90" value="" style="rounded=0;whiteSpace=wrap;html=1;" parent="pWE6F50j8uLxKZcUZwO4-89" vertex="1">
          <mxGeometry width="830" height="80" as="geometry" />
        </mxCell>
        <mxCell id="pWE6F50j8uLxKZcUZwO4-91" value="Library" style="text;html=1;align=center;verticalAlign=middle;whiteSpace=wrap;rounded=0;labelBackgroundColor=none;" parent="pWE6F50j8uLxKZcUZwO4-89" vertex="1">
          <mxGeometry x="10" y="25" width="60" height="30" as="geometry" />
        </mxCell>
        <mxCell id="pWE6F50j8uLxKZcUZwO4-92" value="Market" style="text;html=1;align=center;verticalAlign=middle;whiteSpace=wrap;rounded=0;" parent="pWE6F50j8uLxKZcUZwO4-89" vertex="1">
          <mxGeometry x="100" y="25" width="60" height="30" as="geometry" />
        </mxCell>
        <mxCell id="pWE6F50j8uLxKZcUZwO4-93" value="Profile" style="text;html=1;align=center;verticalAlign=middle;whiteSpace=wrap;rounded=0;fillColor=#f8cecc;strokeColor=#b85450;" parent="pWE6F50j8uLxKZcUZwO4-89" vertex="1">
          <mxGeometry x="190" y="25" width="60" height="30" as="geometry" />
        </mxCell>
        <mxCell id="pWE6F50j8uLxKZcUZwO4-94" value="Settings" style="text;html=1;align=center;verticalAlign=middle;whiteSpace=wrap;rounded=0;" parent="pWE6F50j8uLxKZcUZwO4-89" vertex="1">
          <mxGeometry x="280" y="25" width="60" height="30" as="geometry" />
        </mxCell>
        <mxCell id="pWE6F50j8uLxKZcUZwO4-95" value="" style="rounded=0;whiteSpace=wrap;html=1;fillColor=#f5f5f5;fontColor=#333333;strokeColor=#666666;" parent="pWE6F50j8uLxKZcUZwO4-89" vertex="1">
          <mxGeometry y="80" width="830" height="480" as="geometry" />
        </mxCell>
        <mxCell id="pWE6F50j8uLxKZcUZwO4-98" value="" style="rounded=0;whiteSpace=wrap;html=1;fillColor=#C4B19D;strokeColor=#666666;fontColor=#333333;" parent="pWE6F50j8uLxKZcUZwO4-89" vertex="1">
          <mxGeometry y="80" width="830" height="50" as="geometry" />
        </mxCell>
        <mxCell id="pWE6F50j8uLxKZcUZwO4-99" value="Profile" style="text;html=1;align=center;verticalAlign=middle;whiteSpace=wrap;rounded=0;fillColor=none;strokeColor=default;" parent="pWE6F50j8uLxKZcUZwO4-89" vertex="1">
          <mxGeometry x="23" y="90" width="60" height="30" as="geometry" />
        </mxCell>
        <mxCell id="pWE6F50j8uLxKZcUZwO4-100" value="Statistics" style="text;html=1;align=center;verticalAlign=middle;whiteSpace=wrap;rounded=0;strokeColor=default;" parent="pWE6F50j8uLxKZcUZwO4-89" vertex="1">
          <mxGeometry x="110" y="90" width="60" height="30" as="geometry" />
        </mxCell>
        <mxCell id="pWE6F50j8uLxKZcUZwO4-101" value="Calendar" style="text;html=1;align=center;verticalAlign=middle;whiteSpace=wrap;rounded=0;strokeColor=default;" parent="pWE6F50j8uLxKZcUZwO4-89" vertex="1">
          <mxGeometry x="200" y="90" width="60" height="30" as="geometry" />
        </mxCell>
        <mxCell id="pWE6F50j8uLxKZcUZwO4-102" value="Your Activities" style="text;html=1;align=center;verticalAlign=middle;whiteSpace=wrap;rounded=0;strokeColor=#b85450;fillColor=#f8cecc;" parent="pWE6F50j8uLxKZcUZwO4-89" vertex="1">
          <mxGeometry x="290" y="90" width="60" height="30" as="geometry" />
        </mxCell>
        <mxCell id="pWE6F50j8uLxKZcUZwO4-128" value="Activity 1: Name, short info rating, downloads" style="rounded=1;whiteSpace=wrap;html=1;" parent="pWE6F50j8uLxKZcUZwO4-89" vertex="1">
          <mxGeometry y="130" width="810" height="90" as="geometry" />
        </mxCell>
        <mxCell id="pWE6F50j8uLxKZcUZwO4-129" value="Delete" style="rounded=0;whiteSpace=wrap;html=1;" parent="pWE6F50j8uLxKZcUZwO4-89" vertex="1">
          <mxGeometry x="750" y="140" width="50" height="30" as="geometry" />
        </mxCell>
        <mxCell id="pWE6F50j8uLxKZcUZwO4-131" value="Update" style="rounded=0;whiteSpace=wrap;html=1;" parent="pWE6F50j8uLxKZcUZwO4-89" vertex="1">
          <mxGeometry x="750" y="178" width="50" height="30" as="geometry" />
        </mxCell>
        <mxCell id="pWE6F50j8uLxKZcUZwO4-135" value="" style="swimlane;startSize=0;" parent="1" vertex="1">
          <mxGeometry x="3000" y="800" width="830" height="560" as="geometry" />
        </mxCell>
        <mxCell id="pWE6F50j8uLxKZcUZwO4-136" value="" style="rounded=0;whiteSpace=wrap;html=1;" parent="pWE6F50j8uLxKZcUZwO4-135" vertex="1">
          <mxGeometry width="830" height="80" as="geometry" />
        </mxCell>
        <mxCell id="pWE6F50j8uLxKZcUZwO4-137" value="Library" style="text;html=1;align=center;verticalAlign=middle;whiteSpace=wrap;rounded=0;labelBackgroundColor=none;" parent="pWE6F50j8uLxKZcUZwO4-135" vertex="1">
          <mxGeometry x="10" y="25" width="60" height="30" as="geometry" />
        </mxCell>
        <mxCell id="pWE6F50j8uLxKZcUZwO4-138" value="Market" style="text;html=1;align=center;verticalAlign=middle;whiteSpace=wrap;rounded=0;" parent="pWE6F50j8uLxKZcUZwO4-135" vertex="1">
          <mxGeometry x="100" y="25" width="60" height="30" as="geometry" />
        </mxCell>
        <mxCell id="pWE6F50j8uLxKZcUZwO4-139" value="Profile" style="text;html=1;align=center;verticalAlign=middle;whiteSpace=wrap;rounded=0;" parent="pWE6F50j8uLxKZcUZwO4-135" vertex="1">
          <mxGeometry x="190" y="25" width="60" height="30" as="geometry" />
        </mxCell>
        <mxCell id="pWE6F50j8uLxKZcUZwO4-140" value="Settings" style="text;html=1;align=center;verticalAlign=middle;whiteSpace=wrap;rounded=0;fillColor=#f8cecc;strokeColor=#b85450;" parent="pWE6F50j8uLxKZcUZwO4-135" vertex="1">
          <mxGeometry x="280" y="25" width="60" height="30" as="geometry" />
        </mxCell>
        <mxCell id="pWE6F50j8uLxKZcUZwO4-141" value="" style="rounded=0;whiteSpace=wrap;html=1;fillColor=#f5f5f5;fontColor=#333333;strokeColor=#666666;" parent="pWE6F50j8uLxKZcUZwO4-135" vertex="1">
          <mxGeometry y="80" width="830" height="480" as="geometry" />
        </mxCell>
        <mxCell id="pWE6F50j8uLxKZcUZwO4-142" value="" style="rounded=0;whiteSpace=wrap;html=1;fillColor=#C4B19D;strokeColor=#666666;fontColor=#333333;" parent="pWE6F50j8uLxKZcUZwO4-135" vertex="1">
          <mxGeometry y="80" width="830" height="50" as="geometry" />
        </mxCell>
        <mxCell id="pWE6F50j8uLxKZcUZwO4-143" value="Profile" style="text;html=1;align=center;verticalAlign=middle;whiteSpace=wrap;rounded=0;strokeColor=default;" parent="pWE6F50j8uLxKZcUZwO4-135" vertex="1">
          <mxGeometry x="20" y="90" width="60" height="30" as="geometry" />
        </mxCell>
        <mxCell id="pWE6F50j8uLxKZcUZwO4-144" value="Interface" style="text;html=1;align=center;verticalAlign=middle;whiteSpace=wrap;rounded=0;strokeColor=#b85450;fillColor=#f8cecc;" parent="pWE6F50j8uLxKZcUZwO4-135" vertex="1">
          <mxGeometry x="110" y="90" width="60" height="30" as="geometry" />
        </mxCell>
        <mxCell id="pWE6F50j8uLxKZcUZwO4-149" value="Colors" style="text;html=1;align=center;verticalAlign=middle;whiteSpace=wrap;rounded=0;" parent="pWE6F50j8uLxKZcUZwO4-135" vertex="1">
          <mxGeometry y="130" width="320" height="30" as="geometry" />
        </mxCell>
        <mxCell id="pWE6F50j8uLxKZcUZwO4-150" value="Day/Night mode" style="text;html=1;align=center;verticalAlign=middle;whiteSpace=wrap;rounded=0;" parent="pWE6F50j8uLxKZcUZwO4-135" vertex="1">
          <mxGeometry y="160" width="320" height="30" as="geometry" />
        </mxCell>
        <mxCell id="pWE6F50j8uLxKZcUZwO4-151" value="Preferences" style="text;html=1;align=center;verticalAlign=middle;whiteSpace=wrap;rounded=0;" parent="pWE6F50j8uLxKZcUZwO4-135" vertex="1">
          <mxGeometry y="190" width="320" height="30" as="geometry" />
        </mxCell>
        <mxCell id="pWE6F50j8uLxKZcUZwO4-190" value="" style="rounded=0;whiteSpace=wrap;html=1;fillColor=#d5e8d4;strokeColor=#82b366;" parent="1" vertex="1">
          <mxGeometry x="-100" y="-990" width="680" height="60" as="geometry" />
        </mxCell>
        <mxCell id="pWE6F50j8uLxKZcUZwO4-191" value="Name" style="text;html=1;align=center;verticalAlign=middle;whiteSpace=wrap;rounded=0;" parent="1" vertex="1">
          <mxGeometry x="-87" y="-975" width="60" height="30" as="geometry" />
        </mxCell>
        <mxCell id="pWE6F50j8uLxKZcUZwO4-192" value="Picture" style="rounded=0;whiteSpace=wrap;html=1;" parent="1" vertex="1">
          <mxGeometry x="520" y="-985" width="53" height="50" as="geometry" />
        </mxCell>
        <mxCell id="pWE6F50j8uLxKZcUZwO4-193" value="Type" style="text;html=1;align=center;verticalAlign=middle;whiteSpace=wrap;rounded=0;" parent="1" vertex="1">
          <mxGeometry x="-7" y="-990" width="60" height="30" as="geometry" />
        </mxCell>
        <mxCell id="pWE6F50j8uLxKZcUZwO4-194" value="Daily" style="text;html=1;align=center;verticalAlign=middle;whiteSpace=wrap;rounded=0;" parent="1" vertex="1">
          <mxGeometry x="-7" y="-960" width="60" height="30" as="geometry" />
        </mxCell>
        <mxCell id="pWE6F50j8uLxKZcUZwO4-195" value="" style="endArrow=none;html=1;rounded=0;" parent="1" edge="1">
          <mxGeometry width="50" height="50" relative="1" as="geometry">
            <mxPoint x="-17" y="-930" as="sourcePoint" />
            <mxPoint x="-17" y="-990" as="targetPoint" />
          </mxGeometry>
        </mxCell>
        <mxCell id="pWE6F50j8uLxKZcUZwO4-196" value="" style="endArrow=none;html=1;rounded=0;" parent="1" edge="1">
          <mxGeometry width="50" height="50" relative="1" as="geometry">
            <mxPoint x="-17" y="-961.05" as="sourcePoint" />
            <mxPoint x="63" y="-961.05" as="targetPoint" />
          </mxGeometry>
        </mxCell>
        <mxCell id="pWE6F50j8uLxKZcUZwO4-197" value="" style="endArrow=none;html=1;rounded=0;" parent="1" edge="1">
          <mxGeometry width="50" height="50" relative="1" as="geometry">
            <mxPoint x="63" y="-930" as="sourcePoint" />
            <mxPoint x="63" y="-990" as="targetPoint" />
          </mxGeometry>
        </mxCell>
        <mxCell id="pWE6F50j8uLxKZcUZwO4-198" value="Info" style="text;html=1;align=center;verticalAlign=middle;whiteSpace=wrap;rounded=0;" parent="1" vertex="1">
          <mxGeometry x="83" y="-975" width="60" height="30" as="geometry" />
        </mxCell>
        <mxCell id="pWE6F50j8uLxKZcUZwO4-199" value="DATE" style="text;html=1;align=center;verticalAlign=middle;whiteSpace=wrap;rounded=0;" parent="1" vertex="1">
          <mxGeometry x="443" y="-990" width="60" height="30" as="geometry" />
        </mxCell>
        <mxCell id="pWE6F50j8uLxKZcUZwO4-200" value="" style="endArrow=none;html=1;rounded=0;" parent="1" edge="1">
          <mxGeometry width="50" height="50" relative="1" as="geometry">
            <mxPoint x="433" y="-930" as="sourcePoint" />
            <mxPoint x="433" y="-990" as="targetPoint" />
          </mxGeometry>
        </mxCell>
        <mxCell id="pWE6F50j8uLxKZcUZwO4-201" value="" style="endArrow=none;html=1;rounded=0;" parent="1" edge="1">
          <mxGeometry width="50" height="50" relative="1" as="geometry">
            <mxPoint x="433" y="-961.05" as="sourcePoint" />
            <mxPoint x="513" y="-961.05" as="targetPoint" />
          </mxGeometry>
        </mxCell>
        <mxCell id="pWE6F50j8uLxKZcUZwO4-202" value="" style="endArrow=none;html=1;rounded=0;" parent="1" edge="1">
          <mxGeometry width="50" height="50" relative="1" as="geometry">
            <mxPoint x="513" y="-930" as="sourcePoint" />
            <mxPoint x="513" y="-990" as="targetPoint" />
          </mxGeometry>
        </mxCell>
        <mxCell id="pWE6F50j8uLxKZcUZwO4-203" value="" style="rounded=0;whiteSpace=wrap;html=1;" parent="1" vertex="1">
          <mxGeometry x="463" y="-955" width="20" height="20" as="geometry" />
        </mxCell>
        <mxCell id="pWE6F50j8uLxKZcUZwO4-239" value="" style="swimlane;startSize=0;" parent="1" vertex="1">
          <mxGeometry x="-940" y="120" width="830" height="560" as="geometry" />
        </mxCell>
        <mxCell id="pWE6F50j8uLxKZcUZwO4-240" value="" style="rounded=0;whiteSpace=wrap;html=1;" parent="pWE6F50j8uLxKZcUZwO4-239" vertex="1">
          <mxGeometry width="830" height="80" as="geometry" />
        </mxCell>
        <mxCell id="pWE6F50j8uLxKZcUZwO4-241" value="Library" style="text;html=1;align=center;verticalAlign=middle;whiteSpace=wrap;rounded=0;labelBackgroundColor=none;" parent="pWE6F50j8uLxKZcUZwO4-239" vertex="1">
          <mxGeometry x="110" y="25" width="60" height="30" as="geometry" />
        </mxCell>
        <mxCell id="pWE6F50j8uLxKZcUZwO4-242" value="Market" style="text;html=1;align=center;verticalAlign=middle;whiteSpace=wrap;rounded=0;" parent="pWE6F50j8uLxKZcUZwO4-239" vertex="1">
          <mxGeometry x="190" y="25" width="60" height="30" as="geometry" />
        </mxCell>
        <mxCell id="pWE6F50j8uLxKZcUZwO4-243" value="Profile" style="text;html=1;align=center;verticalAlign=middle;whiteSpace=wrap;rounded=0;" parent="pWE6F50j8uLxKZcUZwO4-239" vertex="1">
          <mxGeometry x="280" y="25" width="60" height="30" as="geometry" />
        </mxCell>
        <mxCell id="pWE6F50j8uLxKZcUZwO4-244" value="Settings" style="text;html=1;align=center;verticalAlign=middle;whiteSpace=wrap;rounded=0;" parent="pWE6F50j8uLxKZcUZwO4-239" vertex="1">
          <mxGeometry x="380" y="25" width="60" height="30" as="geometry" />
        </mxCell>
        <mxCell id="pWE6F50j8uLxKZcUZwO4-245" value="" style="rounded=0;whiteSpace=wrap;html=1;fillColor=#f5f5f5;fontColor=#333333;strokeColor=#666666;" parent="pWE6F50j8uLxKZcUZwO4-239" vertex="1">
          <mxGeometry y="80" width="830" height="480" as="geometry" />
        </mxCell>
        <mxCell id="sz4MWv2wYnxlTZQtVzCK-1" value="Home" style="text;html=1;align=center;verticalAlign=middle;whiteSpace=wrap;rounded=0;fillColor=#f8cecc;strokeColor=#b85450;" parent="pWE6F50j8uLxKZcUZwO4-239" vertex="1">
          <mxGeometry x="20" y="25" width="60" height="30" as="geometry" />
        </mxCell>
        <mxCell id="sz4MWv2wYnxlTZQtVzCK-18" value="Guest" style="text;html=1;align=center;verticalAlign=middle;whiteSpace=wrap;rounded=0;" parent="pWE6F50j8uLxKZcUZwO4-239" vertex="1">
          <mxGeometry x="370" y="105" width="60" height="30" as="geometry" />
        </mxCell>
        <mxCell id="sz4MWv2wYnxlTZQtVzCK-19" value="Welcome" style="text;html=1;align=center;verticalAlign=middle;whiteSpace=wrap;rounded=0;" parent="pWE6F50j8uLxKZcUZwO4-239" vertex="1">
          <mxGeometry x="205" y="150" width="390" height="50" as="geometry" />
        </mxCell>
        <mxCell id="sz4MWv2wYnxlTZQtVzCK-20" value="Page info" style="text;html=1;align=center;verticalAlign=middle;whiteSpace=wrap;rounded=0;" parent="pWE6F50j8uLxKZcUZwO4-239" vertex="1">
          <mxGeometry x="370" y="220" width="60" height="30" as="geometry" />
        </mxCell>
        <mxCell id="pWE6F50j8uLxKZcUZwO4-253" value="" style="verticalLabelPosition=bottom;verticalAlign=top;html=1;shape=mxgraph.basic.patternFillRect;fillStyle=diagGrid;step=5;fillStrokeWidth=0.2;fillStrokeColor=#dddddd;fillColor=#dae8fc;strokeColor=#6c8ebf;" parent="1" vertex="1">
          <mxGeometry x="1630" y="-1084" width="60" height="250" as="geometry" />
        </mxCell>
        <mxCell id="pWE6F50j8uLxKZcUZwO4-254" value="" style="verticalLabelPosition=bottom;verticalAlign=top;html=1;shape=mxgraph.basic.patternFillRect;fillStyle=diagGrid;step=5;fillStrokeWidth=0.2;fillStrokeColor=#dddddd;fillColor=#dae8fc;strokeColor=#6c8ebf;" parent="1" vertex="1">
          <mxGeometry x="1710" y="-964" width="60" height="130" as="geometry" />
        </mxCell>
        <mxCell id="pWE6F50j8uLxKZcUZwO4-255" value="" style="verticalLabelPosition=bottom;verticalAlign=top;html=1;shape=mxgraph.basic.patternFillRect;fillStyle=diagGrid;step=5;fillStrokeWidth=0.2;fillStrokeColor=#dddddd;fillColor=#dae8fc;strokeColor=#6c8ebf;" parent="1" vertex="1">
          <mxGeometry x="1790" y="-1014" width="60" height="180" as="geometry" />
        </mxCell>
        <mxCell id="pWE6F50j8uLxKZcUZwO4-256" value="" style="endArrow=none;html=1;rounded=0;" parent="1" edge="1">
          <mxGeometry width="50" height="50" relative="1" as="geometry">
            <mxPoint x="1880" y="-814" as="sourcePoint" />
            <mxPoint x="1600" y="-814" as="targetPoint" />
            <Array as="points">
              <mxPoint x="1680" y="-814" />
            </Array>
          </mxGeometry>
        </mxCell>
        <mxCell id="pWE6F50j8uLxKZcUZwO4-257" value="" style="endArrow=none;html=1;rounded=0;" parent="1" edge="1">
          <mxGeometry width="50" height="50" relative="1" as="geometry">
            <mxPoint x="1600.0000000000002" y="-1144" as="sourcePoint" />
            <mxPoint x="1600.0000000000002" y="-814" as="targetPoint" />
          </mxGeometry>
        </mxCell>
        <mxCell id="pWE6F50j8uLxKZcUZwO4-258" value="" style="swimlane;startSize=0;" parent="1" vertex="1">
          <mxGeometry y="800" width="830" height="560" as="geometry" />
        </mxCell>
        <mxCell id="pWE6F50j8uLxKZcUZwO4-259" value="" style="rounded=0;whiteSpace=wrap;html=1;" parent="pWE6F50j8uLxKZcUZwO4-258" vertex="1">
          <mxGeometry width="830" height="80" as="geometry" />
        </mxCell>
        <mxCell id="pWE6F50j8uLxKZcUZwO4-260" value="Library" style="text;html=1;align=center;verticalAlign=middle;whiteSpace=wrap;rounded=0;fillColor=#f8cecc;labelBackgroundColor=none;strokeColor=#b85450;" parent="pWE6F50j8uLxKZcUZwO4-258" vertex="1">
          <mxGeometry x="10" y="25" width="60" height="30" as="geometry" />
        </mxCell>
        <mxCell id="pWE6F50j8uLxKZcUZwO4-261" value="Market" style="text;html=1;align=center;verticalAlign=middle;whiteSpace=wrap;rounded=0;" parent="pWE6F50j8uLxKZcUZwO4-258" vertex="1">
          <mxGeometry x="100" y="25" width="60" height="30" as="geometry" />
        </mxCell>
        <mxCell id="pWE6F50j8uLxKZcUZwO4-262" value="Profile" style="text;html=1;align=center;verticalAlign=middle;whiteSpace=wrap;rounded=0;" parent="pWE6F50j8uLxKZcUZwO4-258" vertex="1">
          <mxGeometry x="190" y="25" width="60" height="30" as="geometry" />
        </mxCell>
        <mxCell id="pWE6F50j8uLxKZcUZwO4-263" value="Settings" style="text;html=1;align=center;verticalAlign=middle;whiteSpace=wrap;rounded=0;" parent="pWE6F50j8uLxKZcUZwO4-258" vertex="1">
          <mxGeometry x="280" y="25" width="60" height="30" as="geometry" />
        </mxCell>
        <mxCell id="pWE6F50j8uLxKZcUZwO4-264" value="" style="rounded=0;whiteSpace=wrap;html=1;" parent="pWE6F50j8uLxKZcUZwO4-258" vertex="1">
          <mxGeometry y="80" width="120" height="480" as="geometry" />
        </mxCell>
        <mxCell id="pWE6F50j8uLxKZcUZwO4-265" value="Group" style="text;html=1;align=center;verticalAlign=middle;whiteSpace=wrap;rounded=0;" parent="pWE6F50j8uLxKZcUZwO4-258" vertex="1">
          <mxGeometry y="80" width="83" height="30" as="geometry" />
        </mxCell>
        <mxCell id="pWE6F50j8uLxKZcUZwO4-266" value="Activity" style="text;html=1;align=center;verticalAlign=middle;whiteSpace=wrap;rounded=0;fillColor=#f8cecc;strokeColor=#b85450;" parent="pWE6F50j8uLxKZcUZwO4-258" vertex="1">
          <mxGeometry x="23" y="110" width="60" height="30" as="geometry" />
        </mxCell>
        <mxCell id="pWE6F50j8uLxKZcUZwO4-267" value="Activity" style="text;html=1;align=center;verticalAlign=middle;whiteSpace=wrap;rounded=0;" parent="pWE6F50j8uLxKZcUZwO4-258" vertex="1">
          <mxGeometry x="23" y="140" width="60" height="30" as="geometry" />
        </mxCell>
        <mxCell id="pWE6F50j8uLxKZcUZwO4-268" value="Activity" style="text;html=1;align=center;verticalAlign=middle;whiteSpace=wrap;rounded=0;" parent="pWE6F50j8uLxKZcUZwO4-258" vertex="1">
          <mxGeometry x="23" y="170" width="60" height="30" as="geometry" />
        </mxCell>
        <mxCell id="pWE6F50j8uLxKZcUZwO4-269" value="Activity" style="text;html=1;align=center;verticalAlign=middle;whiteSpace=wrap;rounded=0;" parent="pWE6F50j8uLxKZcUZwO4-258" vertex="1">
          <mxGeometry x="23" y="200" width="60" height="30" as="geometry" />
        </mxCell>
        <mxCell id="pWE6F50j8uLxKZcUZwO4-270" value="" style="rounded=0;whiteSpace=wrap;html=1;fillColor=#f5f5f5;fontColor=#333333;strokeColor=#666666;" parent="pWE6F50j8uLxKZcUZwO4-258" vertex="1">
          <mxGeometry x="120" y="80" width="710" height="480" as="geometry" />
        </mxCell>
        <mxCell id="pWE6F50j8uLxKZcUZwO4-271" value="" style="rounded=0;whiteSpace=wrap;html=1;fillColor=#fff2cc;strokeColor=#d6b656;" parent="pWE6F50j8uLxKZcUZwO4-258" vertex="1">
          <mxGeometry x="120" y="80" width="710" height="90" as="geometry" />
        </mxCell>
        <mxCell id="pWE6F50j8uLxKZcUZwO4-272" value="Name" style="text;html=1;align=center;verticalAlign=middle;whiteSpace=wrap;rounded=0;" parent="pWE6F50j8uLxKZcUZwO4-258" vertex="1">
          <mxGeometry x="423" y="90" width="60" height="30" as="geometry" />
        </mxCell>
        <mxCell id="pWE6F50j8uLxKZcUZwO4-273" value="Picture" style="rounded=0;whiteSpace=wrap;html=1;" parent="pWE6F50j8uLxKZcUZwO4-258" vertex="1">
          <mxGeometry x="130" y="90" width="70" height="60" as="geometry" />
        </mxCell>
        <mxCell id="pWE6F50j8uLxKZcUZwO4-274" value="Achievements" style="text;html=1;align=center;verticalAlign=middle;whiteSpace=wrap;rounded=0;strokeColor=default;" parent="pWE6F50j8uLxKZcUZwO4-258" vertex="1">
          <mxGeometry x="233" y="140" width="87" height="30" as="geometry" />
        </mxCell>
        <mxCell id="pWE6F50j8uLxKZcUZwO4-275" value="Session" style="text;html=1;align=center;verticalAlign=middle;whiteSpace=wrap;rounded=0;strokeColor=#b85450;fillColor=#f8cecc;" parent="pWE6F50j8uLxKZcUZwO4-258" vertex="1">
          <mxGeometry x="329" y="140" width="87" height="30" as="geometry" />
        </mxCell>
        <mxCell id="pWE6F50j8uLxKZcUZwO4-276" value="Settings" style="text;html=1;align=center;verticalAlign=middle;whiteSpace=wrap;rounded=0;strokeColor=default;" parent="pWE6F50j8uLxKZcUZwO4-258" vertex="1">
          <mxGeometry x="426.5" y="140" width="87" height="30" as="geometry" />
        </mxCell>
        <mxCell id="pWE6F50j8uLxKZcUZwO4-291" value="Add new" style="text;html=1;align=center;verticalAlign=middle;whiteSpace=wrap;rounded=0;" parent="pWE6F50j8uLxKZcUZwO4-258" vertex="1">
          <mxGeometry y="530" width="120" height="30" as="geometry" />
        </mxCell>
        <mxCell id="ILnLCXTBZFMxgUNTT8F8-99" value="" style="group" vertex="1" connectable="0" parent="pWE6F50j8uLxKZcUZwO4-258">
          <mxGeometry x="130" y="210" width="680" height="60" as="geometry" />
        </mxCell>
        <mxCell id="ILnLCXTBZFMxgUNTT8F8-85" value="" style="rounded=0;whiteSpace=wrap;html=1;fillColor=#d5e8d4;strokeColor=#82b366;movable=1;resizable=1;rotatable=1;deletable=1;editable=1;locked=0;connectable=1;" vertex="1" parent="ILnLCXTBZFMxgUNTT8F8-99">
          <mxGeometry width="680" height="60" as="geometry" />
        </mxCell>
        <mxCell id="ILnLCXTBZFMxgUNTT8F8-86" value="Name" style="text;html=1;align=center;verticalAlign=middle;whiteSpace=wrap;rounded=0;movable=1;resizable=1;rotatable=1;deletable=1;editable=1;locked=0;connectable=1;" vertex="1" parent="ILnLCXTBZFMxgUNTT8F8-99">
          <mxGeometry x="13" y="15" width="60" height="30" as="geometry" />
        </mxCell>
        <mxCell id="ILnLCXTBZFMxgUNTT8F8-89" value="Info" style="text;html=1;align=center;verticalAlign=middle;whiteSpace=wrap;rounded=0;movable=1;resizable=1;rotatable=1;deletable=1;editable=1;locked=0;connectable=1;" vertex="1" parent="ILnLCXTBZFMxgUNTT8F8-99">
          <mxGeometry x="183" y="15" width="60" height="30" as="geometry" />
        </mxCell>
        <mxCell id="ILnLCXTBZFMxgUNTT8F8-90" value="Start" style="text;html=1;align=center;verticalAlign=middle;whiteSpace=wrap;rounded=0;movable=1;resizable=1;rotatable=1;deletable=1;editable=1;locked=0;connectable=1;" vertex="1" parent="ILnLCXTBZFMxgUNTT8F8-99">
          <mxGeometry x="543" width="60" height="30" as="geometry" />
        </mxCell>
        <mxCell id="ILnLCXTBZFMxgUNTT8F8-91" value="Finish" style="text;html=1;align=center;verticalAlign=middle;whiteSpace=wrap;rounded=0;movable=1;resizable=1;rotatable=1;deletable=1;editable=1;locked=0;connectable=1;" vertex="1" parent="ILnLCXTBZFMxgUNTT8F8-99">
          <mxGeometry x="543" y="30" width="60" height="30" as="geometry" />
        </mxCell>
        <mxCell id="ILnLCXTBZFMxgUNTT8F8-94" value="" style="endArrow=none;html=1;rounded=0;movable=1;resizable=1;rotatable=1;deletable=1;editable=1;locked=0;connectable=1;" edge="1" parent="ILnLCXTBZFMxgUNTT8F8-99">
          <mxGeometry width="50" height="50" relative="1" as="geometry">
            <mxPoint x="89.75999999999999" y="60" as="sourcePoint" />
            <mxPoint x="89.75999999999999" as="targetPoint" />
          </mxGeometry>
        </mxCell>
        <mxCell id="ILnLCXTBZFMxgUNTT8F8-95" value="" style="endArrow=none;html=1;rounded=0;movable=1;resizable=1;rotatable=1;deletable=1;editable=1;locked=0;connectable=1;" edge="1" parent="ILnLCXTBZFMxgUNTT8F8-99">
          <mxGeometry width="50" height="50" relative="1" as="geometry">
            <mxPoint x="530" y="60" as="sourcePoint" />
            <mxPoint x="530" as="targetPoint" />
            <Array as="points">
              <mxPoint x="530" y="30" />
            </Array>
          </mxGeometry>
        </mxCell>
        <mxCell id="ILnLCXTBZFMxgUNTT8F8-96" value="" style="endArrow=none;html=1;rounded=0;movable=1;resizable=1;rotatable=1;deletable=1;editable=1;locked=0;connectable=1;" edge="1" parent="ILnLCXTBZFMxgUNTT8F8-99">
          <mxGeometry width="50" height="50" relative="1" as="geometry">
            <mxPoint x="603" y="60" as="sourcePoint" />
            <mxPoint x="603" as="targetPoint" />
          </mxGeometry>
        </mxCell>
        <mxCell id="ILnLCXTBZFMxgUNTT8F8-98" value="Duration" style="text;html=1;whiteSpace=wrap;strokeColor=none;fillColor=none;align=center;verticalAlign=middle;rounded=0;movable=1;resizable=1;rotatable=1;deletable=1;editable=1;locked=0;connectable=1;" vertex="1" parent="ILnLCXTBZFMxgUNTT8F8-99">
          <mxGeometry x="610" y="15" width="60" height="30" as="geometry" />
        </mxCell>
        <mxCell id="ILnLCXTBZFMxgUNTT8F8-100" value="List" style="text;html=1;align=center;verticalAlign=middle;whiteSpace=wrap;rounded=0;strokeColor=#b85450;fillColor=#f8cecc;" vertex="1" parent="pWE6F50j8uLxKZcUZwO4-258">
          <mxGeometry x="130" y="180" width="60" height="20" as="geometry" />
        </mxCell>
        <mxCell id="ILnLCXTBZFMxgUNTT8F8-101" value="Heatmap" style="text;html=1;align=center;verticalAlign=middle;whiteSpace=wrap;rounded=0;strokeColor=default;" vertex="1" parent="pWE6F50j8uLxKZcUZwO4-258">
          <mxGeometry x="190" y="180" width="68" height="20" as="geometry" />
        </mxCell>
        <mxCell id="ILnLCXTBZFMxgUNTT8F8-102" value="" style="group" vertex="1" connectable="0" parent="pWE6F50j8uLxKZcUZwO4-258">
          <mxGeometry x="130" y="280" width="680" height="60" as="geometry" />
        </mxCell>
        <mxCell id="ILnLCXTBZFMxgUNTT8F8-103" value="" style="rounded=0;whiteSpace=wrap;html=1;fillColor=#d5e8d4;strokeColor=#82b366;movable=1;resizable=1;rotatable=1;deletable=1;editable=1;locked=0;connectable=1;" vertex="1" parent="ILnLCXTBZFMxgUNTT8F8-102">
          <mxGeometry width="680" height="60" as="geometry" />
        </mxCell>
        <mxCell id="ILnLCXTBZFMxgUNTT8F8-104" value="Name" style="text;html=1;align=center;verticalAlign=middle;whiteSpace=wrap;rounded=0;movable=1;resizable=1;rotatable=1;deletable=1;editable=1;locked=0;connectable=1;" vertex="1" parent="ILnLCXTBZFMxgUNTT8F8-102">
          <mxGeometry x="13" y="15" width="60" height="30" as="geometry" />
        </mxCell>
        <mxCell id="ILnLCXTBZFMxgUNTT8F8-105" value="Info" style="text;html=1;align=center;verticalAlign=middle;whiteSpace=wrap;rounded=0;movable=1;resizable=1;rotatable=1;deletable=1;editable=1;locked=0;connectable=1;" vertex="1" parent="ILnLCXTBZFMxgUNTT8F8-102">
          <mxGeometry x="183" y="15" width="60" height="30" as="geometry" />
        </mxCell>
        <mxCell id="ILnLCXTBZFMxgUNTT8F8-106" value="Start" style="text;html=1;align=center;verticalAlign=middle;whiteSpace=wrap;rounded=0;movable=1;resizable=1;rotatable=1;deletable=1;editable=1;locked=0;connectable=1;" vertex="1" parent="ILnLCXTBZFMxgUNTT8F8-102">
          <mxGeometry x="543" width="60" height="30" as="geometry" />
        </mxCell>
        <mxCell id="ILnLCXTBZFMxgUNTT8F8-107" value="Finish" style="text;html=1;align=center;verticalAlign=middle;whiteSpace=wrap;rounded=0;movable=1;resizable=1;rotatable=1;deletable=1;editable=1;locked=0;connectable=1;" vertex="1" parent="ILnLCXTBZFMxgUNTT8F8-102">
          <mxGeometry x="543" y="30" width="60" height="30" as="geometry" />
        </mxCell>
        <mxCell id="ILnLCXTBZFMxgUNTT8F8-108" value="" style="endArrow=none;html=1;rounded=0;movable=1;resizable=1;rotatable=1;deletable=1;editable=1;locked=0;connectable=1;" edge="1" parent="ILnLCXTBZFMxgUNTT8F8-102">
          <mxGeometry width="50" height="50" relative="1" as="geometry">
            <mxPoint x="89.75999999999999" y="60" as="sourcePoint" />
            <mxPoint x="89.75999999999999" as="targetPoint" />
          </mxGeometry>
        </mxCell>
        <mxCell id="ILnLCXTBZFMxgUNTT8F8-109" value="" style="endArrow=none;html=1;rounded=0;movable=1;resizable=1;rotatable=1;deletable=1;editable=1;locked=0;connectable=1;" edge="1" parent="ILnLCXTBZFMxgUNTT8F8-102">
          <mxGeometry width="50" height="50" relative="1" as="geometry">
            <mxPoint x="530" y="60" as="sourcePoint" />
            <mxPoint x="530" as="targetPoint" />
            <Array as="points">
              <mxPoint x="530" y="30" />
            </Array>
          </mxGeometry>
        </mxCell>
        <mxCell id="ILnLCXTBZFMxgUNTT8F8-110" value="" style="endArrow=none;html=1;rounded=0;movable=1;resizable=1;rotatable=1;deletable=1;editable=1;locked=0;connectable=1;" edge="1" parent="ILnLCXTBZFMxgUNTT8F8-102">
          <mxGeometry width="50" height="50" relative="1" as="geometry">
            <mxPoint x="603" y="60" as="sourcePoint" />
            <mxPoint x="603" as="targetPoint" />
          </mxGeometry>
        </mxCell>
        <mxCell id="ILnLCXTBZFMxgUNTT8F8-111" value="Duration" style="text;html=1;whiteSpace=wrap;strokeColor=none;fillColor=none;align=center;verticalAlign=middle;rounded=0;movable=1;resizable=1;rotatable=1;deletable=1;editable=1;locked=0;connectable=1;" vertex="1" parent="ILnLCXTBZFMxgUNTT8F8-102">
          <mxGeometry x="610" y="15" width="60" height="30" as="geometry" />
        </mxCell>
        <mxCell id="ILnLCXTBZFMxgUNTT8F8-133" value="Notes(expand)" style="text;html=1;align=center;verticalAlign=middle;whiteSpace=wrap;rounded=0;strokeColor=default;" vertex="1" parent="ILnLCXTBZFMxgUNTT8F8-102">
          <mxGeometry x="260" y="40" width="68" height="20" as="geometry" />
        </mxCell>
        <mxCell id="ILnLCXTBZFMxgUNTT8F8-112" value="" style="group" vertex="1" connectable="0" parent="pWE6F50j8uLxKZcUZwO4-258">
          <mxGeometry x="130" y="350" width="680" height="60" as="geometry" />
        </mxCell>
        <mxCell id="ILnLCXTBZFMxgUNTT8F8-113" value="" style="rounded=0;whiteSpace=wrap;html=1;fillColor=#d5e8d4;strokeColor=#82b366;movable=1;resizable=1;rotatable=1;deletable=1;editable=1;locked=0;connectable=1;" vertex="1" parent="ILnLCXTBZFMxgUNTT8F8-112">
          <mxGeometry width="680" height="60" as="geometry" />
        </mxCell>
        <mxCell id="ILnLCXTBZFMxgUNTT8F8-114" value="Name" style="text;html=1;align=center;verticalAlign=middle;whiteSpace=wrap;rounded=0;movable=1;resizable=1;rotatable=1;deletable=1;editable=1;locked=0;connectable=1;" vertex="1" parent="ILnLCXTBZFMxgUNTT8F8-112">
          <mxGeometry x="13" y="15" width="60" height="30" as="geometry" />
        </mxCell>
        <mxCell id="ILnLCXTBZFMxgUNTT8F8-115" value="Info" style="text;html=1;align=center;verticalAlign=middle;whiteSpace=wrap;rounded=0;movable=1;resizable=1;rotatable=1;deletable=1;editable=1;locked=0;connectable=1;" vertex="1" parent="ILnLCXTBZFMxgUNTT8F8-112">
          <mxGeometry x="183" y="15" width="60" height="30" as="geometry" />
        </mxCell>
        <mxCell id="ILnLCXTBZFMxgUNTT8F8-116" value="Start" style="text;html=1;align=center;verticalAlign=middle;whiteSpace=wrap;rounded=0;movable=1;resizable=1;rotatable=1;deletable=1;editable=1;locked=0;connectable=1;" vertex="1" parent="ILnLCXTBZFMxgUNTT8F8-112">
          <mxGeometry x="543" width="60" height="30" as="geometry" />
        </mxCell>
        <mxCell id="ILnLCXTBZFMxgUNTT8F8-117" value="Finish" style="text;html=1;align=center;verticalAlign=middle;whiteSpace=wrap;rounded=0;movable=1;resizable=1;rotatable=1;deletable=1;editable=1;locked=0;connectable=1;" vertex="1" parent="ILnLCXTBZFMxgUNTT8F8-112">
          <mxGeometry x="543" y="30" width="60" height="30" as="geometry" />
        </mxCell>
        <mxCell id="ILnLCXTBZFMxgUNTT8F8-118" value="" style="endArrow=none;html=1;rounded=0;movable=1;resizable=1;rotatable=1;deletable=1;editable=1;locked=0;connectable=1;" edge="1" parent="ILnLCXTBZFMxgUNTT8F8-112">
          <mxGeometry width="50" height="50" relative="1" as="geometry">
            <mxPoint x="89.75999999999999" y="60" as="sourcePoint" />
            <mxPoint x="89.75999999999999" as="targetPoint" />
          </mxGeometry>
        </mxCell>
        <mxCell id="ILnLCXTBZFMxgUNTT8F8-119" value="" style="endArrow=none;html=1;rounded=0;movable=1;resizable=1;rotatable=1;deletable=1;editable=1;locked=0;connectable=1;" edge="1" parent="ILnLCXTBZFMxgUNTT8F8-112">
          <mxGeometry width="50" height="50" relative="1" as="geometry">
            <mxPoint x="530" y="60" as="sourcePoint" />
            <mxPoint x="530" as="targetPoint" />
            <Array as="points">
              <mxPoint x="530" y="30" />
            </Array>
          </mxGeometry>
        </mxCell>
        <mxCell id="ILnLCXTBZFMxgUNTT8F8-120" value="" style="endArrow=none;html=1;rounded=0;movable=1;resizable=1;rotatable=1;deletable=1;editable=1;locked=0;connectable=1;" edge="1" parent="ILnLCXTBZFMxgUNTT8F8-112">
          <mxGeometry width="50" height="50" relative="1" as="geometry">
            <mxPoint x="603" y="60" as="sourcePoint" />
            <mxPoint x="603" as="targetPoint" />
          </mxGeometry>
        </mxCell>
        <mxCell id="ILnLCXTBZFMxgUNTT8F8-121" value="Duration" style="text;html=1;whiteSpace=wrap;strokeColor=none;fillColor=none;align=center;verticalAlign=middle;rounded=0;movable=1;resizable=1;rotatable=1;deletable=1;editable=1;locked=0;connectable=1;" vertex="1" parent="ILnLCXTBZFMxgUNTT8F8-112">
          <mxGeometry x="610" y="15" width="60" height="30" as="geometry" />
        </mxCell>
        <mxCell id="ILnLCXTBZFMxgUNTT8F8-134" value="Notes(expand)" style="text;html=1;align=center;verticalAlign=middle;whiteSpace=wrap;rounded=0;strokeColor=default;" vertex="1" parent="ILnLCXTBZFMxgUNTT8F8-112">
          <mxGeometry x="260" y="40" width="68" height="20" as="geometry" />
        </mxCell>
        <mxCell id="ILnLCXTBZFMxgUNTT8F8-135" value="New Session" style="text;html=1;align=center;verticalAlign=middle;whiteSpace=wrap;rounded=0;" vertex="1" parent="pWE6F50j8uLxKZcUZwO4-258">
          <mxGeometry x="687" y="530" width="140" height="30" as="geometry" />
        </mxCell>
        <mxCell id="pWE6F50j8uLxKZcUZwO4-328" value="" style="swimlane;startSize=0;align=left;" parent="1" vertex="1">
          <mxGeometry x="-10" y="3420" width="830" height="560" as="geometry" />
        </mxCell>
        <mxCell id="pWE6F50j8uLxKZcUZwO4-329" value="" style="rounded=0;whiteSpace=wrap;html=1;" parent="pWE6F50j8uLxKZcUZwO4-328" vertex="1">
          <mxGeometry width="830" height="80" as="geometry" />
        </mxCell>
        <mxCell id="pWE6F50j8uLxKZcUZwO4-330" value="Library" style="text;html=1;align=center;verticalAlign=middle;whiteSpace=wrap;rounded=0;fillColor=#f8cecc;labelBackgroundColor=none;strokeColor=#b85450;" parent="pWE6F50j8uLxKZcUZwO4-328" vertex="1">
          <mxGeometry x="10" y="25" width="60" height="30" as="geometry" />
        </mxCell>
        <mxCell id="pWE6F50j8uLxKZcUZwO4-331" value="Market" style="text;html=1;align=center;verticalAlign=middle;whiteSpace=wrap;rounded=0;" parent="pWE6F50j8uLxKZcUZwO4-328" vertex="1">
          <mxGeometry x="100" y="25" width="60" height="30" as="geometry" />
        </mxCell>
        <mxCell id="pWE6F50j8uLxKZcUZwO4-332" value="Profile" style="text;html=1;align=center;verticalAlign=middle;whiteSpace=wrap;rounded=0;" parent="pWE6F50j8uLxKZcUZwO4-328" vertex="1">
          <mxGeometry x="190" y="25" width="60" height="30" as="geometry" />
        </mxCell>
        <mxCell id="pWE6F50j8uLxKZcUZwO4-333" value="Settings" style="text;html=1;align=center;verticalAlign=middle;whiteSpace=wrap;rounded=0;" parent="pWE6F50j8uLxKZcUZwO4-328" vertex="1">
          <mxGeometry x="280" y="25" width="60" height="30" as="geometry" />
        </mxCell>
        <mxCell id="pWE6F50j8uLxKZcUZwO4-334" value="" style="rounded=0;whiteSpace=wrap;html=1;" parent="pWE6F50j8uLxKZcUZwO4-328" vertex="1">
          <mxGeometry y="80" width="120" height="480" as="geometry" />
        </mxCell>
        <mxCell id="pWE6F50j8uLxKZcUZwO4-335" value="Group" style="text;html=1;align=center;verticalAlign=middle;whiteSpace=wrap;rounded=0;" parent="pWE6F50j8uLxKZcUZwO4-328" vertex="1">
          <mxGeometry y="80" width="83" height="30" as="geometry" />
        </mxCell>
        <mxCell id="pWE6F50j8uLxKZcUZwO4-336" value="Activity" style="text;html=1;align=center;verticalAlign=middle;whiteSpace=wrap;rounded=0;fillColor=#f8cecc;strokeColor=#b85450;" parent="pWE6F50j8uLxKZcUZwO4-328" vertex="1">
          <mxGeometry x="23" y="110" width="60" height="30" as="geometry" />
        </mxCell>
        <mxCell id="pWE6F50j8uLxKZcUZwO4-337" value="Activity" style="text;html=1;align=center;verticalAlign=middle;whiteSpace=wrap;rounded=0;" parent="pWE6F50j8uLxKZcUZwO4-328" vertex="1">
          <mxGeometry x="23" y="140" width="60" height="30" as="geometry" />
        </mxCell>
        <mxCell id="pWE6F50j8uLxKZcUZwO4-338" value="Activity" style="text;html=1;align=center;verticalAlign=middle;whiteSpace=wrap;rounded=0;" parent="pWE6F50j8uLxKZcUZwO4-328" vertex="1">
          <mxGeometry x="23" y="170" width="60" height="30" as="geometry" />
        </mxCell>
        <mxCell id="pWE6F50j8uLxKZcUZwO4-339" value="Activity" style="text;html=1;align=center;verticalAlign=middle;whiteSpace=wrap;rounded=0;" parent="pWE6F50j8uLxKZcUZwO4-328" vertex="1">
          <mxGeometry x="23" y="200" width="60" height="30" as="geometry" />
        </mxCell>
        <mxCell id="pWE6F50j8uLxKZcUZwO4-340" value="" style="rounded=0;whiteSpace=wrap;html=1;fillColor=#f5f5f5;fontColor=#333333;strokeColor=#666666;" parent="pWE6F50j8uLxKZcUZwO4-328" vertex="1">
          <mxGeometry x="120" y="80" width="710" height="480" as="geometry" />
        </mxCell>
        <mxCell id="pWE6F50j8uLxKZcUZwO4-341" value="" style="rounded=0;whiteSpace=wrap;html=1;fillColor=#fff2cc;strokeColor=#d6b656;" parent="pWE6F50j8uLxKZcUZwO4-328" vertex="1">
          <mxGeometry x="120" y="80" width="710" height="90" as="geometry" />
        </mxCell>
        <mxCell id="pWE6F50j8uLxKZcUZwO4-342" value="Name" style="text;html=1;align=center;verticalAlign=middle;whiteSpace=wrap;rounded=0;" parent="pWE6F50j8uLxKZcUZwO4-328" vertex="1">
          <mxGeometry x="423" y="90" width="60" height="30" as="geometry" />
        </mxCell>
        <mxCell id="pWE6F50j8uLxKZcUZwO4-343" value="Picture" style="rounded=0;whiteSpace=wrap;html=1;" parent="pWE6F50j8uLxKZcUZwO4-328" vertex="1">
          <mxGeometry x="130" y="90" width="70" height="60" as="geometry" />
        </mxCell>
        <mxCell id="pWE6F50j8uLxKZcUZwO4-344" value="Achievements" style="text;html=1;align=center;verticalAlign=middle;whiteSpace=wrap;rounded=0;strokeColor=default;" parent="pWE6F50j8uLxKZcUZwO4-328" vertex="1">
          <mxGeometry x="233" y="140" width="87" height="30" as="geometry" />
        </mxCell>
        <mxCell id="pWE6F50j8uLxKZcUZwO4-345" value="Session" style="text;html=1;align=center;verticalAlign=middle;whiteSpace=wrap;rounded=0;strokeColor=default;" parent="pWE6F50j8uLxKZcUZwO4-328" vertex="1">
          <mxGeometry x="329" y="140" width="87" height="30" as="geometry" />
        </mxCell>
        <mxCell id="pWE6F50j8uLxKZcUZwO4-346" value="Settings" style="text;html=1;align=center;verticalAlign=middle;whiteSpace=wrap;rounded=0;strokeColor=#b85450;fillColor=#f8cecc;" parent="pWE6F50j8uLxKZcUZwO4-328" vertex="1">
          <mxGeometry x="426.5" y="140" width="87" height="30" as="geometry" />
        </mxCell>
        <mxCell id="pWE6F50j8uLxKZcUZwO4-347" value="Add new" style="text;html=1;align=center;verticalAlign=middle;whiteSpace=wrap;rounded=0;" parent="pWE6F50j8uLxKZcUZwO4-328" vertex="1">
          <mxGeometry y="530" width="120" height="30" as="geometry" />
        </mxCell>
        <mxCell id="pWE6F50j8uLxKZcUZwO4-357" value="Update/Delete achievements" style="text;html=1;align=left;verticalAlign=middle;whiteSpace=wrap;rounded=0;" parent="pWE6F50j8uLxKZcUZwO4-328" vertex="1">
          <mxGeometry x="140" y="190" width="380" height="30" as="geometry" />
        </mxCell>
        <mxCell id="pWE6F50j8uLxKZcUZwO4-358" value="View/Update/Delete sessions" style="text;html=1;align=left;verticalAlign=middle;whiteSpace=wrap;rounded=0;" parent="pWE6F50j8uLxKZcUZwO4-328" vertex="1">
          <mxGeometry x="140" y="220" width="380" height="30" as="geometry" />
        </mxCell>
        <mxCell id="sz4MWv2wYnxlTZQtVzCK-2" value="" style="swimlane;startSize=0;" parent="1" vertex="1">
          <mxGeometry x="-940" y="800" width="830" height="560" as="geometry" />
        </mxCell>
        <mxCell id="sz4MWv2wYnxlTZQtVzCK-3" value="" style="rounded=0;whiteSpace=wrap;html=1;" parent="sz4MWv2wYnxlTZQtVzCK-2" vertex="1">
          <mxGeometry width="830" height="80" as="geometry" />
        </mxCell>
        <mxCell id="sz4MWv2wYnxlTZQtVzCK-4" value="Library" style="text;html=1;align=center;verticalAlign=middle;whiteSpace=wrap;rounded=0;labelBackgroundColor=none;" parent="sz4MWv2wYnxlTZQtVzCK-2" vertex="1">
          <mxGeometry x="110" y="25" width="60" height="30" as="geometry" />
        </mxCell>
        <mxCell id="sz4MWv2wYnxlTZQtVzCK-5" value="Market" style="text;html=1;align=center;verticalAlign=middle;whiteSpace=wrap;rounded=0;" parent="sz4MWv2wYnxlTZQtVzCK-2" vertex="1">
          <mxGeometry x="190" y="25" width="60" height="30" as="geometry" />
        </mxCell>
        <mxCell id="sz4MWv2wYnxlTZQtVzCK-6" value="Profile" style="text;html=1;align=center;verticalAlign=middle;whiteSpace=wrap;rounded=0;" parent="sz4MWv2wYnxlTZQtVzCK-2" vertex="1">
          <mxGeometry x="280" y="25" width="60" height="30" as="geometry" />
        </mxCell>
        <mxCell id="sz4MWv2wYnxlTZQtVzCK-7" value="Settings" style="text;html=1;align=center;verticalAlign=middle;whiteSpace=wrap;rounded=0;" parent="sz4MWv2wYnxlTZQtVzCK-2" vertex="1">
          <mxGeometry x="380" y="25" width="60" height="30" as="geometry" />
        </mxCell>
        <mxCell id="sz4MWv2wYnxlTZQtVzCK-8" value="" style="rounded=0;whiteSpace=wrap;html=1;fillColor=#f5f5f5;fontColor=#333333;strokeColor=#666666;" parent="sz4MWv2wYnxlTZQtVzCK-2" vertex="1">
          <mxGeometry y="80" width="830" height="480" as="geometry" />
        </mxCell>
        <mxCell id="sz4MWv2wYnxlTZQtVzCK-9" value="Home" style="text;html=1;align=center;verticalAlign=middle;whiteSpace=wrap;rounded=0;fillColor=#f8cecc;strokeColor=#b85450;" parent="sz4MWv2wYnxlTZQtVzCK-2" vertex="1">
          <mxGeometry x="20" y="25" width="60" height="30" as="geometry" />
        </mxCell>
        <mxCell id="sz4MWv2wYnxlTZQtVzCK-21" value="User" style="text;html=1;align=center;verticalAlign=middle;whiteSpace=wrap;rounded=0;" parent="sz4MWv2wYnxlTZQtVzCK-2" vertex="1">
          <mxGeometry x="370" y="120" width="60" height="30" as="geometry" />
        </mxCell>
        <mxCell id="sz4MWv2wYnxlTZQtVzCK-10" value="" style="swimlane;startSize=0;" parent="1" vertex="1">
          <mxGeometry x="690" y="-1030" width="830" height="560" as="geometry" />
        </mxCell>
        <mxCell id="sz4MWv2wYnxlTZQtVzCK-11" value="" style="rounded=0;whiteSpace=wrap;html=1;" parent="sz4MWv2wYnxlTZQtVzCK-10" vertex="1">
          <mxGeometry width="830" height="80" as="geometry" />
        </mxCell>
        <mxCell id="sz4MWv2wYnxlTZQtVzCK-12" value="Library" style="text;html=1;align=center;verticalAlign=middle;whiteSpace=wrap;rounded=0;labelBackgroundColor=none;" parent="sz4MWv2wYnxlTZQtVzCK-10" vertex="1">
          <mxGeometry x="110" y="25" width="60" height="30" as="geometry" />
        </mxCell>
        <mxCell id="sz4MWv2wYnxlTZQtVzCK-13" value="Market" style="text;html=1;align=center;verticalAlign=middle;whiteSpace=wrap;rounded=0;" parent="sz4MWv2wYnxlTZQtVzCK-10" vertex="1">
          <mxGeometry x="190" y="25" width="60" height="30" as="geometry" />
        </mxCell>
        <mxCell id="sz4MWv2wYnxlTZQtVzCK-14" value="Profile" style="text;html=1;align=center;verticalAlign=middle;whiteSpace=wrap;rounded=0;" parent="sz4MWv2wYnxlTZQtVzCK-10" vertex="1">
          <mxGeometry x="280" y="25" width="60" height="30" as="geometry" />
        </mxCell>
        <mxCell id="sz4MWv2wYnxlTZQtVzCK-15" value="Settings" style="text;html=1;align=center;verticalAlign=middle;whiteSpace=wrap;rounded=0;" parent="sz4MWv2wYnxlTZQtVzCK-10" vertex="1">
          <mxGeometry x="380" y="25" width="60" height="30" as="geometry" />
        </mxCell>
        <mxCell id="sz4MWv2wYnxlTZQtVzCK-16" value="" style="rounded=0;whiteSpace=wrap;html=1;fillColor=#f5f5f5;fontColor=#333333;strokeColor=#666666;" parent="sz4MWv2wYnxlTZQtVzCK-10" vertex="1">
          <mxGeometry y="80" width="830" height="480" as="geometry" />
        </mxCell>
        <mxCell id="sz4MWv2wYnxlTZQtVzCK-17" value="Home" style="text;html=1;align=center;verticalAlign=middle;whiteSpace=wrap;rounded=0;fillColor=#f8cecc;strokeColor=#b85450;" parent="sz4MWv2wYnxlTZQtVzCK-10" vertex="1">
          <mxGeometry x="20" y="25" width="60" height="30" as="geometry" />
        </mxCell>
        <mxCell id="sz4MWv2wYnxlTZQtVzCK-24" value="App" style="whiteSpace=wrap;html=1;align=center;" parent="1" vertex="1">
          <mxGeometry x="2390" y="-1050" width="100" height="40" as="geometry" />
        </mxCell>
        <mxCell id="sz4MWv2wYnxlTZQtVzCK-25" value="Workspace(Library)" style="whiteSpace=wrap;html=1;align=center;" parent="1" vertex="1">
          <mxGeometry x="2580" y="-790" width="100" height="40" as="geometry" />
        </mxCell>
        <mxCell id="sz4MWv2wYnxlTZQtVzCK-26" value="Home" style="whiteSpace=wrap;html=1;align=center;" parent="1" vertex="1">
          <mxGeometry x="2297" y="-790" width="100" height="40" as="geometry" />
        </mxCell>
        <mxCell id="sz4MWv2wYnxlTZQtVzCK-27" value="Footer" style="whiteSpace=wrap;html=1;align=center;" parent="1" vertex="1">
          <mxGeometry x="2360" y="-950" width="100" height="40" as="geometry" />
        </mxCell>
        <mxCell id="sz4MWv2wYnxlTZQtVzCK-28" value="Header" style="whiteSpace=wrap;html=1;align=center;" parent="1" vertex="1">
          <mxGeometry x="2240" y="-950" width="100" height="40" as="geometry" />
        </mxCell>
        <mxCell id="sz4MWv2wYnxlTZQtVzCK-29" value="" style="endArrow=none;html=1;rounded=0;entryX=0;entryY=0.5;entryDx=0;entryDy=0;exitX=0.5;exitY=0;exitDx=0;exitDy=0;" parent="1" source="sz4MWv2wYnxlTZQtVzCK-28" target="sz4MWv2wYnxlTZQtVzCK-24" edge="1">
          <mxGeometry relative="1" as="geometry">
            <mxPoint x="2160" y="-1070" as="sourcePoint" />
            <mxPoint x="2320" y="-1070" as="targetPoint" />
          </mxGeometry>
        </mxCell>
        <mxCell id="sz4MWv2wYnxlTZQtVzCK-30" value="" style="endArrow=none;html=1;rounded=0;entryX=0.5;entryY=1;entryDx=0;entryDy=0;exitX=0.5;exitY=0;exitDx=0;exitDy=0;" parent="1" source="sz4MWv2wYnxlTZQtVzCK-27" target="sz4MWv2wYnxlTZQtVzCK-24" edge="1">
          <mxGeometry relative="1" as="geometry">
            <mxPoint x="2030" y="-1080" as="sourcePoint" />
            <mxPoint x="2190" y="-1080" as="targetPoint" />
          </mxGeometry>
        </mxCell>
        <mxCell id="sz4MWv2wYnxlTZQtVzCK-31" value="Conditional" style="whiteSpace=wrap;html=1;align=center;" parent="1" vertex="1">
          <mxGeometry x="2560" y="-950" width="100" height="40" as="geometry" />
        </mxCell>
        <mxCell id="sz4MWv2wYnxlTZQtVzCK-32" value="" style="endArrow=none;html=1;rounded=0;exitX=1;exitY=0.5;exitDx=0;exitDy=0;entryX=0.5;entryY=0;entryDx=0;entryDy=0;" parent="1" source="sz4MWv2wYnxlTZQtVzCK-24" target="sz4MWv2wYnxlTZQtVzCK-31" edge="1">
          <mxGeometry relative="1" as="geometry">
            <mxPoint x="2460" y="-1090" as="sourcePoint" />
            <mxPoint x="2620" y="-1090" as="targetPoint" />
          </mxGeometry>
        </mxCell>
        <mxCell id="sz4MWv2wYnxlTZQtVzCK-33" value="Templates(Market)" style="whiteSpace=wrap;html=1;align=center;" parent="1" vertex="1">
          <mxGeometry x="2896.5" y="-790" width="100" height="40" as="geometry" />
        </mxCell>
        <mxCell id="sz4MWv2wYnxlTZQtVzCK-34" value="Profile" style="whiteSpace=wrap;html=1;align=center;" parent="1" vertex="1">
          <mxGeometry x="3190" y="-790" width="100" height="40" as="geometry" />
        </mxCell>
        <mxCell id="sz4MWv2wYnxlTZQtVzCK-35" value="Settings" style="whiteSpace=wrap;html=1;align=center;" parent="1" vertex="1">
          <mxGeometry x="3641" y="-790" width="100" height="40" as="geometry" />
        </mxCell>
        <mxCell id="sz4MWv2wYnxlTZQtVzCK-36" value="" style="endArrow=none;html=1;rounded=0;entryX=0.5;entryY=1;entryDx=0;entryDy=0;exitX=0.5;exitY=0;exitDx=0;exitDy=0;" parent="1" source="sz4MWv2wYnxlTZQtVzCK-35" target="sz4MWv2wYnxlTZQtVzCK-31" edge="1">
          <mxGeometry relative="1" as="geometry">
            <mxPoint x="2460" y="-1090" as="sourcePoint" />
            <mxPoint x="2620" y="-1090" as="targetPoint" />
          </mxGeometry>
        </mxCell>
        <mxCell id="sz4MWv2wYnxlTZQtVzCK-37" value="" style="endArrow=none;html=1;rounded=0;entryX=0.5;entryY=1;entryDx=0;entryDy=0;exitX=0.5;exitY=0;exitDx=0;exitDy=0;" parent="1" source="sz4MWv2wYnxlTZQtVzCK-34" target="sz4MWv2wYnxlTZQtVzCK-31" edge="1">
          <mxGeometry relative="1" as="geometry">
            <mxPoint x="2460" y="-1090" as="sourcePoint" />
            <mxPoint x="2620" y="-1090" as="targetPoint" />
          </mxGeometry>
        </mxCell>
        <mxCell id="sz4MWv2wYnxlTZQtVzCK-38" value="" style="endArrow=none;html=1;rounded=0;entryX=0.5;entryY=1;entryDx=0;entryDy=0;exitX=0.5;exitY=0;exitDx=0;exitDy=0;" parent="1" source="sz4MWv2wYnxlTZQtVzCK-33" target="sz4MWv2wYnxlTZQtVzCK-31" edge="1">
          <mxGeometry relative="1" as="geometry">
            <mxPoint x="2460" y="-1090" as="sourcePoint" />
            <mxPoint x="2620" y="-1090" as="targetPoint" />
          </mxGeometry>
        </mxCell>
        <mxCell id="sz4MWv2wYnxlTZQtVzCK-39" value="" style="endArrow=none;html=1;rounded=0;entryX=0.5;entryY=1;entryDx=0;entryDy=0;exitX=0.5;exitY=0;exitDx=0;exitDy=0;" parent="1" source="sz4MWv2wYnxlTZQtVzCK-25" target="sz4MWv2wYnxlTZQtVzCK-31" edge="1">
          <mxGeometry relative="1" as="geometry">
            <mxPoint x="2460" y="-1090" as="sourcePoint" />
            <mxPoint x="2620" y="-1090" as="targetPoint" />
          </mxGeometry>
        </mxCell>
        <mxCell id="sz4MWv2wYnxlTZQtVzCK-40" value="" style="endArrow=none;html=1;rounded=0;entryX=0.5;entryY=1;entryDx=0;entryDy=0;exitX=0.5;exitY=0;exitDx=0;exitDy=0;" parent="1" source="sz4MWv2wYnxlTZQtVzCK-26" target="sz4MWv2wYnxlTZQtVzCK-31" edge="1">
          <mxGeometry relative="1" as="geometry">
            <mxPoint x="2460" y="-1090" as="sourcePoint" />
            <mxPoint x="2620" y="-1090" as="targetPoint" />
          </mxGeometry>
        </mxCell>
        <mxCell id="sz4MWv2wYnxlTZQtVzCK-41" value="Sidebar" style="whiteSpace=wrap;html=1;align=center;" parent="1" vertex="1">
          <mxGeometry x="2500" y="-710" width="100" height="40" as="geometry" />
        </mxCell>
        <mxCell id="sz4MWv2wYnxlTZQtVzCK-42" value="ActivityDisplay" style="whiteSpace=wrap;html=1;align=center;" parent="1" vertex="1">
          <mxGeometry x="2500" y="-630" width="100" height="40" as="geometry" />
        </mxCell>
        <mxCell id="sz4MWv2wYnxlTZQtVzCK-43" value="Achievements" style="whiteSpace=wrap;html=1;align=center;" parent="1" vertex="1">
          <mxGeometry x="2570" y="-550" width="100" height="40" as="geometry" />
        </mxCell>
        <mxCell id="sz4MWv2wYnxlTZQtVzCK-44" value="Sessions" style="whiteSpace=wrap;html=1;align=center;" parent="1" vertex="1">
          <mxGeometry x="2650" y="-630" width="100" height="40" as="geometry" />
        </mxCell>
        <mxCell id="sz4MWv2wYnxlTZQtVzCK-45" value="Settings" style="whiteSpace=wrap;html=1;align=center;" parent="1" vertex="1">
          <mxGeometry x="2650" y="-710" width="100" height="40" as="geometry" />
        </mxCell>
        <mxCell id="sz4MWv2wYnxlTZQtVzCK-46" value="" style="endArrow=none;html=1;rounded=0;entryX=0.5;entryY=1;entryDx=0;entryDy=0;exitX=0.5;exitY=0;exitDx=0;exitDy=0;" parent="1" source="sz4MWv2wYnxlTZQtVzCK-41" target="sz4MWv2wYnxlTZQtVzCK-25" edge="1">
          <mxGeometry relative="1" as="geometry">
            <mxPoint x="2660" y="-620" as="sourcePoint" />
            <mxPoint x="2640" y="-740" as="targetPoint" />
          </mxGeometry>
        </mxCell>
        <mxCell id="sz4MWv2wYnxlTZQtVzCK-47" value="" style="endArrow=none;html=1;rounded=0;entryX=0.5;entryY=1;entryDx=0;entryDy=0;exitX=0.5;exitY=0;exitDx=0;exitDy=0;" parent="1" source="sz4MWv2wYnxlTZQtVzCK-42" target="sz4MWv2wYnxlTZQtVzCK-25" edge="1">
          <mxGeometry relative="1" as="geometry">
            <mxPoint x="2590" y="-510" as="sourcePoint" />
            <mxPoint x="2570" y="-630" as="targetPoint" />
          </mxGeometry>
        </mxCell>
        <mxCell id="sz4MWv2wYnxlTZQtVzCK-48" value="" style="endArrow=none;html=1;rounded=0;entryX=0.5;entryY=1;entryDx=0;entryDy=0;exitX=0.5;exitY=0;exitDx=0;exitDy=0;" parent="1" source="sz4MWv2wYnxlTZQtVzCK-43" target="sz4MWv2wYnxlTZQtVzCK-25" edge="1">
          <mxGeometry relative="1" as="geometry">
            <mxPoint x="2720" y="-550" as="sourcePoint" />
            <mxPoint x="2700" y="-670" as="targetPoint" />
          </mxGeometry>
        </mxCell>
        <mxCell id="sz4MWv2wYnxlTZQtVzCK-49" value="" style="endArrow=none;html=1;rounded=0;entryX=0.5;entryY=1;entryDx=0;entryDy=0;exitX=0.5;exitY=0;exitDx=0;exitDy=0;" parent="1" source="sz4MWv2wYnxlTZQtVzCK-44" target="sz4MWv2wYnxlTZQtVzCK-25" edge="1">
          <mxGeometry relative="1" as="geometry">
            <mxPoint x="2730" y="-600" as="sourcePoint" />
            <mxPoint x="2710" y="-720" as="targetPoint" />
          </mxGeometry>
        </mxCell>
        <mxCell id="sz4MWv2wYnxlTZQtVzCK-50" value="" style="endArrow=none;html=1;rounded=0;entryX=0.5;entryY=1;entryDx=0;entryDy=0;exitX=0.5;exitY=0;exitDx=0;exitDy=0;" parent="1" source="sz4MWv2wYnxlTZQtVzCK-45" target="sz4MWv2wYnxlTZQtVzCK-25" edge="1">
          <mxGeometry relative="1" as="geometry">
            <mxPoint x="2740" y="-610" as="sourcePoint" />
            <mxPoint x="2720" y="-730" as="targetPoint" />
          </mxGeometry>
        </mxCell>
        <mxCell id="sz4MWv2wYnxlTZQtVzCK-51" value="Search bar" style="whiteSpace=wrap;html=1;align=center;" parent="1" vertex="1">
          <mxGeometry x="2823" y="-710" width="100" height="40" as="geometry" />
        </mxCell>
        <mxCell id="sz4MWv2wYnxlTZQtVzCK-52" value="Activities" style="whiteSpace=wrap;html=1;align=center;" parent="1" vertex="1">
          <mxGeometry x="2990" y="-710" width="100" height="40" as="geometry" />
        </mxCell>
        <mxCell id="sz4MWv2wYnxlTZQtVzCK-53" value="" style="endArrow=none;html=1;rounded=0;entryX=0.5;entryY=1;entryDx=0;entryDy=0;exitX=0.5;exitY=0;exitDx=0;exitDy=0;" parent="1" source="sz4MWv2wYnxlTZQtVzCK-51" target="sz4MWv2wYnxlTZQtVzCK-33" edge="1">
          <mxGeometry relative="1" as="geometry">
            <mxPoint x="2970" y="-610" as="sourcePoint" />
            <mxPoint x="2950" y="-730" as="targetPoint" />
          </mxGeometry>
        </mxCell>
        <mxCell id="sz4MWv2wYnxlTZQtVzCK-54" value="" style="endArrow=none;html=1;rounded=0;entryX=0.5;entryY=1;entryDx=0;entryDy=0;exitX=0.5;exitY=0;exitDx=0;exitDy=0;" parent="1" source="sz4MWv2wYnxlTZQtVzCK-52" target="sz4MWv2wYnxlTZQtVzCK-33" edge="1">
          <mxGeometry relative="1" as="geometry">
            <mxPoint x="2990" y="-540" as="sourcePoint" />
            <mxPoint x="2970" y="-660" as="targetPoint" />
          </mxGeometry>
        </mxCell>
        <mxCell id="sz4MWv2wYnxlTZQtVzCK-55" value="Profile" style="whiteSpace=wrap;html=1;align=center;" parent="1" vertex="1">
          <mxGeometry x="3100" y="-630" width="100" height="40" as="geometry" />
        </mxCell>
        <mxCell id="sz4MWv2wYnxlTZQtVzCK-56" value="Calendar" style="whiteSpace=wrap;html=1;align=center;" parent="1" vertex="1">
          <mxGeometry x="3340" y="-630" width="100" height="40" as="geometry" />
        </mxCell>
        <mxCell id="sz4MWv2wYnxlTZQtVzCK-57" value="Statistics" style="whiteSpace=wrap;html=1;align=center;" parent="1" vertex="1">
          <mxGeometry x="3220" y="-630" width="100" height="40" as="geometry" />
        </mxCell>
        <mxCell id="sz4MWv2wYnxlTZQtVzCK-58" value="YourActivities" style="whiteSpace=wrap;html=1;align=center;" parent="1" vertex="1">
          <mxGeometry x="3460" y="-630" width="100" height="40" as="geometry" />
        </mxCell>
        <mxCell id="sz4MWv2wYnxlTZQtVzCK-59" value="" style="endArrow=none;html=1;rounded=0;entryX=0.5;entryY=1;entryDx=0;entryDy=0;exitX=0.5;exitY=0;exitDx=0;exitDy=0;" parent="1" source="sz4MWv2wYnxlTZQtVzCK-55" target="sz4MWv2wYnxlTZQtVzCK-34" edge="1">
          <mxGeometry relative="1" as="geometry">
            <mxPoint x="3273" y="-670" as="sourcePoint" />
            <mxPoint x="3180" y="-710" as="targetPoint" />
          </mxGeometry>
        </mxCell>
        <mxCell id="sz4MWv2wYnxlTZQtVzCK-60" value="" style="endArrow=none;html=1;rounded=0;entryX=0.5;entryY=1;entryDx=0;entryDy=0;exitX=0.5;exitY=0;exitDx=0;exitDy=0;" parent="1" source="sz4MWv2wYnxlTZQtVzCK-57" target="sz4MWv2wYnxlTZQtVzCK-34" edge="1">
          <mxGeometry relative="1" as="geometry">
            <mxPoint x="3313" y="-650" as="sourcePoint" />
            <mxPoint x="3220" y="-690" as="targetPoint" />
          </mxGeometry>
        </mxCell>
        <mxCell id="sz4MWv2wYnxlTZQtVzCK-61" value="" style="endArrow=none;html=1;rounded=0;entryX=0.5;entryY=1;entryDx=0;entryDy=0;exitX=0.5;exitY=0;exitDx=0;exitDy=0;" parent="1" source="sz4MWv2wYnxlTZQtVzCK-56" target="sz4MWv2wYnxlTZQtVzCK-34" edge="1">
          <mxGeometry relative="1" as="geometry">
            <mxPoint x="3413" y="-650" as="sourcePoint" />
            <mxPoint x="3320" y="-690" as="targetPoint" />
          </mxGeometry>
        </mxCell>
        <mxCell id="sz4MWv2wYnxlTZQtVzCK-62" value="" style="endArrow=none;html=1;rounded=0;entryX=0.5;entryY=1;entryDx=0;entryDy=0;exitX=0.5;exitY=0;exitDx=0;exitDy=0;" parent="1" source="sz4MWv2wYnxlTZQtVzCK-58" target="sz4MWv2wYnxlTZQtVzCK-34" edge="1">
          <mxGeometry relative="1" as="geometry">
            <mxPoint x="3593" y="-660" as="sourcePoint" />
            <mxPoint x="3500" y="-700" as="targetPoint" />
          </mxGeometry>
        </mxCell>
        <mxCell id="sz4MWv2wYnxlTZQtVzCK-63" value="SideBar" style="whiteSpace=wrap;html=1;align=center;" parent="1" vertex="1">
          <mxGeometry x="3220" y="-530" width="100" height="40" as="geometry" />
        </mxCell>
        <mxCell id="sz4MWv2wYnxlTZQtVzCK-64" value="" style="endArrow=none;html=1;rounded=0;entryX=0.5;entryY=1;entryDx=0;entryDy=0;exitX=0.5;exitY=0;exitDx=0;exitDy=0;" parent="1" source="sz4MWv2wYnxlTZQtVzCK-63" target="sz4MWv2wYnxlTZQtVzCK-57" edge="1">
          <mxGeometry relative="1" as="geometry">
            <mxPoint x="3410" y="-430" as="sourcePoint" />
            <mxPoint x="3380" y="-550" as="targetPoint" />
          </mxGeometry>
        </mxCell>
        <mxCell id="sz4MWv2wYnxlTZQtVzCK-65" value="" style="endArrow=none;html=1;rounded=0;entryX=0.5;entryY=1;entryDx=0;entryDy=0;exitX=0.5;exitY=0;exitDx=0;exitDy=0;" parent="1" source="sz4MWv2wYnxlTZQtVzCK-63" target="sz4MWv2wYnxlTZQtVzCK-56" edge="1">
          <mxGeometry relative="1" as="geometry">
            <mxPoint x="3500" y="-400" as="sourcePoint" />
            <mxPoint x="3470" y="-520" as="targetPoint" />
          </mxGeometry>
        </mxCell>
        <mxCell id="sz4MWv2wYnxlTZQtVzCK-66" value="" style="endArrow=none;html=1;rounded=0;entryX=0.5;entryY=1;entryDx=0;entryDy=0;exitX=0.5;exitY=0;exitDx=0;exitDy=0;" parent="1" source="sz4MWv2wYnxlTZQtVzCK-63" target="sz4MWv2wYnxlTZQtVzCK-58" edge="1">
          <mxGeometry relative="1" as="geometry">
            <mxPoint x="3520" y="-400" as="sourcePoint" />
            <mxPoint x="3490" y="-520" as="targetPoint" />
          </mxGeometry>
        </mxCell>
        <mxCell id="sz4MWv2wYnxlTZQtVzCK-67" value="" style="endArrow=none;html=1;rounded=0;entryX=1;entryY=0.5;entryDx=0;entryDy=0;exitX=0;exitY=0.5;exitDx=0;exitDy=0;" parent="1" source="sz4MWv2wYnxlTZQtVzCK-68" target="sz4MWv2wYnxlTZQtVzCK-34" edge="1">
          <mxGeometry relative="1" as="geometry">
            <mxPoint x="3440" y="-620" as="sourcePoint" />
            <mxPoint x="3410" y="-740" as="targetPoint" />
          </mxGeometry>
        </mxCell>
        <mxCell id="sz4MWv2wYnxlTZQtVzCK-68" value="OptionBar" style="whiteSpace=wrap;html=1;align=center;" parent="1" vertex="1">
          <mxGeometry x="3480" y="-720" width="100" height="40" as="geometry" />
        </mxCell>
        <mxCell id="sz4MWv2wYnxlTZQtVzCK-70" value="" style="endArrow=none;html=1;rounded=0;entryX=1;entryY=0.5;entryDx=0;entryDy=0;exitX=0;exitY=0.5;exitDx=0;exitDy=0;" parent="1" source="sz4MWv2wYnxlTZQtVzCK-35" target="sz4MWv2wYnxlTZQtVzCK-68" edge="1">
          <mxGeometry relative="1" as="geometry">
            <mxPoint x="3650" y="-690" as="sourcePoint" />
            <mxPoint x="3460" y="-760" as="targetPoint" />
          </mxGeometry>
        </mxCell>
        <mxCell id="sz4MWv2wYnxlTZQtVzCK-71" value="Profile" style="whiteSpace=wrap;html=1;align=center;" parent="1" vertex="1">
          <mxGeometry x="3640" y="-630" width="100" height="40" as="geometry" />
        </mxCell>
        <mxCell id="sz4MWv2wYnxlTZQtVzCK-72" value="Interface" style="whiteSpace=wrap;html=1;align=center;" parent="1" vertex="1">
          <mxGeometry x="3770" y="-630" width="100" height="40" as="geometry" />
        </mxCell>
        <mxCell id="sz4MWv2wYnxlTZQtVzCK-73" value="" style="endArrow=none;html=1;rounded=0;entryX=0.5;entryY=0;entryDx=0;entryDy=0;exitX=0.5;exitY=1;exitDx=0;exitDy=0;" parent="1" source="sz4MWv2wYnxlTZQtVzCK-35" target="sz4MWv2wYnxlTZQtVzCK-71" edge="1">
          <mxGeometry relative="1" as="geometry">
            <mxPoint x="3751" y="-720" as="sourcePoint" />
            <mxPoint x="3690" y="-650" as="targetPoint" />
          </mxGeometry>
        </mxCell>
        <mxCell id="sz4MWv2wYnxlTZQtVzCK-74" value="" style="endArrow=none;html=1;rounded=0;entryX=0.5;entryY=0;entryDx=0;entryDy=0;exitX=0.5;exitY=1;exitDx=0;exitDy=0;" parent="1" source="sz4MWv2wYnxlTZQtVzCK-35" target="sz4MWv2wYnxlTZQtVzCK-72" edge="1">
          <mxGeometry relative="1" as="geometry">
            <mxPoint x="3861" y="-690" as="sourcePoint" />
            <mxPoint x="3800" y="-620" as="targetPoint" />
          </mxGeometry>
        </mxCell>
        <mxCell id="ILnLCXTBZFMxgUNTT8F8-1" value="" style="swimlane;startSize=0;" vertex="1" parent="1">
          <mxGeometry y="1450" width="830" height="560" as="geometry" />
        </mxCell>
        <mxCell id="ILnLCXTBZFMxgUNTT8F8-2" value="" style="rounded=0;whiteSpace=wrap;html=1;" vertex="1" parent="ILnLCXTBZFMxgUNTT8F8-1">
          <mxGeometry width="830" height="80" as="geometry" />
        </mxCell>
        <mxCell id="ILnLCXTBZFMxgUNTT8F8-3" value="Library" style="text;html=1;align=center;verticalAlign=middle;whiteSpace=wrap;rounded=0;fillColor=#f8cecc;labelBackgroundColor=none;strokeColor=#b85450;" vertex="1" parent="ILnLCXTBZFMxgUNTT8F8-1">
          <mxGeometry x="10" y="25" width="60" height="30" as="geometry" />
        </mxCell>
        <mxCell id="ILnLCXTBZFMxgUNTT8F8-4" value="Market" style="text;html=1;align=center;verticalAlign=middle;whiteSpace=wrap;rounded=0;" vertex="1" parent="ILnLCXTBZFMxgUNTT8F8-1">
          <mxGeometry x="100" y="25" width="60" height="30" as="geometry" />
        </mxCell>
        <mxCell id="ILnLCXTBZFMxgUNTT8F8-5" value="Profile" style="text;html=1;align=center;verticalAlign=middle;whiteSpace=wrap;rounded=0;" vertex="1" parent="ILnLCXTBZFMxgUNTT8F8-1">
          <mxGeometry x="190" y="25" width="60" height="30" as="geometry" />
        </mxCell>
        <mxCell id="ILnLCXTBZFMxgUNTT8F8-6" value="Settings" style="text;html=1;align=center;verticalAlign=middle;whiteSpace=wrap;rounded=0;" vertex="1" parent="ILnLCXTBZFMxgUNTT8F8-1">
          <mxGeometry x="280" y="25" width="60" height="30" as="geometry" />
        </mxCell>
        <mxCell id="ILnLCXTBZFMxgUNTT8F8-7" value="" style="rounded=0;whiteSpace=wrap;html=1;" vertex="1" parent="ILnLCXTBZFMxgUNTT8F8-1">
          <mxGeometry y="80" width="120" height="480" as="geometry" />
        </mxCell>
        <mxCell id="ILnLCXTBZFMxgUNTT8F8-8" value="Group" style="text;html=1;align=center;verticalAlign=middle;whiteSpace=wrap;rounded=0;" vertex="1" parent="ILnLCXTBZFMxgUNTT8F8-1">
          <mxGeometry y="80" width="83" height="30" as="geometry" />
        </mxCell>
        <mxCell id="ILnLCXTBZFMxgUNTT8F8-9" value="Activity" style="text;html=1;align=center;verticalAlign=middle;whiteSpace=wrap;rounded=0;fillColor=#f8cecc;strokeColor=#b85450;" vertex="1" parent="ILnLCXTBZFMxgUNTT8F8-1">
          <mxGeometry x="23" y="110" width="60" height="30" as="geometry" />
        </mxCell>
        <mxCell id="ILnLCXTBZFMxgUNTT8F8-10" value="Activity" style="text;html=1;align=center;verticalAlign=middle;whiteSpace=wrap;rounded=0;" vertex="1" parent="ILnLCXTBZFMxgUNTT8F8-1">
          <mxGeometry x="23" y="140" width="60" height="30" as="geometry" />
        </mxCell>
        <mxCell id="ILnLCXTBZFMxgUNTT8F8-11" value="Activity" style="text;html=1;align=center;verticalAlign=middle;whiteSpace=wrap;rounded=0;" vertex="1" parent="ILnLCXTBZFMxgUNTT8F8-1">
          <mxGeometry x="23" y="170" width="60" height="30" as="geometry" />
        </mxCell>
        <mxCell id="ILnLCXTBZFMxgUNTT8F8-12" value="Activity" style="text;html=1;align=center;verticalAlign=middle;whiteSpace=wrap;rounded=0;" vertex="1" parent="ILnLCXTBZFMxgUNTT8F8-1">
          <mxGeometry x="23" y="200" width="60" height="30" as="geometry" />
        </mxCell>
        <mxCell id="ILnLCXTBZFMxgUNTT8F8-13" value="" style="rounded=0;whiteSpace=wrap;html=1;fillColor=#f5f5f5;fontColor=#333333;strokeColor=#666666;" vertex="1" parent="ILnLCXTBZFMxgUNTT8F8-1">
          <mxGeometry x="120" y="80" width="710" height="480" as="geometry" />
        </mxCell>
        <mxCell id="ILnLCXTBZFMxgUNTT8F8-14" value="" style="rounded=0;whiteSpace=wrap;html=1;fillColor=#fff2cc;strokeColor=#d6b656;" vertex="1" parent="ILnLCXTBZFMxgUNTT8F8-1">
          <mxGeometry x="120" y="80" width="710" height="90" as="geometry" />
        </mxCell>
        <mxCell id="ILnLCXTBZFMxgUNTT8F8-15" value="Name" style="text;html=1;align=center;verticalAlign=middle;whiteSpace=wrap;rounded=0;" vertex="1" parent="ILnLCXTBZFMxgUNTT8F8-1">
          <mxGeometry x="423" y="90" width="60" height="30" as="geometry" />
        </mxCell>
        <mxCell id="ILnLCXTBZFMxgUNTT8F8-16" value="Picture" style="rounded=0;whiteSpace=wrap;html=1;" vertex="1" parent="ILnLCXTBZFMxgUNTT8F8-1">
          <mxGeometry x="130" y="90" width="70" height="60" as="geometry" />
        </mxCell>
        <mxCell id="ILnLCXTBZFMxgUNTT8F8-17" value="Achievements" style="text;html=1;align=center;verticalAlign=middle;whiteSpace=wrap;rounded=0;strokeColor=default;" vertex="1" parent="ILnLCXTBZFMxgUNTT8F8-1">
          <mxGeometry x="233" y="140" width="87" height="30" as="geometry" />
        </mxCell>
        <mxCell id="ILnLCXTBZFMxgUNTT8F8-18" value="Session" style="text;html=1;align=center;verticalAlign=middle;whiteSpace=wrap;rounded=0;strokeColor=#b85450;fillColor=#f8cecc;" vertex="1" parent="ILnLCXTBZFMxgUNTT8F8-1">
          <mxGeometry x="329" y="140" width="87" height="30" as="geometry" />
        </mxCell>
        <mxCell id="ILnLCXTBZFMxgUNTT8F8-19" value="Settings" style="text;html=1;align=center;verticalAlign=middle;whiteSpace=wrap;rounded=0;strokeColor=default;" vertex="1" parent="ILnLCXTBZFMxgUNTT8F8-1">
          <mxGeometry x="426.5" y="140" width="87" height="30" as="geometry" />
        </mxCell>
        <mxCell id="ILnLCXTBZFMxgUNTT8F8-20" value="Add new" style="text;html=1;align=center;verticalAlign=middle;whiteSpace=wrap;rounded=0;" vertex="1" parent="ILnLCXTBZFMxgUNTT8F8-1">
          <mxGeometry y="530" width="120" height="30" as="geometry" />
        </mxCell>
        <mxCell id="ILnLCXTBZFMxgUNTT8F8-21" value="" style="rounded=0;whiteSpace=wrap;html=1;fillColor=#d5e8d4;strokeColor=#82b366;" vertex="1" parent="ILnLCXTBZFMxgUNTT8F8-1">
          <mxGeometry x="329" y="185" width="270" height="255" as="geometry" />
        </mxCell>
        <mxCell id="ILnLCXTBZFMxgUNTT8F8-23" value="00:00:00" style="text;html=1;align=center;verticalAlign=middle;whiteSpace=wrap;rounded=0;" vertex="1" parent="ILnLCXTBZFMxgUNTT8F8-1">
          <mxGeometry x="359" y="200" width="200" height="30" as="geometry" />
        </mxCell>
        <mxCell id="ILnLCXTBZFMxgUNTT8F8-27" value="Comments on session" style="text;html=1;align=center;verticalAlign=middle;whiteSpace=wrap;rounded=0;strokeColor=default;" vertex="1" parent="ILnLCXTBZFMxgUNTT8F8-1">
          <mxGeometry x="340" y="262.5" width="240" height="60" as="geometry" />
        </mxCell>
        <mxCell id="ILnLCXTBZFMxgUNTT8F8-138" value="Start" style="text;html=1;align=center;verticalAlign=middle;whiteSpace=wrap;rounded=0;strokeColor=default;" vertex="1" parent="ILnLCXTBZFMxgUNTT8F8-1">
          <mxGeometry x="358.5" y="230" width="68" height="20" as="geometry" />
        </mxCell>
        <mxCell id="ILnLCXTBZFMxgUNTT8F8-140" value="Stop" style="text;html=1;align=center;verticalAlign=middle;whiteSpace=wrap;rounded=0;strokeColor=default;" vertex="1" parent="ILnLCXTBZFMxgUNTT8F8-1">
          <mxGeometry x="426.5" y="230" width="68" height="20" as="geometry" />
        </mxCell>
        <mxCell id="ILnLCXTBZFMxgUNTT8F8-139" value="Restart" style="text;html=1;align=center;verticalAlign=middle;whiteSpace=wrap;rounded=0;strokeColor=default;" vertex="1" parent="ILnLCXTBZFMxgUNTT8F8-1">
          <mxGeometry x="494.5" y="230" width="68" height="20" as="geometry" />
        </mxCell>
        <mxCell id="ILnLCXTBZFMxgUNTT8F8-141" value="Add note" style="text;html=1;align=center;verticalAlign=middle;whiteSpace=wrap;rounded=0;strokeColor=default;" vertex="1" parent="ILnLCXTBZFMxgUNTT8F8-1">
          <mxGeometry x="512" y="322.5" width="68" height="20" as="geometry" />
        </mxCell>
        <mxCell id="ILnLCXTBZFMxgUNTT8F8-142" value="Add session" style="text;html=1;align=center;verticalAlign=middle;whiteSpace=wrap;rounded=0;strokeColor=default;" vertex="1" parent="ILnLCXTBZFMxgUNTT8F8-1">
          <mxGeometry x="426" y="410" width="68" height="20" as="geometry" />
        </mxCell>
        <mxCell id="ILnLCXTBZFMxgUNTT8F8-227" value="Cancel" style="text;html=1;align=center;verticalAlign=middle;whiteSpace=wrap;rounded=0;strokeColor=default;" vertex="1" parent="ILnLCXTBZFMxgUNTT8F8-1">
          <mxGeometry x="340" y="410" width="68" height="20" as="geometry" />
        </mxCell>
        <mxCell id="ILnLCXTBZFMxgUNTT8F8-29" value="" style="swimlane;startSize=0;" vertex="1" parent="1">
          <mxGeometry x="-3" y="2100" width="830" height="560" as="geometry" />
        </mxCell>
        <mxCell id="ILnLCXTBZFMxgUNTT8F8-30" value="" style="rounded=0;whiteSpace=wrap;html=1;" vertex="1" parent="ILnLCXTBZFMxgUNTT8F8-29">
          <mxGeometry width="830" height="80" as="geometry" />
        </mxCell>
        <mxCell id="ILnLCXTBZFMxgUNTT8F8-31" value="Library" style="text;html=1;align=center;verticalAlign=middle;whiteSpace=wrap;rounded=0;fillColor=#f8cecc;labelBackgroundColor=none;strokeColor=#b85450;" vertex="1" parent="ILnLCXTBZFMxgUNTT8F8-29">
          <mxGeometry x="10" y="25" width="60" height="30" as="geometry" />
        </mxCell>
        <mxCell id="ILnLCXTBZFMxgUNTT8F8-32" value="Market" style="text;html=1;align=center;verticalAlign=middle;whiteSpace=wrap;rounded=0;" vertex="1" parent="ILnLCXTBZFMxgUNTT8F8-29">
          <mxGeometry x="100" y="25" width="60" height="30" as="geometry" />
        </mxCell>
        <mxCell id="ILnLCXTBZFMxgUNTT8F8-33" value="Profile" style="text;html=1;align=center;verticalAlign=middle;whiteSpace=wrap;rounded=0;" vertex="1" parent="ILnLCXTBZFMxgUNTT8F8-29">
          <mxGeometry x="190" y="25" width="60" height="30" as="geometry" />
        </mxCell>
        <mxCell id="ILnLCXTBZFMxgUNTT8F8-34" value="Settings" style="text;html=1;align=center;verticalAlign=middle;whiteSpace=wrap;rounded=0;" vertex="1" parent="ILnLCXTBZFMxgUNTT8F8-29">
          <mxGeometry x="280" y="25" width="60" height="30" as="geometry" />
        </mxCell>
        <mxCell id="ILnLCXTBZFMxgUNTT8F8-35" value="" style="rounded=0;whiteSpace=wrap;html=1;" vertex="1" parent="ILnLCXTBZFMxgUNTT8F8-29">
          <mxGeometry y="80" width="120" height="480" as="geometry" />
        </mxCell>
        <mxCell id="ILnLCXTBZFMxgUNTT8F8-36" value="Group" style="text;html=1;align=center;verticalAlign=middle;whiteSpace=wrap;rounded=0;" vertex="1" parent="ILnLCXTBZFMxgUNTT8F8-29">
          <mxGeometry y="80" width="83" height="30" as="geometry" />
        </mxCell>
        <mxCell id="ILnLCXTBZFMxgUNTT8F8-37" value="Activity" style="text;html=1;align=center;verticalAlign=middle;whiteSpace=wrap;rounded=0;fillColor=#f8cecc;strokeColor=#b85450;" vertex="1" parent="ILnLCXTBZFMxgUNTT8F8-29">
          <mxGeometry x="23" y="110" width="60" height="30" as="geometry" />
        </mxCell>
        <mxCell id="ILnLCXTBZFMxgUNTT8F8-38" value="Activity" style="text;html=1;align=center;verticalAlign=middle;whiteSpace=wrap;rounded=0;" vertex="1" parent="ILnLCXTBZFMxgUNTT8F8-29">
          <mxGeometry x="23" y="140" width="60" height="30" as="geometry" />
        </mxCell>
        <mxCell id="ILnLCXTBZFMxgUNTT8F8-39" value="Activity" style="text;html=1;align=center;verticalAlign=middle;whiteSpace=wrap;rounded=0;" vertex="1" parent="ILnLCXTBZFMxgUNTT8F8-29">
          <mxGeometry x="23" y="170" width="60" height="30" as="geometry" />
        </mxCell>
        <mxCell id="ILnLCXTBZFMxgUNTT8F8-40" value="Activity" style="text;html=1;align=center;verticalAlign=middle;whiteSpace=wrap;rounded=0;" vertex="1" parent="ILnLCXTBZFMxgUNTT8F8-29">
          <mxGeometry x="23" y="200" width="60" height="30" as="geometry" />
        </mxCell>
        <mxCell id="ILnLCXTBZFMxgUNTT8F8-41" value="" style="rounded=0;whiteSpace=wrap;html=1;fillColor=#f5f5f5;fontColor=#333333;strokeColor=#666666;" vertex="1" parent="ILnLCXTBZFMxgUNTT8F8-29">
          <mxGeometry x="120" y="80" width="710" height="480" as="geometry" />
        </mxCell>
        <mxCell id="ILnLCXTBZFMxgUNTT8F8-42" value="" style="rounded=0;whiteSpace=wrap;html=1;fillColor=#fff2cc;strokeColor=#d6b656;" vertex="1" parent="ILnLCXTBZFMxgUNTT8F8-29">
          <mxGeometry x="120" y="80" width="710" height="90" as="geometry" />
        </mxCell>
        <mxCell id="ILnLCXTBZFMxgUNTT8F8-43" value="Name" style="text;html=1;align=center;verticalAlign=middle;whiteSpace=wrap;rounded=0;" vertex="1" parent="ILnLCXTBZFMxgUNTT8F8-29">
          <mxGeometry x="423" y="90" width="60" height="30" as="geometry" />
        </mxCell>
        <mxCell id="ILnLCXTBZFMxgUNTT8F8-44" value="Picture" style="rounded=0;whiteSpace=wrap;html=1;" vertex="1" parent="ILnLCXTBZFMxgUNTT8F8-29">
          <mxGeometry x="130" y="90" width="70" height="60" as="geometry" />
        </mxCell>
        <mxCell id="ILnLCXTBZFMxgUNTT8F8-45" value="Achievements" style="text;html=1;align=center;verticalAlign=middle;whiteSpace=wrap;rounded=0;strokeColor=default;" vertex="1" parent="ILnLCXTBZFMxgUNTT8F8-29">
          <mxGeometry x="233" y="140" width="87" height="30" as="geometry" />
        </mxCell>
        <mxCell id="ILnLCXTBZFMxgUNTT8F8-46" value="Session" style="text;html=1;align=center;verticalAlign=middle;whiteSpace=wrap;rounded=0;strokeColor=#b85450;fillColor=#f8cecc;" vertex="1" parent="ILnLCXTBZFMxgUNTT8F8-29">
          <mxGeometry x="329" y="140" width="87" height="30" as="geometry" />
        </mxCell>
        <mxCell id="ILnLCXTBZFMxgUNTT8F8-47" value="Settings" style="text;html=1;align=center;verticalAlign=middle;whiteSpace=wrap;rounded=0;strokeColor=default;" vertex="1" parent="ILnLCXTBZFMxgUNTT8F8-29">
          <mxGeometry x="426.5" y="140" width="87" height="30" as="geometry" />
        </mxCell>
        <mxCell id="ILnLCXTBZFMxgUNTT8F8-48" value="Add new" style="text;html=1;align=center;verticalAlign=middle;whiteSpace=wrap;rounded=0;" vertex="1" parent="ILnLCXTBZFMxgUNTT8F8-29">
          <mxGeometry y="530" width="120" height="30" as="geometry" />
        </mxCell>
        <mxCell id="ILnLCXTBZFMxgUNTT8F8-50" value="" style="rounded=0;whiteSpace=wrap;html=1;fillColor=#d5e8d4;strokeColor=#82b366;" vertex="1" parent="ILnLCXTBZFMxgUNTT8F8-29">
          <mxGeometry x="335" y="212.5" width="270" height="257.5" as="geometry" />
        </mxCell>
        <mxCell id="ILnLCXTBZFMxgUNTT8F8-146" value="Comments on session" style="text;html=1;align=center;verticalAlign=middle;whiteSpace=wrap;rounded=0;strokeColor=default;" vertex="1" parent="ILnLCXTBZFMxgUNTT8F8-29">
          <mxGeometry x="350" y="300" width="240" height="60" as="geometry" />
        </mxCell>
        <mxCell id="ILnLCXTBZFMxgUNTT8F8-147" value="Add note" style="text;html=1;align=center;verticalAlign=middle;whiteSpace=wrap;rounded=0;strokeColor=default;" vertex="1" parent="ILnLCXTBZFMxgUNTT8F8-29">
          <mxGeometry x="522" y="360" width="68" height="20" as="geometry" />
        </mxCell>
        <mxCell id="ILnLCXTBZFMxgUNTT8F8-148" value="Add session" style="text;html=1;align=center;verticalAlign=middle;whiteSpace=wrap;rounded=0;strokeColor=default;" vertex="1" parent="ILnLCXTBZFMxgUNTT8F8-29">
          <mxGeometry x="436" y="447.5" width="68" height="20" as="geometry" />
        </mxCell>
        <mxCell id="ILnLCXTBZFMxgUNTT8F8-149" value="Added notes" style="text;html=1;align=center;verticalAlign=middle;whiteSpace=wrap;rounded=0;strokeColor=default;" vertex="1" parent="ILnLCXTBZFMxgUNTT8F8-29">
          <mxGeometry x="350" y="387.5" width="240" height="30" as="geometry" />
        </mxCell>
        <mxCell id="ILnLCXTBZFMxgUNTT8F8-152" value="" style="text;html=1;align=center;verticalAlign=middle;whiteSpace=wrap;rounded=0;strokeColor=default;" vertex="1" parent="ILnLCXTBZFMxgUNTT8F8-29">
          <mxGeometry x="410" y="230" width="170" height="20" as="geometry" />
        </mxCell>
        <mxCell id="ILnLCXTBZFMxgUNTT8F8-153" value="" style="text;html=1;align=center;verticalAlign=middle;whiteSpace=wrap;rounded=0;strokeColor=default;" vertex="1" parent="ILnLCXTBZFMxgUNTT8F8-29">
          <mxGeometry x="410" y="250" width="170" height="20" as="geometry" />
        </mxCell>
        <mxCell id="ILnLCXTBZFMxgUNTT8F8-254" value="Cancel" style="text;html=1;align=center;verticalAlign=middle;whiteSpace=wrap;rounded=0;strokeColor=default;" vertex="1" parent="ILnLCXTBZFMxgUNTT8F8-29">
          <mxGeometry x="348" y="447.5" width="68" height="20" as="geometry" />
        </mxCell>
        <mxCell id="ILnLCXTBZFMxgUNTT8F8-97" value="" style="endArrow=none;html=1;rounded=0;entryX=1;entryY=0;entryDx=0;entryDy=0;movable=1;resizable=1;rotatable=1;deletable=1;editable=1;locked=0;connectable=1;" edge="1" parent="1" target="ILnLCXTBZFMxgUNTT8F8-91">
          <mxGeometry width="50" height="50" relative="1" as="geometry">
            <mxPoint x="660" y="1040" as="sourcePoint" />
            <mxPoint x="680" y="1010" as="targetPoint" />
          </mxGeometry>
        </mxCell>
        <mxCell id="ILnLCXTBZFMxgUNTT8F8-132" value="Notes(expand)" style="text;html=1;align=center;verticalAlign=middle;whiteSpace=wrap;rounded=0;strokeColor=default;" vertex="1" parent="1">
          <mxGeometry x="390" y="1050" width="68" height="20" as="geometry" />
        </mxCell>
        <mxCell id="ILnLCXTBZFMxgUNTT8F8-136" value="Timer" style="text;html=1;align=center;verticalAlign=middle;whiteSpace=wrap;rounded=0;strokeColor=#b85450;fillColor=#f8cecc;" vertex="1" parent="1">
          <mxGeometry x="130" y="1630" width="60" height="20" as="geometry" />
        </mxCell>
        <mxCell id="ILnLCXTBZFMxgUNTT8F8-137" value="Input" style="text;html=1;align=center;verticalAlign=middle;whiteSpace=wrap;rounded=0;strokeColor=default;" vertex="1" parent="1">
          <mxGeometry x="190" y="1630" width="68" height="20" as="geometry" />
        </mxCell>
        <mxCell id="ILnLCXTBZFMxgUNTT8F8-143" value="Added notes" style="text;html=1;align=center;verticalAlign=middle;whiteSpace=wrap;rounded=0;strokeColor=default;" vertex="1" parent="1">
          <mxGeometry x="340" y="1800" width="240" height="30" as="geometry" />
        </mxCell>
        <mxCell id="ILnLCXTBZFMxgUNTT8F8-144" value="Timer" style="text;html=1;align=center;verticalAlign=middle;whiteSpace=wrap;rounded=0;strokeColor=default;" vertex="1" parent="1">
          <mxGeometry x="127" y="2280" width="60" height="20" as="geometry" />
        </mxCell>
        <mxCell id="ILnLCXTBZFMxgUNTT8F8-145" value="Input" style="text;html=1;align=center;verticalAlign=middle;whiteSpace=wrap;rounded=0;strokeColor=default;fillColor=light-dark(#000000,#512D2B);" vertex="1" parent="1">
          <mxGeometry x="187" y="2280" width="68" height="20" as="geometry" />
        </mxCell>
        <mxCell id="ILnLCXTBZFMxgUNTT8F8-150" value="Start:" style="text;html=1;align=center;verticalAlign=middle;whiteSpace=wrap;rounded=0;strokeColor=default;" vertex="1" parent="1">
          <mxGeometry x="347" y="2330" width="60" height="20" as="geometry" />
        </mxCell>
        <mxCell id="ILnLCXTBZFMxgUNTT8F8-151" value="Finish:" style="text;html=1;align=center;verticalAlign=middle;whiteSpace=wrap;rounded=0;strokeColor=default;" vertex="1" parent="1">
          <mxGeometry x="347" y="2350" width="60" height="20" as="geometry" />
        </mxCell>
        <mxCell id="ILnLCXTBZFMxgUNTT8F8-154" value="" style="swimlane;startSize=0;" vertex="1" parent="1">
          <mxGeometry x="-10" y="2740" width="830" height="560" as="geometry" />
        </mxCell>
        <mxCell id="ILnLCXTBZFMxgUNTT8F8-155" value="" style="rounded=0;whiteSpace=wrap;html=1;" vertex="1" parent="ILnLCXTBZFMxgUNTT8F8-154">
          <mxGeometry width="830" height="80" as="geometry" />
        </mxCell>
        <mxCell id="ILnLCXTBZFMxgUNTT8F8-156" value="Library" style="text;html=1;align=center;verticalAlign=middle;whiteSpace=wrap;rounded=0;fillColor=#f8cecc;labelBackgroundColor=none;strokeColor=#b85450;" vertex="1" parent="ILnLCXTBZFMxgUNTT8F8-154">
          <mxGeometry x="10" y="25" width="60" height="30" as="geometry" />
        </mxCell>
        <mxCell id="ILnLCXTBZFMxgUNTT8F8-157" value="Market" style="text;html=1;align=center;verticalAlign=middle;whiteSpace=wrap;rounded=0;" vertex="1" parent="ILnLCXTBZFMxgUNTT8F8-154">
          <mxGeometry x="100" y="25" width="60" height="30" as="geometry" />
        </mxCell>
        <mxCell id="ILnLCXTBZFMxgUNTT8F8-158" value="Profile" style="text;html=1;align=center;verticalAlign=middle;whiteSpace=wrap;rounded=0;" vertex="1" parent="ILnLCXTBZFMxgUNTT8F8-154">
          <mxGeometry x="190" y="25" width="60" height="30" as="geometry" />
        </mxCell>
        <mxCell id="ILnLCXTBZFMxgUNTT8F8-159" value="Settings" style="text;html=1;align=center;verticalAlign=middle;whiteSpace=wrap;rounded=0;" vertex="1" parent="ILnLCXTBZFMxgUNTT8F8-154">
          <mxGeometry x="280" y="25" width="60" height="30" as="geometry" />
        </mxCell>
        <mxCell id="ILnLCXTBZFMxgUNTT8F8-160" value="" style="rounded=0;whiteSpace=wrap;html=1;" vertex="1" parent="ILnLCXTBZFMxgUNTT8F8-154">
          <mxGeometry y="80" width="120" height="480" as="geometry" />
        </mxCell>
        <mxCell id="ILnLCXTBZFMxgUNTT8F8-161" value="Group" style="text;html=1;align=center;verticalAlign=middle;whiteSpace=wrap;rounded=0;" vertex="1" parent="ILnLCXTBZFMxgUNTT8F8-154">
          <mxGeometry y="80" width="83" height="30" as="geometry" />
        </mxCell>
        <mxCell id="ILnLCXTBZFMxgUNTT8F8-162" value="Activity" style="text;html=1;align=center;verticalAlign=middle;whiteSpace=wrap;rounded=0;fillColor=#f8cecc;strokeColor=#b85450;" vertex="1" parent="ILnLCXTBZFMxgUNTT8F8-154">
          <mxGeometry x="23" y="110" width="60" height="30" as="geometry" />
        </mxCell>
        <mxCell id="ILnLCXTBZFMxgUNTT8F8-163" value="Activity" style="text;html=1;align=center;verticalAlign=middle;whiteSpace=wrap;rounded=0;" vertex="1" parent="ILnLCXTBZFMxgUNTT8F8-154">
          <mxGeometry x="23" y="140" width="60" height="30" as="geometry" />
        </mxCell>
        <mxCell id="ILnLCXTBZFMxgUNTT8F8-164" value="Activity" style="text;html=1;align=center;verticalAlign=middle;whiteSpace=wrap;rounded=0;" vertex="1" parent="ILnLCXTBZFMxgUNTT8F8-154">
          <mxGeometry x="23" y="170" width="60" height="30" as="geometry" />
        </mxCell>
        <mxCell id="ILnLCXTBZFMxgUNTT8F8-165" value="Activity" style="text;html=1;align=center;verticalAlign=middle;whiteSpace=wrap;rounded=0;" vertex="1" parent="ILnLCXTBZFMxgUNTT8F8-154">
          <mxGeometry x="23" y="200" width="60" height="30" as="geometry" />
        </mxCell>
        <mxCell id="ILnLCXTBZFMxgUNTT8F8-166" value="" style="rounded=0;whiteSpace=wrap;html=1;fillColor=#f5f5f5;fontColor=#333333;strokeColor=#666666;" vertex="1" parent="ILnLCXTBZFMxgUNTT8F8-154">
          <mxGeometry x="120" y="80" width="710" height="480" as="geometry" />
        </mxCell>
        <mxCell id="ILnLCXTBZFMxgUNTT8F8-167" value="" style="rounded=0;whiteSpace=wrap;html=1;fillColor=#fff2cc;strokeColor=#d6b656;" vertex="1" parent="ILnLCXTBZFMxgUNTT8F8-154">
          <mxGeometry x="120" y="80" width="710" height="90" as="geometry" />
        </mxCell>
        <mxCell id="ILnLCXTBZFMxgUNTT8F8-168" value="Name" style="text;html=1;align=center;verticalAlign=middle;whiteSpace=wrap;rounded=0;" vertex="1" parent="ILnLCXTBZFMxgUNTT8F8-154">
          <mxGeometry x="423" y="90" width="60" height="30" as="geometry" />
        </mxCell>
        <mxCell id="ILnLCXTBZFMxgUNTT8F8-169" value="Picture" style="rounded=0;whiteSpace=wrap;html=1;" vertex="1" parent="ILnLCXTBZFMxgUNTT8F8-154">
          <mxGeometry x="130" y="90" width="70" height="60" as="geometry" />
        </mxCell>
        <mxCell id="ILnLCXTBZFMxgUNTT8F8-170" value="Achievements" style="text;html=1;align=center;verticalAlign=middle;whiteSpace=wrap;rounded=0;strokeColor=default;" vertex="1" parent="ILnLCXTBZFMxgUNTT8F8-154">
          <mxGeometry x="233" y="140" width="87" height="30" as="geometry" />
        </mxCell>
        <mxCell id="ILnLCXTBZFMxgUNTT8F8-171" value="Session" style="text;html=1;align=center;verticalAlign=middle;whiteSpace=wrap;rounded=0;strokeColor=#b85450;fillColor=#f8cecc;" vertex="1" parent="ILnLCXTBZFMxgUNTT8F8-154">
          <mxGeometry x="329" y="140" width="87" height="30" as="geometry" />
        </mxCell>
        <mxCell id="ILnLCXTBZFMxgUNTT8F8-172" value="Settings" style="text;html=1;align=center;verticalAlign=middle;whiteSpace=wrap;rounded=0;strokeColor=default;" vertex="1" parent="ILnLCXTBZFMxgUNTT8F8-154">
          <mxGeometry x="426.5" y="140" width="87" height="30" as="geometry" />
        </mxCell>
        <mxCell id="ILnLCXTBZFMxgUNTT8F8-173" value="Add new" style="text;html=1;align=center;verticalAlign=middle;whiteSpace=wrap;rounded=0;" vertex="1" parent="ILnLCXTBZFMxgUNTT8F8-154">
          <mxGeometry y="530" width="120" height="30" as="geometry" />
        </mxCell>
        <mxCell id="ILnLCXTBZFMxgUNTT8F8-174" value="" style="rounded=0;whiteSpace=wrap;html=1;fillColor=#d5e8d4;strokeColor=#82b366;" vertex="1" parent="ILnLCXTBZFMxgUNTT8F8-154">
          <mxGeometry x="335" y="212.5" width="270" height="257.5" as="geometry" />
        </mxCell>
        <mxCell id="ILnLCXTBZFMxgUNTT8F8-175" value="Comments on session" style="text;html=1;align=center;verticalAlign=middle;whiteSpace=wrap;rounded=0;strokeColor=default;" vertex="1" parent="ILnLCXTBZFMxgUNTT8F8-154">
          <mxGeometry x="350" y="300" width="240" height="60" as="geometry" />
        </mxCell>
        <mxCell id="ILnLCXTBZFMxgUNTT8F8-176" value="Add note" style="text;html=1;align=center;verticalAlign=middle;whiteSpace=wrap;rounded=0;strokeColor=default;" vertex="1" parent="ILnLCXTBZFMxgUNTT8F8-154">
          <mxGeometry x="522" y="360" width="68" height="20" as="geometry" />
        </mxCell>
        <mxCell id="ILnLCXTBZFMxgUNTT8F8-177" value="Add session" style="text;html=1;align=center;verticalAlign=middle;whiteSpace=wrap;rounded=0;strokeColor=default;fillColor=light-dark(#000000,#512D2B);" vertex="1" parent="ILnLCXTBZFMxgUNTT8F8-154">
          <mxGeometry x="436" y="447.5" width="68" height="20" as="geometry" />
        </mxCell>
        <mxCell id="ILnLCXTBZFMxgUNTT8F8-178" value="Added notes" style="text;html=1;align=center;verticalAlign=middle;whiteSpace=wrap;rounded=0;strokeColor=default;" vertex="1" parent="ILnLCXTBZFMxgUNTT8F8-154">
          <mxGeometry x="350" y="387.5" width="240" height="30" as="geometry" />
        </mxCell>
        <mxCell id="ILnLCXTBZFMxgUNTT8F8-179" value="" style="text;html=1;align=center;verticalAlign=middle;whiteSpace=wrap;rounded=0;strokeColor=default;" vertex="1" parent="ILnLCXTBZFMxgUNTT8F8-154">
          <mxGeometry x="410" y="230" width="170" height="20" as="geometry" />
        </mxCell>
        <mxCell id="ILnLCXTBZFMxgUNTT8F8-180" value="" style="text;html=1;align=center;verticalAlign=middle;whiteSpace=wrap;rounded=0;strokeColor=default;" vertex="1" parent="ILnLCXTBZFMxgUNTT8F8-154">
          <mxGeometry x="410" y="250" width="170" height="20" as="geometry" />
        </mxCell>
        <mxCell id="ILnLCXTBZFMxgUNTT8F8-185" value="" style="text;html=1;align=center;verticalAlign=middle;whiteSpace=wrap;rounded=0;strokeColor=default;" vertex="1" parent="ILnLCXTBZFMxgUNTT8F8-154">
          <mxGeometry x="395" y="480" width="205" height="20" as="geometry" />
        </mxCell>
        <mxCell id="ILnLCXTBZFMxgUNTT8F8-186" value="" style="text;html=1;align=center;verticalAlign=middle;whiteSpace=wrap;rounded=0;strokeColor=default;" vertex="1" parent="ILnLCXTBZFMxgUNTT8F8-154">
          <mxGeometry x="395" y="500" width="205" height="20" as="geometry" />
        </mxCell>
        <mxCell id="ILnLCXTBZFMxgUNTT8F8-187" value="Name:" style="text;html=1;align=center;verticalAlign=middle;whiteSpace=wrap;rounded=0;strokeColor=default;" vertex="1" parent="ILnLCXTBZFMxgUNTT8F8-154">
          <mxGeometry x="335" y="480" width="60" height="20" as="geometry" />
        </mxCell>
        <mxCell id="ILnLCXTBZFMxgUNTT8F8-188" value="Info:" style="text;html=1;align=center;verticalAlign=middle;whiteSpace=wrap;rounded=0;strokeColor=default;" vertex="1" parent="ILnLCXTBZFMxgUNTT8F8-154">
          <mxGeometry x="335" y="500" width="60" height="20" as="geometry" />
        </mxCell>
        <mxCell id="ILnLCXTBZFMxgUNTT8F8-189" value="Create" style="text;html=1;align=center;verticalAlign=middle;whiteSpace=wrap;rounded=0;strokeColor=default;" vertex="1" parent="ILnLCXTBZFMxgUNTT8F8-154">
          <mxGeometry x="532" y="520" width="68" height="20" as="geometry" />
        </mxCell>
        <mxCell id="ILnLCXTBZFMxgUNTT8F8-181" value="Timer" style="text;html=1;align=center;verticalAlign=middle;whiteSpace=wrap;rounded=0;strokeColor=default;" vertex="1" parent="1">
          <mxGeometry x="120" y="2920" width="60" height="20" as="geometry" />
        </mxCell>
        <mxCell id="ILnLCXTBZFMxgUNTT8F8-182" value="Input" style="text;html=1;align=center;verticalAlign=middle;whiteSpace=wrap;rounded=0;strokeColor=default;fillColor=light-dark(#000000,#512D2B);" vertex="1" parent="1">
          <mxGeometry x="180" y="2920" width="68" height="20" as="geometry" />
        </mxCell>
        <mxCell id="ILnLCXTBZFMxgUNTT8F8-183" value="Start:" style="text;html=1;align=center;verticalAlign=middle;whiteSpace=wrap;rounded=0;strokeColor=default;" vertex="1" parent="1">
          <mxGeometry x="340" y="2970" width="60" height="20" as="geometry" />
        </mxCell>
        <mxCell id="ILnLCXTBZFMxgUNTT8F8-184" value="Finish:" style="text;html=1;align=center;verticalAlign=middle;whiteSpace=wrap;rounded=0;strokeColor=default;" vertex="1" parent="1">
          <mxGeometry x="340" y="2990" width="60" height="20" as="geometry" />
        </mxCell>
        <mxCell id="ILnLCXTBZFMxgUNTT8F8-193" value="Tasks" style="swimlane;fontStyle=0;childLayout=stackLayout;horizontal=1;startSize=30;horizontalStack=0;resizeParent=1;resizeParentMax=0;resizeLast=0;collapsible=1;marginBottom=0;whiteSpace=wrap;html=1;fillColor=#0050ef;fontColor=#ffffff;strokeColor=#001DBC;" vertex="1" parent="1">
          <mxGeometry x="850" y="970" width="140" height="150" as="geometry" />
        </mxCell>
        <mxCell id="ILnLCXTBZFMxgUNTT8F8-194" value="Button to switch list/heat" style="text;strokeColor=none;fillColor=none;align=left;verticalAlign=middle;spacingLeft=4;spacingRight=4;overflow=hidden;points=[[0,0.5],[1,0.5]];portConstraint=eastwest;rotatable=0;whiteSpace=wrap;html=1;" vertex="1" parent="ILnLCXTBZFMxgUNTT8F8-193">
          <mxGeometry y="30" width="140" height="30" as="geometry" />
        </mxCell>
        <mxCell id="ILnLCXTBZFMxgUNTT8F8-195" value="Display element" style="text;strokeColor=none;fillColor=none;align=left;verticalAlign=middle;spacingLeft=4;spacingRight=4;overflow=hidden;points=[[0,0.5],[1,0.5]];portConstraint=eastwest;rotatable=0;whiteSpace=wrap;html=1;" vertex="1" parent="ILnLCXTBZFMxgUNTT8F8-193">
          <mxGeometry y="60" width="140" height="50" as="geometry" />
        </mxCell>
        <mxCell id="ILnLCXTBZFMxgUNTT8F8-208" value="Button to create new session" style="text;strokeColor=none;fillColor=none;align=left;verticalAlign=middle;spacingLeft=4;spacingRight=4;overflow=hidden;points=[[0,0.5],[1,0.5]];portConstraint=eastwest;rotatable=0;whiteSpace=wrap;html=1;" vertex="1" parent="ILnLCXTBZFMxgUNTT8F8-193">
          <mxGeometry y="110" width="140" height="40" as="geometry" />
        </mxCell>
        <mxCell id="ILnLCXTBZFMxgUNTT8F8-201" value="" style="endArrow=classic;html=1;rounded=0;exitX=1;exitY=0.5;exitDx=0;exitDy=0;entryX=0.006;entryY=0.184;entryDx=0;entryDy=0;entryPerimeter=0;" edge="1" parent="1" source="ILnLCXTBZFMxgUNTT8F8-195" target="ILnLCXTBZFMxgUNTT8F8-202">
          <mxGeometry width="50" height="50" relative="1" as="geometry">
            <mxPoint x="1190" y="1199" as="sourcePoint" />
            <mxPoint x="1070" y="1055" as="targetPoint" />
          </mxGeometry>
        </mxCell>
        <mxCell id="ILnLCXTBZFMxgUNTT8F8-202" value="Tasks" style="swimlane;fontStyle=0;childLayout=stackLayout;horizontal=1;startSize=30;horizontalStack=0;resizeParent=1;resizeParentMax=0;resizeLast=0;collapsible=1;marginBottom=0;whiteSpace=wrap;html=1;fillColor=#0050ef;fontColor=#ffffff;strokeColor=#001DBC;" vertex="1" parent="1">
          <mxGeometry x="1090" y="1030" width="140" height="90" as="geometry" />
        </mxCell>
        <mxCell id="ILnLCXTBZFMxgUNTT8F8-203" value="display: Name, Info, Start, Finish, Duration" style="text;strokeColor=none;fillColor=none;align=left;verticalAlign=middle;spacingLeft=4;spacingRight=4;overflow=hidden;points=[[0,0.5],[1,0.5]];portConstraint=eastwest;rotatable=0;whiteSpace=wrap;html=1;" vertex="1" parent="ILnLCXTBZFMxgUNTT8F8-202">
          <mxGeometry y="30" width="140" height="30" as="geometry" />
        </mxCell>
        <mxCell id="ILnLCXTBZFMxgUNTT8F8-204" value="Button, that will expand/ close notes" style="text;strokeColor=none;fillColor=none;align=left;verticalAlign=middle;spacingLeft=4;spacingRight=4;overflow=hidden;points=[[0,0.5],[1,0.5]];portConstraint=eastwest;rotatable=0;whiteSpace=wrap;html=1;" vertex="1" parent="ILnLCXTBZFMxgUNTT8F8-202">
          <mxGeometry y="60" width="140" height="30" as="geometry" />
        </mxCell>
        <mxCell id="ILnLCXTBZFMxgUNTT8F8-209" value="Tasks" style="swimlane;fontStyle=0;childLayout=stackLayout;horizontal=1;startSize=30;horizontalStack=0;resizeParent=1;resizeParentMax=0;resizeLast=0;collapsible=1;marginBottom=0;whiteSpace=wrap;html=1;fillColor=#0050ef;fontColor=#ffffff;strokeColor=#001DBC;" vertex="1" parent="1">
          <mxGeometry x="850" y="1620" width="140" height="150" as="geometry" />
        </mxCell>
        <mxCell id="ILnLCXTBZFMxgUNTT8F8-210" value="Button to switch timer/input" style="text;strokeColor=none;fillColor=none;align=left;verticalAlign=middle;spacingLeft=4;spacingRight=4;overflow=hidden;points=[[0,0.5],[1,0.5]];portConstraint=eastwest;rotatable=0;whiteSpace=wrap;html=1;" vertex="1" parent="ILnLCXTBZFMxgUNTT8F8-209">
          <mxGeometry y="30" width="140" height="30" as="geometry" />
        </mxCell>
        <mxCell id="ILnLCXTBZFMxgUNTT8F8-211" value="Timer component" style="text;strokeColor=none;fillColor=none;align=left;verticalAlign=middle;spacingLeft=4;spacingRight=4;overflow=hidden;points=[[0,0.5],[1,0.5]];portConstraint=eastwest;rotatable=0;whiteSpace=wrap;html=1;" vertex="1" parent="ILnLCXTBZFMxgUNTT8F8-209">
          <mxGeometry y="60" width="140" height="30" as="geometry" />
        </mxCell>
        <mxCell id="ILnLCXTBZFMxgUNTT8F8-212" value="Add session button" style="text;strokeColor=none;fillColor=none;align=left;verticalAlign=middle;spacingLeft=4;spacingRight=4;overflow=hidden;points=[[0,0.5],[1,0.5]];portConstraint=eastwest;rotatable=0;whiteSpace=wrap;html=1;" vertex="1" parent="ILnLCXTBZFMxgUNTT8F8-209">
          <mxGeometry y="90" width="140" height="30" as="geometry" />
        </mxCell>
        <mxCell id="ILnLCXTBZFMxgUNTT8F8-226" value="Cancel button" style="text;strokeColor=none;fillColor=none;align=left;verticalAlign=middle;spacingLeft=4;spacingRight=4;overflow=hidden;points=[[0,0.5],[1,0.5]];portConstraint=eastwest;rotatable=0;whiteSpace=wrap;html=1;" vertex="1" parent="ILnLCXTBZFMxgUNTT8F8-209">
          <mxGeometry y="120" width="140" height="30" as="geometry" />
        </mxCell>
        <mxCell id="ILnLCXTBZFMxgUNTT8F8-213" value="Tasks" style="swimlane;fontStyle=0;childLayout=stackLayout;horizontal=1;startSize=30;horizontalStack=0;resizeParent=1;resizeParentMax=0;resizeLast=0;collapsible=1;marginBottom=0;whiteSpace=wrap;html=1;fillColor=#0050ef;fontColor=#ffffff;strokeColor=#001DBC;" vertex="1" parent="1">
          <mxGeometry x="1090" y="1870" width="140" height="120" as="geometry" />
        </mxCell>
        <mxCell id="ILnLCXTBZFMxgUNTT8F8-214" value="Open up form to finish session" style="text;strokeColor=none;fillColor=none;align=left;verticalAlign=middle;spacingLeft=4;spacingRight=4;overflow=hidden;points=[[0,0.5],[1,0.5]];portConstraint=eastwest;rotatable=0;whiteSpace=wrap;html=1;" vertex="1" parent="ILnLCXTBZFMxgUNTT8F8-213">
          <mxGeometry y="30" width="140" height="30" as="geometry" />
        </mxCell>
        <mxCell id="ILnLCXTBZFMxgUNTT8F8-215" value="Get emitted data" style="text;strokeColor=none;fillColor=none;align=left;verticalAlign=middle;spacingLeft=4;spacingRight=4;overflow=hidden;points=[[0,0.5],[1,0.5]];portConstraint=eastwest;rotatable=0;whiteSpace=wrap;html=1;" vertex="1" parent="ILnLCXTBZFMxgUNTT8F8-213">
          <mxGeometry y="60" width="140" height="30" as="geometry" />
        </mxCell>
        <mxCell id="ILnLCXTBZFMxgUNTT8F8-216" value="If timer - stop timer" style="text;strokeColor=none;fillColor=none;align=left;verticalAlign=middle;spacingLeft=4;spacingRight=4;overflow=hidden;points=[[0,0.5],[1,0.5]];portConstraint=eastwest;rotatable=0;whiteSpace=wrap;html=1;" vertex="1" parent="ILnLCXTBZFMxgUNTT8F8-213">
          <mxGeometry y="90" width="140" height="30" as="geometry" />
        </mxCell>
        <mxCell id="ILnLCXTBZFMxgUNTT8F8-217" value="Tasks" style="swimlane;fontStyle=0;childLayout=stackLayout;horizontal=1;startSize=30;horizontalStack=0;resizeParent=1;resizeParentMax=0;resizeLast=0;collapsible=1;marginBottom=0;whiteSpace=wrap;html=1;fillColor=#0050ef;fontColor=#ffffff;strokeColor=#001DBC;" vertex="1" parent="1">
          <mxGeometry x="1090" y="1635" width="140" height="210" as="geometry" />
        </mxCell>
        <mxCell id="ILnLCXTBZFMxgUNTT8F8-218" value="TimerService for counting time" style="text;strokeColor=none;fillColor=none;align=left;verticalAlign=middle;spacingLeft=4;spacingRight=4;overflow=hidden;points=[[0,0.5],[1,0.5]];portConstraint=eastwest;rotatable=0;whiteSpace=wrap;html=1;" vertex="1" parent="ILnLCXTBZFMxgUNTT8F8-217">
          <mxGeometry y="30" width="140" height="30" as="geometry" />
        </mxCell>
        <mxCell id="ILnLCXTBZFMxgUNTT8F8-219" value="Start, Stop, Restart button" style="text;strokeColor=none;fillColor=none;align=left;verticalAlign=middle;spacingLeft=4;spacingRight=4;overflow=hidden;points=[[0,0.5],[1,0.5]];portConstraint=eastwest;rotatable=0;whiteSpace=wrap;html=1;" vertex="1" parent="ILnLCXTBZFMxgUNTT8F8-217">
          <mxGeometry y="60" width="140" height="30" as="geometry" />
        </mxCell>
        <mxCell id="ILnLCXTBZFMxgUNTT8F8-220" value="Text area for notes" style="text;strokeColor=none;fillColor=none;align=left;verticalAlign=middle;spacingLeft=4;spacingRight=4;overflow=hidden;points=[[0,0.5],[1,0.5]];portConstraint=eastwest;rotatable=0;whiteSpace=wrap;html=1;" vertex="1" parent="ILnLCXTBZFMxgUNTT8F8-217">
          <mxGeometry y="90" width="140" height="30" as="geometry" />
        </mxCell>
        <mxCell id="ILnLCXTBZFMxgUNTT8F8-230" value="Button to add note" style="text;strokeColor=none;fillColor=none;align=left;verticalAlign=middle;spacingLeft=4;spacingRight=4;overflow=hidden;points=[[0,0.5],[1,0.5]];portConstraint=eastwest;rotatable=0;whiteSpace=wrap;html=1;" vertex="1" parent="ILnLCXTBZFMxgUNTT8F8-217">
          <mxGeometry y="120" width="140" height="30" as="geometry" />
        </mxCell>
        <mxCell id="ILnLCXTBZFMxgUNTT8F8-229" value="Display of created notes" style="text;strokeColor=none;fillColor=none;align=left;verticalAlign=middle;spacingLeft=4;spacingRight=4;overflow=hidden;points=[[0,0.5],[1,0.5]];portConstraint=eastwest;rotatable=0;whiteSpace=wrap;html=1;" vertex="1" parent="ILnLCXTBZFMxgUNTT8F8-217">
          <mxGeometry y="150" width="140" height="30" as="geometry" />
        </mxCell>
        <mxCell id="ILnLCXTBZFMxgUNTT8F8-231" value="Emit data" style="text;strokeColor=none;fillColor=none;align=left;verticalAlign=middle;spacingLeft=4;spacingRight=4;overflow=hidden;points=[[0,0.5],[1,0.5]];portConstraint=eastwest;rotatable=0;whiteSpace=wrap;html=1;" vertex="1" parent="ILnLCXTBZFMxgUNTT8F8-217">
          <mxGeometry y="180" width="140" height="30" as="geometry" />
        </mxCell>
        <mxCell id="ILnLCXTBZFMxgUNTT8F8-221" value="Tasks" style="swimlane;fontStyle=0;childLayout=stackLayout;horizontal=1;startSize=30;horizontalStack=0;resizeParent=1;resizeParentMax=0;resizeLast=0;collapsible=1;marginBottom=0;whiteSpace=wrap;html=1;fillColor=#0050ef;fontColor=#ffffff;strokeColor=#001DBC;" vertex="1" parent="1">
          <mxGeometry x="1090" y="1520" width="140" height="90" as="geometry" />
        </mxCell>
        <mxCell id="ILnLCXTBZFMxgUNTT8F8-222" value="If there is active data user should be prompted before exiting" style="text;strokeColor=none;fillColor=none;align=left;verticalAlign=middle;spacingLeft=4;spacingRight=4;overflow=hidden;points=[[0,0.5],[1,0.5]];portConstraint=eastwest;rotatable=0;whiteSpace=wrap;html=1;" vertex="1" parent="ILnLCXTBZFMxgUNTT8F8-221">
          <mxGeometry y="30" width="140" height="60" as="geometry" />
        </mxCell>
        <mxCell id="ILnLCXTBZFMxgUNTT8F8-225" value="" style="endArrow=classic;html=1;rounded=0;exitX=1;exitY=0.5;exitDx=0;exitDy=0;entryX=-0.002;entryY=0.129;entryDx=0;entryDy=0;entryPerimeter=0;" edge="1" parent="1" source="ILnLCXTBZFMxgUNTT8F8-210" target="ILnLCXTBZFMxgUNTT8F8-221">
          <mxGeometry width="50" height="50" relative="1" as="geometry">
            <mxPoint x="1010" y="1690" as="sourcePoint" />
            <mxPoint x="1060" y="1640" as="targetPoint" />
          </mxGeometry>
        </mxCell>
        <mxCell id="ILnLCXTBZFMxgUNTT8F8-228" value="" style="endArrow=classic;html=1;rounded=0;exitX=1;exitY=0.5;exitDx=0;exitDy=0;entryX=0.006;entryY=0.132;entryDx=0;entryDy=0;entryPerimeter=0;" edge="1" parent="1" source="ILnLCXTBZFMxgUNTT8F8-211" target="ILnLCXTBZFMxgUNTT8F8-217">
          <mxGeometry width="50" height="50" relative="1" as="geometry">
            <mxPoint x="1030" y="1793" as="sourcePoint" />
            <mxPoint x="1130" y="1660" as="targetPoint" />
          </mxGeometry>
        </mxCell>
        <mxCell id="ILnLCXTBZFMxgUNTT8F8-232" value="" style="endArrow=classic;html=1;rounded=0;exitX=1;exitY=0.5;exitDx=0;exitDy=0;" edge="1" parent="1" source="ILnLCXTBZFMxgUNTT8F8-212" target="ILnLCXTBZFMxgUNTT8F8-213">
          <mxGeometry width="50" height="50" relative="1" as="geometry">
            <mxPoint x="1030" y="1762" as="sourcePoint" />
            <mxPoint x="1131" y="1730" as="targetPoint" />
          </mxGeometry>
        </mxCell>
        <mxCell id="ILnLCXTBZFMxgUNTT8F8-233" value="Tasks" style="swimlane;fontStyle=0;childLayout=stackLayout;horizontal=1;startSize=30;horizontalStack=0;resizeParent=1;resizeParentMax=0;resizeLast=0;collapsible=1;marginBottom=0;whiteSpace=wrap;html=1;fillColor=#0050ef;fontColor=#ffffff;strokeColor=#001DBC;" vertex="1" parent="1">
          <mxGeometry x="850" y="2270" width="140" height="150" as="geometry" />
        </mxCell>
        <mxCell id="ILnLCXTBZFMxgUNTT8F8-234" value="Button to switch timer/input" style="text;strokeColor=none;fillColor=none;align=left;verticalAlign=middle;spacingLeft=4;spacingRight=4;overflow=hidden;points=[[0,0.5],[1,0.5]];portConstraint=eastwest;rotatable=0;whiteSpace=wrap;html=1;" vertex="1" parent="ILnLCXTBZFMxgUNTT8F8-233">
          <mxGeometry y="30" width="140" height="30" as="geometry" />
        </mxCell>
        <mxCell id="ILnLCXTBZFMxgUNTT8F8-235" value="Input-time component" style="text;strokeColor=none;fillColor=none;align=left;verticalAlign=middle;spacingLeft=4;spacingRight=4;overflow=hidden;points=[[0,0.5],[1,0.5]];portConstraint=eastwest;rotatable=0;whiteSpace=wrap;html=1;" vertex="1" parent="ILnLCXTBZFMxgUNTT8F8-233">
          <mxGeometry y="60" width="140" height="30" as="geometry" />
        </mxCell>
        <mxCell id="ILnLCXTBZFMxgUNTT8F8-236" value="Add session button" style="text;strokeColor=none;fillColor=none;align=left;verticalAlign=middle;spacingLeft=4;spacingRight=4;overflow=hidden;points=[[0,0.5],[1,0.5]];portConstraint=eastwest;rotatable=0;whiteSpace=wrap;html=1;" vertex="1" parent="ILnLCXTBZFMxgUNTT8F8-233">
          <mxGeometry y="90" width="140" height="30" as="geometry" />
        </mxCell>
        <mxCell id="ILnLCXTBZFMxgUNTT8F8-237" value="Cancel button" style="text;strokeColor=none;fillColor=none;align=left;verticalAlign=middle;spacingLeft=4;spacingRight=4;overflow=hidden;points=[[0,0.5],[1,0.5]];portConstraint=eastwest;rotatable=0;whiteSpace=wrap;html=1;" vertex="1" parent="ILnLCXTBZFMxgUNTT8F8-233">
          <mxGeometry y="120" width="140" height="30" as="geometry" />
        </mxCell>
        <mxCell id="ILnLCXTBZFMxgUNTT8F8-238" value="Tasks" style="swimlane;fontStyle=0;childLayout=stackLayout;horizontal=1;startSize=30;horizontalStack=0;resizeParent=1;resizeParentMax=0;resizeLast=0;collapsible=1;marginBottom=0;whiteSpace=wrap;html=1;fillColor=#0050ef;fontColor=#ffffff;strokeColor=#001DBC;" vertex="1" parent="1">
          <mxGeometry x="1090" y="2520" width="140" height="90" as="geometry" />
        </mxCell>
        <mxCell id="ILnLCXTBZFMxgUNTT8F8-239" value="Open up form to finish session" style="text;strokeColor=none;fillColor=none;align=left;verticalAlign=middle;spacingLeft=4;spacingRight=4;overflow=hidden;points=[[0,0.5],[1,0.5]];portConstraint=eastwest;rotatable=0;whiteSpace=wrap;html=1;" vertex="1" parent="ILnLCXTBZFMxgUNTT8F8-238">
          <mxGeometry y="30" width="140" height="30" as="geometry" />
        </mxCell>
        <mxCell id="ILnLCXTBZFMxgUNTT8F8-240" value="Get emitted data" style="text;strokeColor=none;fillColor=none;align=left;verticalAlign=middle;spacingLeft=4;spacingRight=4;overflow=hidden;points=[[0,0.5],[1,0.5]];portConstraint=eastwest;rotatable=0;whiteSpace=wrap;html=1;" vertex="1" parent="ILnLCXTBZFMxgUNTT8F8-238">
          <mxGeometry y="60" width="140" height="30" as="geometry" />
        </mxCell>
        <mxCell id="ILnLCXTBZFMxgUNTT8F8-242" value="Tasks" style="swimlane;fontStyle=0;childLayout=stackLayout;horizontal=1;startSize=30;horizontalStack=0;resizeParent=1;resizeParentMax=0;resizeLast=0;collapsible=1;marginBottom=0;whiteSpace=wrap;html=1;fillColor=#0050ef;fontColor=#ffffff;strokeColor=#001DBC;" vertex="1" parent="1">
          <mxGeometry x="1090" y="2285" width="140" height="180" as="geometry" />
        </mxCell>
        <mxCell id="ILnLCXTBZFMxgUNTT8F8-243" value="Calendar input for start and Finish" style="text;strokeColor=none;fillColor=none;align=left;verticalAlign=middle;spacingLeft=4;spacingRight=4;overflow=hidden;points=[[0,0.5],[1,0.5]];portConstraint=eastwest;rotatable=0;whiteSpace=wrap;html=1;" vertex="1" parent="ILnLCXTBZFMxgUNTT8F8-242">
          <mxGeometry y="30" width="140" height="30" as="geometry" />
        </mxCell>
        <mxCell id="ILnLCXTBZFMxgUNTT8F8-245" value="Text area for notes" style="text;strokeColor=none;fillColor=none;align=left;verticalAlign=middle;spacingLeft=4;spacingRight=4;overflow=hidden;points=[[0,0.5],[1,0.5]];portConstraint=eastwest;rotatable=0;whiteSpace=wrap;html=1;" vertex="1" parent="ILnLCXTBZFMxgUNTT8F8-242">
          <mxGeometry y="60" width="140" height="30" as="geometry" />
        </mxCell>
        <mxCell id="ILnLCXTBZFMxgUNTT8F8-246" value="Button to add note" style="text;strokeColor=none;fillColor=none;align=left;verticalAlign=middle;spacingLeft=4;spacingRight=4;overflow=hidden;points=[[0,0.5],[1,0.5]];portConstraint=eastwest;rotatable=0;whiteSpace=wrap;html=1;" vertex="1" parent="ILnLCXTBZFMxgUNTT8F8-242">
          <mxGeometry y="90" width="140" height="30" as="geometry" />
        </mxCell>
        <mxCell id="ILnLCXTBZFMxgUNTT8F8-247" value="Display of created notes" style="text;strokeColor=none;fillColor=none;align=left;verticalAlign=middle;spacingLeft=4;spacingRight=4;overflow=hidden;points=[[0,0.5],[1,0.5]];portConstraint=eastwest;rotatable=0;whiteSpace=wrap;html=1;" vertex="1" parent="ILnLCXTBZFMxgUNTT8F8-242">
          <mxGeometry y="120" width="140" height="30" as="geometry" />
        </mxCell>
        <mxCell id="ILnLCXTBZFMxgUNTT8F8-248" value="Emit data" style="text;strokeColor=none;fillColor=none;align=left;verticalAlign=middle;spacingLeft=4;spacingRight=4;overflow=hidden;points=[[0,0.5],[1,0.5]];portConstraint=eastwest;rotatable=0;whiteSpace=wrap;html=1;" vertex="1" parent="ILnLCXTBZFMxgUNTT8F8-242">
          <mxGeometry y="150" width="140" height="30" as="geometry" />
        </mxCell>
        <mxCell id="ILnLCXTBZFMxgUNTT8F8-249" value="Tasks" style="swimlane;fontStyle=0;childLayout=stackLayout;horizontal=1;startSize=30;horizontalStack=0;resizeParent=1;resizeParentMax=0;resizeLast=0;collapsible=1;marginBottom=0;whiteSpace=wrap;html=1;fillColor=#0050ef;fontColor=#ffffff;strokeColor=#001DBC;" vertex="1" parent="1">
          <mxGeometry x="1090" y="2170" width="140" height="90" as="geometry" />
        </mxCell>
        <mxCell id="ILnLCXTBZFMxgUNTT8F8-250" value="If there is active data user should be prompted before exiting" style="text;strokeColor=none;fillColor=none;align=left;verticalAlign=middle;spacingLeft=4;spacingRight=4;overflow=hidden;points=[[0,0.5],[1,0.5]];portConstraint=eastwest;rotatable=0;whiteSpace=wrap;html=1;" vertex="1" parent="ILnLCXTBZFMxgUNTT8F8-249">
          <mxGeometry y="30" width="140" height="60" as="geometry" />
        </mxCell>
        <mxCell id="ILnLCXTBZFMxgUNTT8F8-251" value="" style="endArrow=classic;html=1;rounded=0;exitX=1;exitY=0.5;exitDx=0;exitDy=0;entryX=-0.002;entryY=0.129;entryDx=0;entryDy=0;entryPerimeter=0;" edge="1" parent="1" source="ILnLCXTBZFMxgUNTT8F8-234" target="ILnLCXTBZFMxgUNTT8F8-249">
          <mxGeometry width="50" height="50" relative="1" as="geometry">
            <mxPoint x="1010" y="2340" as="sourcePoint" />
            <mxPoint x="1060" y="2290" as="targetPoint" />
          </mxGeometry>
        </mxCell>
        <mxCell id="ILnLCXTBZFMxgUNTT8F8-252" value="" style="endArrow=classic;html=1;rounded=0;exitX=1;exitY=0.5;exitDx=0;exitDy=0;entryX=0.006;entryY=0.132;entryDx=0;entryDy=0;entryPerimeter=0;" edge="1" parent="1" source="ILnLCXTBZFMxgUNTT8F8-235" target="ILnLCXTBZFMxgUNTT8F8-242">
          <mxGeometry width="50" height="50" relative="1" as="geometry">
            <mxPoint x="1030" y="2443" as="sourcePoint" />
            <mxPoint x="1130" y="2310" as="targetPoint" />
          </mxGeometry>
        </mxCell>
        <mxCell id="ILnLCXTBZFMxgUNTT8F8-253" value="" style="endArrow=classic;html=1;rounded=0;exitX=1;exitY=0.5;exitDx=0;exitDy=0;" edge="1" parent="1" source="ILnLCXTBZFMxgUNTT8F8-236" target="ILnLCXTBZFMxgUNTT8F8-238">
          <mxGeometry width="50" height="50" relative="1" as="geometry">
            <mxPoint x="1030" y="2412" as="sourcePoint" />
            <mxPoint x="1131" y="2380" as="targetPoint" />
          </mxGeometry>
        </mxCell>
        <mxCell id="ILnLCXTBZFMxgUNTT8F8-255" value="Tasks" style="swimlane;fontStyle=0;childLayout=stackLayout;horizontal=1;startSize=30;horizontalStack=0;resizeParent=1;resizeParentMax=0;resizeLast=0;collapsible=1;marginBottom=0;whiteSpace=wrap;html=1;fillColor=#0050ef;fontColor=#ffffff;strokeColor=#001DBC;" vertex="1" parent="1">
          <mxGeometry x="830" y="2910" width="140" height="90" as="geometry" />
        </mxCell>
        <mxCell id="ILnLCXTBZFMxgUNTT8F8-256" value="Form" style="text;strokeColor=none;fillColor=none;align=left;verticalAlign=middle;spacingLeft=4;spacingRight=4;overflow=hidden;points=[[0,0.5],[1,0.5]];portConstraint=eastwest;rotatable=0;whiteSpace=wrap;html=1;" vertex="1" parent="ILnLCXTBZFMxgUNTT8F8-255">
          <mxGeometry y="30" width="140" height="30" as="geometry" />
        </mxCell>
        <mxCell id="ILnLCXTBZFMxgUNTT8F8-257" value="Create button" style="text;strokeColor=none;fillColor=none;align=left;verticalAlign=middle;spacingLeft=4;spacingRight=4;overflow=hidden;points=[[0,0.5],[1,0.5]];portConstraint=eastwest;rotatable=0;whiteSpace=wrap;html=1;" vertex="1" parent="ILnLCXTBZFMxgUNTT8F8-255">
          <mxGeometry y="60" width="140" height="30" as="geometry" />
        </mxCell>
        <mxCell id="ILnLCXTBZFMxgUNTT8F8-259" value="Tasks" style="swimlane;fontStyle=0;childLayout=stackLayout;horizontal=1;startSize=30;horizontalStack=0;resizeParent=1;resizeParentMax=0;resizeLast=0;collapsible=1;marginBottom=0;whiteSpace=wrap;html=1;fillColor=#0050ef;fontColor=#ffffff;strokeColor=#001DBC;" vertex="1" parent="1">
          <mxGeometry x="1070" y="2980" width="140" height="140" as="geometry" />
        </mxCell>
        <mxCell id="ILnLCXTBZFMxgUNTT8F8-260" value="Send request to backend to save new session" style="text;strokeColor=none;fillColor=none;align=left;verticalAlign=middle;spacingLeft=4;spacingRight=4;overflow=hidden;points=[[0,0.5],[1,0.5]];portConstraint=eastwest;rotatable=0;whiteSpace=wrap;html=1;" vertex="1" parent="ILnLCXTBZFMxgUNTT8F8-259">
          <mxGeometry y="30" width="140" height="50" as="geometry" />
        </mxCell>
        <mxCell id="ILnLCXTBZFMxgUNTT8F8-261" value="Clear data" style="text;strokeColor=none;fillColor=none;align=left;verticalAlign=middle;spacingLeft=4;spacingRight=4;overflow=hidden;points=[[0,0.5],[1,0.5]];portConstraint=eastwest;rotatable=0;whiteSpace=wrap;html=1;" vertex="1" parent="ILnLCXTBZFMxgUNTT8F8-259">
          <mxGeometry y="80" width="140" height="30" as="geometry" />
        </mxCell>
        <mxCell id="ILnLCXTBZFMxgUNTT8F8-262" value="Return back to list" style="text;strokeColor=none;fillColor=none;align=left;verticalAlign=middle;spacingLeft=4;spacingRight=4;overflow=hidden;points=[[0,0.5],[1,0.5]];portConstraint=eastwest;rotatable=0;whiteSpace=wrap;html=1;" vertex="1" parent="ILnLCXTBZFMxgUNTT8F8-259">
          <mxGeometry y="110" width="140" height="30" as="geometry" />
        </mxCell>
        <mxCell id="ILnLCXTBZFMxgUNTT8F8-263" value="Tasks" style="swimlane;fontStyle=0;childLayout=stackLayout;horizontal=1;startSize=30;horizontalStack=0;resizeParent=1;resizeParentMax=0;resizeLast=0;collapsible=1;marginBottom=0;whiteSpace=wrap;html=1;fillColor=#0050ef;fontColor=#ffffff;strokeColor=#001DBC;" vertex="1" parent="1">
          <mxGeometry x="1070" y="2850" width="140" height="90" as="geometry" />
        </mxCell>
        <mxCell id="ILnLCXTBZFMxgUNTT8F8-264" value="Name and info inputs" style="text;strokeColor=none;fillColor=none;align=left;verticalAlign=middle;spacingLeft=4;spacingRight=4;overflow=hidden;points=[[0,0.5],[1,0.5]];portConstraint=eastwest;rotatable=0;whiteSpace=wrap;html=1;" vertex="1" parent="ILnLCXTBZFMxgUNTT8F8-263">
          <mxGeometry y="30" width="140" height="30" as="geometry" />
        </mxCell>
        <mxCell id="ILnLCXTBZFMxgUNTT8F8-265" value="Display emitted data" style="text;strokeColor=none;fillColor=none;align=left;verticalAlign=middle;spacingLeft=4;spacingRight=4;overflow=hidden;points=[[0,0.5],[1,0.5]];portConstraint=eastwest;rotatable=0;whiteSpace=wrap;html=1;" vertex="1" parent="ILnLCXTBZFMxgUNTT8F8-263">
          <mxGeometry y="60" width="140" height="30" as="geometry" />
        </mxCell>
        <mxCell id="ILnLCXTBZFMxgUNTT8F8-267" value="" style="endArrow=classic;html=1;rounded=0;exitX=1;exitY=0.5;exitDx=0;exitDy=0;entryX=-0.025;entryY=0.129;entryDx=0;entryDy=0;entryPerimeter=0;" edge="1" parent="1" source="ILnLCXTBZFMxgUNTT8F8-257" target="ILnLCXTBZFMxgUNTT8F8-259">
          <mxGeometry width="50" height="50" relative="1" as="geometry">
            <mxPoint x="960" y="3110" as="sourcePoint" />
            <mxPoint x="1010" y="3060" as="targetPoint" />
          </mxGeometry>
        </mxCell>
        <mxCell id="ILnLCXTBZFMxgUNTT8F8-268" value="" style="endArrow=classic;html=1;rounded=0;exitX=1;exitY=0.5;exitDx=0;exitDy=0;entryX=0.03;entryY=0.156;entryDx=0;entryDy=0;entryPerimeter=0;" edge="1" parent="1" source="ILnLCXTBZFMxgUNTT8F8-256" target="ILnLCXTBZFMxgUNTT8F8-263">
          <mxGeometry width="50" height="50" relative="1" as="geometry">
            <mxPoint x="950" y="2880" as="sourcePoint" />
            <mxPoint x="1000" y="2830" as="targetPoint" />
          </mxGeometry>
        </mxCell>
      </root>
    </mxGraphModel>
  </diagram>
</mxfile>
